<?xml version="1.0" encoding="utf-8"?>
<!-- Generator: Adobe Illustrator 17.1.0, SVG Export Plug-In . SVG Version: 6.00 Build 0)  -->
<!DOCTYPE svg PUBLIC "-//W3C//DTD SVG 1.1//EN" "http://www.w3.org/Graphics/SVG/1.1/DTD/svg11.dtd">
<svg version="1.1" id="Layer_1" xmlns="http://www.w3.org/2000/svg" xmlns:xlink="http://www.w3.org/1999/xlink" x="0px" y="0px"
	 viewBox="0 0 40 40" enable-background="new 0 0 40 40" xml:space="preserve">
<g>
	
		<radialGradient id="mercury_svgid_1_" cx="1836.9744" cy="-660.9199" r="50.7159" gradientTransform="matrix(-0.3281 -0.1993 0.2083 -0.3164 754.1596 177.8699)" gradientUnits="userSpaceOnUse">
		<stop  offset="0" style="stop-color:#8694CA"/>
		<stop  offset="0.3626" style="stop-color:#848CC4"/>
		<stop  offset="0.431" style="stop-color:#7C84B8"/>
		<stop  offset="0.5532" style="stop-color:#676E99"/>
		<stop  offset="0.7152" style="stop-color:#464A67"/>
		<stop  offset="0.9087" style="stop-color:#171923"/>
		<stop  offset="1" style="stop-color:#000000"/>
	</radialGradient>
	<path fill="url(#mercury_svgid_1_)" d="M7.9,12.6C12.1,6.1,21,4.2,27.7,8.3c6.7,4.1,8.7,12.6,4.4,19.1c-4.3,6.5-13.2,8.4-19.9,4.3
		C5.6,27.6,3.6,19.1,7.9,12.6z"/>
	<path fill="#4B3D59" d="M8.4,23.7C8.4,23.7,8.4,23.7,8.4,23.7C8.5,23.7,8.5,23.7,8.4,23.7C8.4,23.8,8.4,23.8,8.4,23.7
		C8.4,23.8,8.4,23.7,8.4,23.7z"/>
	<path fill="#4B3D59" d="M22.8,30.6c0.1-0.1,0.2-0.1,0.4,0c0.1,0.1,0.2,0.2,0.1,0.4c-0.1,0.1-0.2,0.1-0.4,0
		C22.8,30.8,22.8,30.7,22.8,30.6z"/>
	<path fill="#4B3D59" d="M20.9,26.6c0.1-0.1,0.3-0.1,0.4,0c0.2,0.1,0.2,0.3,0.1,0.4c-0.1,0.1-0.3,0.1-0.4,0
		C20.9,26.9,20.8,26.7,20.9,26.6z"/>
	<path fill="#4B3D59" d="M13.8,23.7c0-0.1,0.1-0.1,0.2,0c0.1,0,0.1,0.1,0.1,0.2c0,0.1-0.1,0.1-0.2,0C13.8,23.8,13.8,23.7,13.8,23.7z
		"/>
	<path fill="#A18EB4" d="M12.2,23.1c0-0.1,0.2-0.1,0.3,0c0.1,0.1,0.1,0.2,0.1,0.2c0,0.1-0.2,0.1-0.3,0
		C12.2,23.3,12.2,23.2,12.2,23.1z"/>
	<path fill="#4B3D59" d="M20.1,29.2c0.1-0.1,0.2-0.1,0.3,0c0.1,0.1,0.2,0.2,0.1,0.3c-0.1,0.1-0.2,0.1-0.3,0
		C20.1,29.4,20.1,29.3,20.1,29.2z"/>
	<ellipse transform="matrix(-0.8537 -0.5207 0.5207 -0.8537 6.0518 45.6231)" fill="#4B3D59" cx="9.4" cy="22" rx="0.1" ry="0.1"/>
	<path fill="#4B3D59" d="M11.1,25c0-0.1,0.1-0.1,0.2,0c0.1,0,0.1,0.1,0.1,0.2c0,0.1-0.1,0.1-0.2,0C11.1,25.1,11.1,25,11.1,25z"/>
	<path fill="#4B3D59" d="M16,30.5c0-0.1,0.1-0.1,0.2,0c0.1,0,0.1,0.1,0.1,0.2c0,0.1-0.1,0.1-0.2,0C16,30.7,15.9,30.6,16,30.5z"/>
	<path fill="#927DA8" d="M13.9,30.1c0-0.1,0.2-0.1,0.3,0c0.1,0.1,0.2,0.2,0.2,0.3c0,0.1-0.2,0.1-0.3,0
		C13.9,30.3,13.9,30.1,13.9,30.1z"/>
	<path fill="#4B3D59" d="M17.4,32.2c0-0.1,0.1-0.2,0.3-0.2c0.2,0,0.3,0.1,0.3,0.2c0,0.1-0.1,0.2-0.3,0.2
		C17.6,32.4,17.4,32.3,17.4,32.2z"/>
	<path fill="#4B3D59" d="M12.9,30c0.1-0.1,0.2-0.1,0.3,0c0.1,0.1,0.2,0.2,0.1,0.3c-0.1,0.1-0.2,0.1-0.3,0
		C12.9,30.2,12.8,30.1,12.9,30z"/>
	<ellipse transform="matrix(-0.8513 -0.5247 0.5247 -0.8513 2.739 58.9468)" fill="#4B3D59" cx="9.7" cy="29.1" rx="0.1" ry="0"/>
	<path fill="#4B3D59" d="M14.1,27.9c0.1-0.1,0.2-0.1,0.4,0c0.1,0.1,0.2,0.2,0.1,0.3c-0.1,0.1-0.2,0.1-0.4,0
		C14.1,28.1,14,28,14.1,27.9z"/>
	<path fill="#4B3D59" d="M15.4,32.5c0-0.1,0.1-0.1,0.3-0.1c0.1,0,0.3,0.1,0.3,0.2c0,0.1-0.1,0.1-0.3,0.1
		C15.5,32.7,15.4,32.6,15.4,32.5z"/>
	<path fill="#4B3D59" d="M21.8,28.5c0-0.1,0.1-0.1,0.2,0c0.1,0,0.1,0.1,0.1,0.2c0,0.1-0.1,0.1-0.2,0C21.8,28.6,21.7,28.5,21.8,28.5z
		"/>
	<path fill="#4B3D59" d="M17.5,30.3c0.1-0.1,0.2-0.1,0.3,0c0.1,0.1,0.2,0.2,0.1,0.3c-0.1,0.1-0.2,0.1-0.3,0
		C17.5,30.5,17.5,30.4,17.5,30.3z"/>
	<path fill="#4B3D59" d="M12.8,24.9c0.1-0.1,0.2-0.1,0.3,0c0.1,0.1,0.2,0.2,0.1,0.3c-0.1,0.1-0.2,0.1-0.3,0
		C12.8,25.2,12.8,25,12.8,24.9z"/>
	<path fill="#4B3D59" d="M11.3,21.8C11.3,21.8,11.3,21.8,11.3,21.8c0.1,0,0.1,0,0.1,0.1C11.4,21.9,11.4,21.9,11.3,21.8
		C11.3,21.9,11.3,21.8,11.3,21.8z"/>
	<path fill="#4B3D59" d="M9.7,24.7c0,0,0.1,0,0.1,0c0,0,0.1,0.1,0,0.1c0,0-0.1,0-0.1,0C9.7,24.8,9.7,24.8,9.7,24.7z"/>
	<path fill="#4B3D59" d="M12.5,27.3c0,0,0.1,0,0.1,0c0,0,0.1,0.1,0,0.1C12.6,27.4,12.6,27.4,12.5,27.3
		C12.5,27.3,12.5,27.3,12.5,27.3z"/>
	<path fill="#4B3D59" d="M19.4,26c0-0.1,0.2-0.1,0.2,0c0.1,0.1,0.1,0.2,0.1,0.2c0,0.1-0.2,0.1-0.2,0C19.4,26.2,19.4,26.1,19.4,26z"
		/>
	<path fill="#4B3D59" d="M16.6,29.2c0-0.1,0.2-0.1,0.3,0c0.1,0.1,0.1,0.2,0.1,0.2c0,0.1-0.2,0.1-0.3,0
		C16.6,29.4,16.6,29.3,16.6,29.2z"/>
	<path fill="#4B3D59" d="M20.6,30.9c0,0,0.1-0.1,0.2,0c0.1,0,0.1,0.1,0.1,0.2c0,0.1-0.1,0.1-0.2,0C20.5,31,20.5,30.9,20.6,30.9z"/>
	<path fill="#4B3D59" d="M21.7,30.2c0-0.1,0.1-0.1,0.2,0c0.1,0,0.1,0.1,0.1,0.2c0,0.1-0.1,0.1-0.2,0C21.7,30.4,21.6,30.3,21.7,30.2z
		"/>
	<path fill="#4B3D59" d="M19,30.3c0,0,0.1-0.1,0.2,0c0.1,0,0.1,0.1,0.1,0.1c0,0-0.1,0.1-0.2,0C19,30.4,19,30.3,19,30.3z"/>
	<path fill="#4B3D59" d="M13,26.3c0-0.1,0.1-0.1,0.2,0c0.1,0.1,0.1,0.1,0.1,0.2c0,0.1-0.1,0.1-0.2,0C13,26.5,12.9,26.4,13,26.3z"/>
	<path fill="#4B3D59" d="M11.6,25.8C11.6,25.7,11.7,25.7,11.6,25.8c0.1,0,0.1,0,0.1,0.1c0,0-0.1,0.1-0.1,0
		C11.6,25.8,11.6,25.8,11.6,25.8z"/>
	<path fill="#4B3D59" d="M23.5,25.8c0.1-0.1,0.3-0.1,0.5,0c0.2,0.1,0.2,0.3,0.2,0.4c-0.1,0.1-0.3,0.1-0.5,0
		C23.5,26.1,23.4,25.9,23.5,25.8z"/>
	<path fill="#251D2D" d="M27.5,22c0.1-0.1,0.2-0.2,0.4-0.1C28,22,28,22.2,28,22.3c-0.1,0.1-0.2,0.2-0.4,0.1
		C27.5,22.3,27.4,22.1,27.5,22z"/>
	<path fill="#4B3D59" d="M19.4,22.9c0.1-0.1,0.2-0.1,0.3-0.1c0.1,0.1,0.1,0.2,0,0.3c-0.1,0.1-0.2,0.1-0.3,0.1
		C19.3,23.1,19.3,23,19.4,22.9z"/>
	<path fill="#4B3D59" d="M12.8,15.1c0.1-0.1,0.2-0.2,0.3-0.1c0.1,0.1,0.1,0.2,0,0.3c-0.1,0.1-0.2,0.2-0.3,0.1
		C12.7,15.3,12.7,15.2,12.8,15.1z"/>
	<path fill="#4B3D59" d="M15.3,14.7c0.1-0.1,0.2-0.2,0.3-0.1c0.1,0.1,0.1,0.2,0.1,0.3c-0.1,0.1-0.2,0.2-0.3,0.1
		C15.3,15,15.2,14.8,15.3,14.7z"/>
	<path fill="#4B3D59" d="M15.5,18.1c0-0.1,0.2-0.1,0.2,0c0.1,0.1,0.1,0.2,0.1,0.2c0,0.1-0.2,0.1-0.2,0
		C15.5,18.3,15.5,18.2,15.5,18.1z"/>
	<path fill="#4B3D59" d="M20.9,19.9c0.1-0.1,0.2-0.1,0.3-0.1c0.1,0.1,0.1,0.2,0.1,0.2c-0.1,0.1-0.2,0.1-0.3,0.1
		C20.9,20.1,20.8,20,20.9,19.9z"/>
	<path fill="#4B3D59" d="M21.9,17.8c0.1-0.1,0.2-0.1,0.3,0c0.1,0.1,0.1,0.2,0.1,0.3c-0.1,0.1-0.2,0.1-0.3,0
		C21.9,18,21.8,17.9,21.9,17.8z"/>
	<path fill="#4B3D59" d="M19.8,15.6c0.1-0.1,0.2-0.1,0.3-0.1c0.1,0,0.1,0.2,0,0.3c-0.1,0.1-0.2,0.1-0.3,0.1
		C19.8,15.8,19.8,15.7,19.8,15.6z"/>
	<path fill="#4B3D59" d="M25.9,19.1c0.1-0.1,0.2-0.1,0.3,0c0.1,0.1,0.1,0.2,0.1,0.3c-0.1,0.1-0.2,0.1-0.3,0
		C25.9,19.3,25.8,19.2,25.9,19.1z"/>
	<path fill="#382E43" d="M26,26.9c0.1-0.1,0.2-0.1,0.3-0.1c0.1,0.1,0.1,0.2,0.1,0.3c-0.1,0.1-0.2,0.1-0.3,0.1
		C26,27.1,25.9,27,26,26.9z"/>
	<path fill="#927DA8" d="M11.8,16.3c0.1-0.1,0.2-0.1,0.3-0.1c0.1,0.1,0.1,0.2,0.1,0.3c-0.1,0.1-0.2,0.1-0.3,0.1
		C11.8,16.5,11.8,16.4,11.8,16.3z"/>
	<path fill="#4B3D59" d="M7.6,20.4c0-0.1,0.1-0.1,0.2,0c0,0,0.1,0.1,0,0.1c0,0-0.1,0.1-0.2,0C7.5,20.5,7.5,20.4,7.6,20.4z"/>
	<path fill="#4B3D59" d="M6.1,21.5c0-0.1,0.1-0.1,0.2,0c0.1,0,0.1,0.1,0,0.2c0,0.1-0.1,0.1-0.2,0C6,21.7,6,21.6,6.1,21.5z"/>
	<path fill="#4B3D59" d="M8.1,26.5c0.1-0.1,0.2-0.1,0.3-0.1c0.1,0.1,0.1,0.2,0.1,0.3c-0.1,0.1-0.2,0.1-0.3,0.1
		C8,26.7,8,26.6,8.1,26.5z"/>
	<path fill="#4B3D59" d="M11.9,29.1c0.1-0.1,0.2-0.1,0.3-0.1c0.1,0.1,0.1,0.2,0.1,0.2c-0.1,0.1-0.2,0.1-0.3,0.1
		C11.8,29.3,11.8,29.2,11.9,29.1z"/>
	<path fill="#4B3D59" d="M17.4,33.2c0,0,0.1,0,0.2,0c0.1,0,0.1,0.1,0.1,0.2c0,0-0.1,0-0.2,0C17.4,33.3,17.4,33.2,17.4,33.2z"/>
	<path fill="#4B3D59" d="M16.8,21.9c0.1-0.1,0.2-0.2,0.4-0.1c0.1,0.1,0.2,0.2,0.1,0.3c-0.1,0.1-0.2,0.2-0.4,0.1
		C16.7,22.1,16.7,22,16.8,21.9z"/>
	<path fill="#4B3D59" d="M27,24.8c0.1-0.1,0.2-0.2,0.4-0.1c0.1,0.1,0.2,0.2,0.1,0.3c-0.1,0.1-0.2,0.2-0.4,0.1
		C26.9,25,26.9,24.9,27,24.8z"/>
	<path fill="#4B3D59" d="M12.8,12.7c0.1-0.1,0.2-0.1,0.3-0.1c0.1,0.1,0.1,0.2,0.1,0.3C13.1,13,12.9,13,12.8,13
		C12.7,12.9,12.7,12.8,12.8,12.7z"/>
	<path fill="#4B3D59" d="M11.9,11.4c0.1-0.1,0.2-0.1,0.3-0.1c0.1,0.1,0.1,0.2,0.1,0.3c-0.1,0.1-0.2,0.1-0.3,0.1
		C11.8,11.6,11.8,11.5,11.9,11.4z"/>
	<path fill="#4B3D59" d="M8.4,15.3c0.1-0.1,0.2-0.1,0.3-0.1c0.1,0.1,0.1,0.2,0.1,0.3c-0.1,0.1-0.2,0.1-0.3,0.1
		C8.4,15.6,8.4,15.4,8.4,15.3z"/>
	<path fill="#4B3D59" d="M7,18.9c0-0.1,0.1-0.1,0.2,0c0.1,0,0.1,0.1,0,0.1C7.1,19,7,19,7,19C6.9,19,6.9,18.9,7,18.9z"/>
	<path fill="#4B3D59" d="M10.4,19.9c0-0.1,0.1-0.1,0.2,0c0.1,0,0.1,0.1,0,0.2c0,0.1-0.1,0.1-0.2,0C10.3,20,10.3,19.9,10.4,19.9z"/>
	<path fill="#4B3D59" d="M12.7,21.1c0-0.1,0.1-0.1,0.2,0c0.1,0,0.1,0.1,0,0.2c0,0.1-0.1,0.1-0.2,0C12.7,21.2,12.7,21.2,12.7,21.1z"
		/>
	<path fill="#A18EB4" d="M16.4,20.2c0.1-0.1,0.2-0.2,0.4-0.1c0.1,0.1,0.2,0.2,0.1,0.3c-0.1,0.1-0.2,0.2-0.4,0.1
		C16.3,20.5,16.3,20.3,16.4,20.2z"/>
	<path fill="#4B3D59" d="M14.7,22.7c0.1-0.1,0.2-0.1,0.3-0.1c0.1,0.1,0.1,0.2,0.1,0.3c-0.1,0.1-0.2,0.1-0.3,0.1
		C14.7,23,14.7,22.8,14.7,22.7z"/>
	<path fill="#4B3D59" d="M17.6,23.5c0.1-0.1,0.2-0.1,0.3-0.1c0.1,0.1,0.1,0.2,0.1,0.3c-0.1,0.1-0.2,0.1-0.3,0.1
		C17.6,23.7,17.5,23.6,17.6,23.5z"/>
	<path fill="#4B3D59" d="M21.6,22.4c0-0.1,0.1-0.1,0.2,0c0.1,0,0.1,0.1,0,0.2c0,0.1-0.1,0.1-0.2,0C21.5,22.6,21.5,22.5,21.6,22.4z"
		/>
	<path fill="#4B3D59" d="M23.3,24.2c0,0,0.1-0.1,0.2,0c0.1,0,0.1,0.1,0,0.1c0,0.1-0.1,0.1-0.2,0C23.3,24.3,23.2,24.2,23.3,24.2z"/>
	<path fill="#4B3D59" d="M24,18.6c0-0.1,0.1-0.1,0.2,0c0.1,0,0.1,0.1,0,0.2c0,0.1-0.1,0.1-0.2,0C24,18.7,24,18.6,24,18.6z"/>
	<path fill="#4B3D59" d="M24.3,10.5c0.1-0.1,0.2-0.1,0.2,0c0.1,0,0.1,0.1,0,0.2c0,0.1-0.2,0.1-0.2,0C24.2,10.7,24.2,10.6,24.3,10.5z
		"/>
	<path fill="#4B3D59" d="M22.4,9.6c0.1-0.1,0.2-0.1,0.3-0.1c0.1,0.1,0.1,0.2,0.1,0.3c-0.1,0.1-0.2,0.1-0.3,0.1
		C22.3,9.8,22.3,9.7,22.4,9.6z"/>
	<path fill="#4B3D59" d="M20.7,9.9c0.1-0.1,0.2-0.1,0.3-0.1C21,9.8,21.1,10,21,10.1c-0.1,0.1-0.2,0.1-0.3,0.1
		C20.6,10.1,20.6,9.9,20.7,9.9z"/>
	<path fill="#4B3D59" d="M21.5,12.9c0.1-0.1,0.2-0.1,0.3-0.1c0.1,0.1,0.1,0.2,0.1,0.3c-0.1,0.1-0.2,0.1-0.3,0.1
		C21.4,13.1,21.4,13,21.5,12.9z"/>
	<path fill="#4B3D59" d="M28.6,17c0,0,0.1,0,0.1,0c0,0,0,0.1,0,0.1c0,0-0.1,0-0.1,0C28.6,17.1,28.6,17.1,28.6,17z"/>
	<path fill="#161218" d="M29.5,19.2c0.1-0.1,0.3-0.2,0.4-0.1c0.1,0.1,0.2,0.3,0.1,0.4c-0.1,0.1-0.3,0.2-0.4,0.1
		C29.4,19.5,29.4,19.3,29.5,19.2z"/>
	<path fill="#4B3D59" d="M13.9,9.4c0.1-0.1,0.2-0.1,0.3-0.1c0.1,0.1,0.1,0.2,0.1,0.3c-0.1,0.1-0.2,0.1-0.3,0.1
		C13.9,9.6,13.8,9.5,13.9,9.4z"/>
	<path fill="#4B3D59" d="M28.1,15.6c0.1-0.1,0.2-0.1,0.3-0.1c0.1,0.1,0.1,0.2,0.1,0.3c-0.1,0.1-0.2,0.1-0.3,0.1
		C28,15.8,28,15.7,28.1,15.6z"/>
	<path fill="#4B3D59" d="M21.6,23.2c0-0.1,0.1-0.1,0.2,0c0.1,0,0.1,0.1,0,0.2c0,0.1-0.1,0.1-0.2,0C21.6,23.3,21.6,23.2,21.6,23.2z"
		/>
	<circle fill="#4B3D59" cx="26.8" cy="17.2" r="0.1"/>
	<path fill="#4B3D59" d="M24.5,16.3c0-0.1,0.2-0.1,0.3,0c0.1,0.1,0.2,0.2,0.1,0.2c0,0.1-0.2,0.1-0.3,0
		C24.5,16.4,24.4,16.3,24.5,16.3z"/>
	<path fill="#4B3D59" d="M23.3,13c0-0.1,0.1-0.1,0.2-0.1c0.1,0,0.1,0.1,0,0.2c0,0.1-0.1,0.1-0.2,0.1C23.3,13.1,23.3,13,23.3,13z"/>
	<path fill="#4B3D59" d="M22,11.9c0-0.1,0.1-0.1,0.2-0.1c0.1,0,0.1,0.1,0,0.2c0,0.1-0.1,0.1-0.2,0.1C21.9,12,21.9,12,22,11.9z"/>
	<path fill="#4B3D59" d="M20.2,11.4c0.1-0.1,0.2-0.1,0.3,0c0.1,0.1,0.1,0.2,0.1,0.3c-0.1,0.1-0.2,0.1-0.3,0
		C20.2,11.6,20.1,11.5,20.2,11.4z"/>
	<path fill="#4B3D59" d="M19.2,13c0.1-0.1,0.2-0.1,0.3-0.1c0.1,0.1,0.1,0.2,0.1,0.3c-0.1,0.1-0.2,0.1-0.3,0.1
		C19.1,13.2,19.1,13.1,19.2,13z"/>
	<path fill="#4B3D59" d="M22.2,15c0-0.1,0.1-0.1,0.2,0c0.1,0,0.1,0.1,0,0.2c0,0.1-0.1,0.1-0.2,0C22.1,15.2,22.1,15.1,22.2,15z"/>
	<path fill="#4B3D59" d="M14.9,8.4c0-0.1,0.2-0.1,0.3,0c0.1,0.1,0.1,0.2,0.1,0.2c-0.1,0.1-0.2,0.1-0.3,0C14.9,8.6,14.8,8.5,14.9,8.4
		z"/>
	<path fill="#4B3D59" d="M15.2,11c0-0.1,0.1-0.1,0.2,0c0.1,0.1,0.1,0.1,0.1,0.2c0,0.1-0.1,0.1-0.2,0C15.2,11.1,15.2,11,15.2,11z"/>
	<path fill="#4B3D59" d="M19.4,8.9c0-0.1,0.1-0.1,0.2-0.1c0.1,0,0.1,0.1,0,0.2c0,0.1-0.1,0.1-0.2,0.1C19.4,9.1,19.4,9,19.4,8.9z"/>
	<path fill="#251D2D" d="M21.9,8.3c0-0.1,0.1-0.1,0.2,0c0.1,0.1,0.1,0.2,0.1,0.2c0,0.1-0.1,0.1-0.2,0C21.9,8.5,21.9,8.4,21.9,8.3z"
		/>
	<path fill="#161218" d="M26.5,11.3c0-0.1,0.1-0.1,0.2,0c0.1,0,0.1,0.1,0.1,0.2c0,0.1-0.1,0.1-0.2,0C26.5,11.4,26.5,11.3,26.5,11.3z
		"/>
	<path fill="#4B3D59" d="M26,12.9c0.1-0.1,0.2-0.1,0.3,0c0.1,0.1,0.1,0.2,0.1,0.2c0,0.1-0.2,0.1-0.3,0C26,13.1,25.9,13,26,12.9z"/>
	<path fill="#251D2D" d="M30.1,18.1c0.1-0.1,0.2-0.1,0.2-0.1c0.1,0,0.1,0.1,0,0.2c-0.1,0.1-0.2,0.1-0.2,0.1
		C30,18.3,30,18.2,30.1,18.1z"/>
	<path fill="#4B3D59" d="M30.2,21.7c0-0.1,0.1-0.1,0.2-0.1c0,0,0,0.1,0,0.2c0,0.1-0.1,0.1-0.2,0.1C30.1,21.9,30.1,21.8,30.2,21.7z"
		/>
	<path fill="#4B3D59" d="M27.7,20.3c0.1-0.1,0.2-0.2,0.3-0.2c0.1,0,0.1,0.2,0,0.3c-0.1,0.1-0.2,0.2-0.3,0.2
		C27.6,20.5,27.6,20.4,27.7,20.3z"/>
</g>
</svg>
