<?xml version="1.0" encoding="utf-8"?>
<!-- Generator: Adobe Illustrator 17.1.0, SVG Export Plug-In . SVG Version: 6.00 Build 0)  -->
<!DOCTYPE svg PUBLIC "-//W3C//DTD SVG 1.1//EN" "http://www.w3.org/Graphics/SVG/1.1/DTD/svg11.dtd">
<svg version="1.1" id="Layer_1" xmlns="http://www.w3.org/2000/svg" xmlns:xlink="http://www.w3.org/1999/xlink" x="0px" y="0px"
	 viewBox="0 0 65 65" enable-background="new 0 0 65 65" xml:space="preserve">
<g>
	
		<radialGradient id="mars_svgid_1_" cx="189.1375" cy="-370.4781" r="53.8646" gradientTransform="matrix(0.8398 -0.2708 0.2808 0.7925 -36.6893 368.0535)" gradientUnits="userSpaceOnUse">
		<stop  offset="0" style="stop-color:#F2D8CC"/>
		<stop  offset="0.3681" style="stop-color:#AE552B"/>
		<stop  offset="1" style="stop-color:#000000"/>
	</radialGradient>
	<path fill="url(#mars_svgid_1_)" d="M58.3,24.2c4.8,13.4-2.9,28.1-17.2,32.7c-14.2,4.6-29.7-2.6-34.4-16C1.9,27.4,9.6,12.8,23.9,8.2
		C38.1,3.6,53.5,10.7,58.3,24.2z"/>
	<g>
		<path fill="#0C090B" d="M32.4,32.8c-0.1,0-0.1,0-0.2,0C32.3,32.9,32.4,32.8,32.4,32.8z"/>
		<path fill="#0C090B" d="M32.1,32.9c-0.1,0-0.1,0-0.2,0C31.9,32.9,32,32.9,32.1,32.9z"/>
		<path fill="#0C090B" d="M31.7,32.9c-0.1,0-0.1,0-0.2,0C31.6,32.9,31.7,32.9,31.7,32.9z"/>
		<path fill="#0C090B" d="M55.9,19.2c-0.4-0.6-0.8-1.1-1.2-1.7C55.1,18.1,55.5,18.7,55.9,19.2C55.8,19.3,55.9,19.3,55.9,19.2z"/>
		<path fill="#0C090B" d="M34.1,32.5c-0.4,0.1-0.8,0.2-1.2,0.3C33.3,32.7,33.7,32.6,34.1,32.5z"/>
		<path fill="#0C090B" d="M32.8,32.8c-0.1,0-0.2,0-0.2,0C32.6,32.8,32.7,32.8,32.8,32.8z"/>
		<path fill="#0C090B" d="M38.1,7.3c-0.1,0-0.2,0-0.3,0c0,0,0,0,0,0.1C37.9,7.3,38,7.3,38.1,7.3z"/>
		<path fill="#0C090B" d="M31.4,32.9c-0.1,0-0.1,0-0.2,0C31.3,32.9,31.3,32.9,31.4,32.9z"/>
		<polygon fill="#0C090B" points="36.2,32.1 36.2,32.1 36.2,32.1 		"/>
		<path fill="#0C090B" d="M36.3,30.4c-0.1,0-0.1,0.1-0.2,0.1C36.2,30.4,36.2,30.4,36.3,30.4z"/>
		<path fill="#0C090B" d="M36.8,31.9C36.8,31.9,36.9,31.9,36.8,31.9C36.9,31.9,36.8,31.9,36.8,31.9z"/>
		<path fill="#0C090B" d="M57.1,21.4c0-0.1-0.1-0.2-0.1-0.3c0,0.1,0,0.1,0.1,0.2C57.1,21.3,57.1,21.4,57.1,21.4z"/>
		<path fill="#0C090B" d="M34.4,32.4c-0.1,0-0.2,0-0.3,0C34.2,32.5,34.3,32.4,34.4,32.4z"/>
		<path fill="#0C090B" d="M30.5,32.7c0.1,0,0.2,0.1,0.3,0.1C30.7,32.8,30.6,32.7,30.5,32.7z"/>
		<path fill="#0C090B" d="M36,31.1c0-0.1,0-0.1,0-0.2C36,31,36,31,36,31.1z"/>
		<path fill="#0C090B" d="M36,30.7c0-0.1,0-0.1,0.1-0.2C36.1,30.6,36.1,30.6,36,30.7z"/>
		<path fill="#0C090B" d="M36,30.9c0-0.1,0-0.1,0-0.2C36,30.8,36,30.8,36,30.9z"/>
		<path fill="#0C090B" d="M31.1,32.9c-0.1,0-0.1,0-0.2,0C31,32.9,31,32.9,31.1,32.9z"/>
		<path fill="#0C090B" d="M34,33.6C33.9,33.6,33.9,33.6,34,33.6C33.9,33.6,33.9,33.6,34,33.6z"/>
		<path fill="#0C090B" d="M38.5,31.5c-0.1,0-0.1,0-0.2,0C38.4,31.5,38.4,31.5,38.5,31.5z"/>
		<path fill="#0C090B" d="M34.8,32.4c-0.1,0-0.2,0-0.2,0C34.6,32.4,34.7,32.4,34.8,32.4z"/>
		<path fill="#0C090B" d="M33.6,33.9c0,0-0.1,0.1-0.1,0.1C33.5,34,33.6,34,33.6,33.9z"/>
		<path fill="#0C090B" d="M37.6,31.7C37.6,31.7,37.6,31.7,37.6,31.7C37.6,31.7,37.6,31.7,37.6,31.7z"/>
		<path fill="#0C090B" d="M20.4,55.6c0.3,0.1,0.6,0.3,0.8,0.4C21,55.8,20.7,55.7,20.4,55.6z"/>
		<path fill="#0C090B" d="M35.7,32.3c-0.1,0-0.1,0-0.2,0C35.6,32.3,35.7,32.3,35.7,32.3z"/>
		<path fill="#0C090B" d="M35.4,32.3c-0.1,0-0.1,0-0.2,0C35.3,32.3,35.4,32.3,35.4,32.3z"/>
		<path fill="#0C090B" d="M35.1,32.3c-0.1,0-0.1,0-0.2,0C34.9,32.3,35,32.3,35.1,32.3z"/>
		<path fill="#0C090B" d="M34.3,33.2C34.3,33.2,34.3,33.2,34.3,33.2C34.3,33.2,34.3,33.2,34.3,33.2z"/>
		<path fill="#0C090B" d="M32.9,34.8c0,0-0.1,0.1-0.1,0.1C32.8,34.9,32.9,34.8,32.9,34.8z"/>
		<path fill="#0C090B" d="M33.2,34.3c0,0-0.1,0.1-0.1,0.1C33.2,34.4,33.2,34.4,33.2,34.3z"/>
		<polygon fill="#0C090B" points="35.7,32.3 35.7,32.3 35.7,32.3 		"/>
		<path fill="#F6BE7B" d="M29.6,28.7c-0.1-2.9-4.3-0.4-4.3,0.9C26.2,30.4,28.3,28.8,29.6,28.7z"/>
		<path fill="#964729" d="M52.8,26.5c1.8-0.3,4.1,0.1,5.9-0.5l-0.5-1.3c-0.6,0.1-0.7-0.5-0.9-1.1L56.4,21c-2-0.2-0.9,0.4-1.5,1.5
			c-0.7-3.8-1.3-6.9-3.5-5.6c-0.3-0.9,1.1-0.9,0.3-2c-1.7-0.1-3.2-1.3-3.7-1.7c-2.1,2.4,3.3,1.4,2.6,3c-1.1-0.5-2.2-1-4.1-0.1
			c0.4,1.1,1.4,1.1,0.2,1.9c-2.2-0.9-3.2-4-4.7-6.2c-2.4,2.2-3.3-2.8-5.6-3c-0.5-0.9,1-0.9,0.9-1.6C36.8,7.1,36.4,7,36,7
			c-4-0.5-8.1-0.1-12.2,1.2c-1.6,0.5-3.1,1.2-4.5,1.9c-2.5,1.3-4.7,2.9-6.6,4.8c-0.7,1.1-2.1,1.8-2.2,3.1c-0.1-0.1-0.2-0.2-0.3-0.2
			c-0.7,1-1.4,2-2,3.1c-0.2,1-0.7,1.9-1.3,2.7c-0.3,0.7-0.5,1.3-0.7,2c0.1,0,0.2,0,0.3,0c2.7-0.7,0.2-1.3,2.4-3.2
			C9.3,25.6,7.8,28,7,30.7c-1.9-0.5,1.6-2.6-0.6-3.2c-0.6,1-1.1,3.3,0.5,4.2c-0.6,0.2-0.9,0.5-1.2,0.9c1.5,1.6,2.5,5.3,2.4,6.9
			c2.9,1.4,5.1,4.2,9,3.8c-0.6-2.4-0.8-5.3,1.5-7.2c-0.5,2.3,1.4,3.3,3.2,3.3c0.2,0.7-1,0.7-0.5,1.6c1.3-0.9,1.5-0.8,1.2,0.6
			c1.4-3.5,8.7-2.4,5.5,1.1c2.5,1.9,3.4-3.8,5.9-1.9c0.3,1.2-2.5,1-1.7,2.5c1.5,0.9,3.2-1.1,3.3-2c0.5,1,1.9,0.3,2.1,1.7
			c2.7-0.7,4.9-2,6.7,0.2c4.4-1.7,4.2-5.5,5.6-8.5c-1.8,0.4-2.9,0.5-5,0.2c1-0.5,1.8-0.5,2.4-0.3c-0.3-1.7-2.4,0.2-2.9-1
			c5.9-0.4,7.5-1.4,10-3.2c-0.2-0.5-0.4-1.2-0.9-1.1C52.8,31.1,52.2,27.1,52.8,26.5z M48.2,17.9c1.9-1.6,3,1.9,3.4,0.8
			c1.9-0.2-1,2.1,0.6,1.7c0,0.7-0.6,0-1.4,0.4c0.9-1.1,0.4-1.4-0.6-0.3c-0.3-0.5-0.7-0.5-1.2-0.6c0-0.4-0.3-0.3-0.6-0.3
			C48.6,19.3,48.5,18.6,48.2,17.9z M45.9,24.4c0.1,0.9-1,1.2-0.2,2.4c0.6-0.2,0.9-0.5,1.2-0.9c0,0.4,0.3,0.3,0.6,0.3l0.3,0.9
			c-1,0.5-1.3-0.5-2.4,0.3C44.7,26,45.1,25.1,45.9,24.4z M41.8,32.9c-0.2,0.8-1.3,1.1-2,1.6c-0.8-0.5-1.1-1.8-2.4-1.1
			C38.6,32.2,40.2,33.9,41.8,32.9z M25.4,29.6c0-1.3,4.1-3.8,4.3-0.9C28.3,28.8,26.2,30.4,25.4,29.6z M18.4,17
			c-0.2,0.5-0.1,1.1,0.2,1.9c-1.2-0.6-2.2,0.5-3.2,1C15.5,18.5,16.3,17.4,18.4,17z M27.8,35c-1.3-0.6-1.3,1.2-2.4,1.7
			c-1.1-0.3-2-0.9-3-1.4l4.6-1.5C26.9,34.6,29,34.4,27.8,35z M34.3,33.2c-0.1,0.1-0.2,0.2-0.4,0.3c0,0-0.1,0.1-0.1,0.1
			c-0.1,0.1-0.2,0.2-0.3,0.3c0,0-0.1,0.1-0.1,0.1c-0.1,0.1-0.2,0.2-0.2,0.3c0,0-0.1,0.1-0.1,0.1c-0.1,0.1-0.2,0.2-0.2,0.3
			c0,0-0.1,0.1-0.1,0.1c-0.1,0.2-0.2,0.3-0.3,0.5c-0.2-1.7-2.2-0.1-2.9-1c-0.2-0.6-0.1-1,0-1.4l0.9-0.3c0.1,0,0.2,0.1,0.3,0.1
			c0,0,0.1,0,0.1,0c0.1,0,0.1,0,0.2,0c0,0,0.1,0,0.1,0c0.1,0,0.1,0,0.2,0c0,0,0.1,0,0.1,0c0.1,0,0.1,0,0.2,0c0,0,0.1,0,0.1,0
			c0.1,0,0.1,0,0.2,0c0,0,0.1,0,0.1,0c0.1,0,0.1,0,0.2,0c0,0,0.1,0,0.1,0c0.1,0,0.2,0,0.2,0c0,0,0.1,0,0.1,0
			c0.4-0.1,0.8-0.2,1.2-0.3c0,0,0.1,0,0.1,0c0.1,0,0.2,0,0.3,0c0,0,0.1,0,0.1,0c0.1,0,0.2,0,0.2,0c0,0,0.1,0,0.1,0
			c0.1,0,0.1,0,0.2,0c0,0,0.1,0,0.1,0c0.1,0,0.1,0,0.2,0c0,0,0.1,0,0.1,0c0.1,0,0.1,0,0.2,0l0,0c0,0,0,0,0,0
			c0.1-0.1,0.3-0.1,0.4-0.2l0,0c0.1-0.3-0.1-0.7-0.1-1c0-0.1,0-0.1,0-0.2c0,0,0,0,0,0c0-0.1,0-0.1,0-0.2c0,0,0,0,0,0
			c0-0.1,0-0.1,0.1-0.2c0,0,0,0,0,0c0-0.1,0.1-0.1,0.2-0.1c-0.2-0.3,3.5-1.1,2.9,1c-0.3,0-0.5,0.1-0.8,0.1c-0.1,0-0.1,0-0.2,0
			c-0.2,0-0.5,0.1-0.7,0.2c0,0,0,0,0,0c-0.2,0.1-0.5,0.1-0.7,0.2c0,0,0,0-0.1,0c-0.2,0.1-0.4,0.2-0.7,0.2c0,0,0,0.1,0,0.1
			c0,0,0,0,0,0c0,0-0.1,0.1-0.1,0.1c-0.1,0-0.2,0-0.3-0.1c0,0,0,0,0,0C35.2,32.6,34.8,32.9,34.3,33.2C34.3,33.2,34.3,33.2,34.3,33.2
			z M41.1,38c-0.8-2.6-4.6,0.6-5.3-2.1c0.7-0.3,1.4,0.4,1.4-0.4c0.6-0.1,0.7,0.7,0.9,1.1c1.1,0,0.9-2.7,1.8-0.6c1-0.6,0.4-2,2.3-2.2
			c0.3,1.2,0.8,1.8,2,1.3C43.6,36.2,42.5,37.2,41.1,38z"/>
		<path fill="#CB6231" d="M26,31.3c-2.3-1.1-3.6,0.5-5.9,1.9C21.9,33,24.1,32.3,26,31.3z"/>
		
			<radialGradient id="mars_svgid_2_" cx="191.9732" cy="-352.8046" r="47.6044" gradientTransform="matrix(0.8398 -0.2708 0.2808 0.7925 -36.6893 368.0535)" gradientUnits="userSpaceOnUse">
			<stop  offset="0.3846" style="stop-color:#CB6231"/>
			<stop  offset="1" style="stop-color:#924724"/>
		</radialGradient>
		<path fill="url(#mars_svgid_2_)" d="M48.8,41.2c1-0.5,1.8-0.5,2.4-0.3c0.8-1.2,0.2-3,1.7-3.9c-0.1-0.1-0.1-0.3-0.2-0.4
			c-0.5-0.2-1.2-0.1-2,0.2C51.8,39,49.8,39.8,48.8,41.2z"/>
		<path fill="#F39E58" d="M54.9,22.4c-0.7-3.8-1.3-6.9-3.5-5.6c-0.3-0.9,1.1-0.9,0.3-2c-1.7-0.1-3.2-1.3-3.7-1.7
			c-2.1,2.4,3.3,1.4,2.6,3c-1.1-0.5-2.2-1-4.1-0.1c0.4,1.1,1.4,1.1,0.2,1.9c-2.2-0.9-3.2-4-4.7-6.2c-2.4,2.2-3.3-2.8-5.6-3
			c-0.5-0.9,1-0.9,0.9-1.6C36.8,7.1,36.4,7,36,7c-4-0.5-8.1-0.1-12.2,1.2c-1.6,0.5-3.1,1.2-4.5,1.9c-2.5,1.3-4.7,2.9-6.6,4.8
			c-0.7,1.1-2.1,1.8-2.2,3.1c-0.1-0.1-0.2-0.2-0.3-0.2c-0.7,1-1.4,2-2,3.1c-0.2,1-0.7,1.9-1.3,2.7c-0.3,0.7-0.5,1.3-0.7,2
			c0.1,0,0.2,0,0.3,0c2.7-0.7,0.2-1.3,2.4-3.2C9.3,25.6,7.8,28,7,30.7c-1.9-0.5,1.6-2.6-0.6-3.2c-0.6,1-1.1,3.3,0.5,4.2
			c0.4,0,0.7,0.2,0.8,0.7c-0.5,0.1-0.7-0.2-1.1-0.1c2,3.1,3,8.8,8.5,8.3c0.9-0.7-1.1-2.7-0.2-3.3c1-0.5,0.9,1.1,1.8,0.8
			c-1-3.5,8.8-7.3,9.7-4.1l4.1-1.3c1.1-1.7-2-0.3-2.4,0.3c-0.3-2.4,3.5-1.9,4.6-2.9c0.1,0.6-0.4,1.1,0.8,0.7c0.7-2.6-2.4,0.5-2.9-1
			c1.4,0.5,0.5-0.3,1.2-0.9c1.9-0.2,3.6-0.1,5.2,0.3c-1.4,0.3-1.5,0.6-0.6,1.2c-0.2-0.3,3.5-1.1,2.9,1c2.8,1,5.9,1.2,9.4,0.8
			c0-0.8,1.1-1.2,1.4-1.9c-1.7,1.5-2.6-2.2-2-2.7c1,0,2.5,2.9,3,1.4c-1-0.7,2.2-2.6,0.3-4.9c-2.2,0,0.7,2.3-0.6,2.6
			c-0.6-1.6-0.9-3-0.5-4.2c3.1-0.4,3,5.3,7.2,3c-0.2-0.7-0.7-1.5-0.2-1.9L56.4,21C54.5,20.8,55.6,21.4,54.9,22.4z M18.4,17
			c-0.2,0.5-0.1,1.1,0.2,1.9c-1.2-0.6-2.2,0.5-3.2,1C15.5,18.5,16.3,17.4,18.4,17z M20,33.2c2.4-1.4,3.6-3,5.9-1.9
			C24.1,32.3,21.9,33,20,33.2z M29.6,28.7c-1.3,0.1-3.4,1.7-4.3,0.9C25.4,28.2,29.5,25.8,29.6,28.7z M31.8,27.5L30.4,28
			c0.5-1.1-0.2-0.5-0.6-1.7l2.3-0.7c0.4,0,0.9-0.3,1.1,0.1C31.9,26.5,31.7,26.8,31.8,27.5z M47,26c0,0.4,0.3,0.3,0.6,0.3l0.3,0.9
			c-1,0.5-1.3-0.5-2.4,0.3c-0.8-1.4-0.4-2.3,0.5-3c1.3-0.4,0.7-1,1.8-0.6C48.3,24.9,48.2,25.7,47,26z M52.1,20.5
			c0,0.7-0.6,0-1.4,0.4c0.9-1.1,0.4-1.4-0.6-0.3l0.3,0.9c-1,0.8-2.5-0.8-1.5-1.4c0-0.4-0.3-0.3-0.6-0.3c0.2-0.5,0.1-1.1-0.2-1.9
			c1.9-1.6,3,1.9,3.4,0.8C53.5,18.5,50.6,20.8,52.1,20.5z"/>
		
			<radialGradient id="mars_svgid_3_" cx="197.1516" cy="-348.5912" r="47.3015" gradientTransform="matrix(0.8398 -0.2708 0.2808 0.7925 -36.6893 368.0535)" gradientUnits="userSpaceOnUse">
			<stop  offset="0.3571" style="stop-color:#F6BE7B"/>
			<stop  offset="1" style="stop-color:#D0864A"/>
		</radialGradient>
		<path fill="url(#mars_svgid_3_)" d="M15.6,13.5c-0.3,1.5-0.4,3.1,1.5,2.9c-3.4,1.1-5.1,2.8-7.3,5.2c-0.3,2,1,4.2,0.9,5.5
			c-0.1,0.7-1.3,0.4-1.4,0.4c-1.1,2,1.8,5,0.3,8.1c1.4-0.9,2-2.2,1.1-4.2c3.7-1.9,9.6-2.4,11.9-6.7c0.3,0.5,0.9,0.2,1.5,0
			c-0.5-0.7-0.3-2.7-1.4-2.4c0.2,0.7,0.6,1.5-0.5,1.6c-0.2-0.6-0.5-0.9-0.9-1.1c2.2-1.3,7.6-3.8,9.1-1.5c-2,0.3-2.8,1.1-2.7,2.3
			c-0.2-1-0.7-1.6-1.5-1.4c0,0.7,1.3,2.1,0.3,2.3c-1.1,0.7-0.4-2.1-1.5-1.4c0.6,3,1.2,1.6,0.2,3.3c2.7,0.3,3.4-2.2,4.7-1
			c-0.8,0.4-3.6,1.6-2.4,1.7c1.7-0.1,3.2-3.2,4.1-1.3c0.1,0,0.3-0.1,0.5-0.1c-0.9-1.7,1.4-2,2.1-1.2c-0.6,0.2-1.1,0.1-1.5,0
			c1,1.2,0.6,1.1,0.3,2.3c2.7-0.6,2.1-1.5,2.1-2.6c1.2,0.9,4.5-0.1,2.1,1.7c2.5-1,1.8,0.2,4.1,0.1c1.2-2.4-2.1-3.3-1.5-5.7
			c-2.3,0.5-3.7-0.7-5.2-1.7c1.6-1.6,4.1,0.2,5.9-1.9c-1.9-4.4-8.4,0.1-11.4-2.1c0.3,0.7,0,1.2-0.5,1.6c-1-0.8-3.1,0.5-3.5-1.3
			c0.6-0.2,0.8,0.4,0.9-0.3C26.5,11,32.9,9,36,7c-4-0.5-8.1-0.1-12.2,1.2c-1.6,0.5-3.1,1.2-4.5,1.9C19.4,11.6,17,12.4,15.6,13.5z"/>
		
			<radialGradient id="mars_svgid_4_" cx="202.0977" cy="-367.0854" r="23.9651" gradientTransform="matrix(0.8398 -0.2708 0.2808 0.7925 -36.6893 368.0535)" gradientUnits="userSpaceOnUse">
			<stop  offset="0.3132" style="stop-color:#F39E58"/>
			<stop  offset="1" style="stop-color:#D0864A"/>
		</radialGradient>
		<path fill="url(#mars_svgid_4_)" d="M9.1,22.3C9.3,25.6,7.8,28,7,30.7c-1.9-0.5,1.6-2.6-0.6-3.2c-0.6,1-1.1,3.3,0.5,4.2
			c0.4,0,0.7,0.2,0.8,0.7c-0.5,0.1-0.7-0.2-1.1-0.1c2,3.1,3,8.8,8.5,8.3c0.9-0.7-1.1-2.7-0.2-3.3c1-0.5,0.9,1.1,1.8,0.8
			c-1-3.5,8.8-7.3,9.7-4.1c0.2-0.1,1.5,0.3,1.6,0.3c0.9-0.3,1.6-0.2,1.6-1.3c0-0.3,0.6-0.2,0.9-0.3c1.1-1.7-2-0.3-2.4,0.3
			c-0.3-2.4,3.5-1.9,4.6-2.9c0.1,0.6-0.4,1.1,0.8,0.7c0.7-2.6-2.4,0.5-2.9-1c1.4,0.5,0.5-0.3,1.2-0.9c1.9-0.2,3.6-0.1,5.2,0.3
			c-1.4,0.3-1.5,0.6-0.6,1.2c-0.2-0.3,3.5-1.1,2.9,1c2.8,1,5.9,1.2,9.4,0.8c0-0.8,1.1-1.2,1.4-1.9c-1.7,1.5-2.6-2.2-2-2.7
			c1,0,2.5,2.9,3,1.4c-1-0.7,2.2-2.6,0.3-4.9c-2.2,0,0.7,2.3-0.6,2.6c-0.6-1.6-0.9-3-0.5-4.2c3.1-0.4,3,5.3,7.2,3
			c-0.2-0.7-0.7-1.5-0.2-1.9c-0.3-0.9-0.6-1.7-0.9-2.6c-2-0.2-0.9,0.4-1.5,1.5c-0.7-3.8-1.3-6.9-3.5-5.6c-0.3-0.9,1.1-0.9,0.3-2
			c-1.7-0.1-3.2-1.3-3.7-1.7c-2.1,2.4,3.3,1.4,2.6,3c-1.1-0.5-2.2-1-4.1-0.1c0.4,1.1,1.4,1.1,0.2,1.9c-2.2-0.9-3.2-4-4.7-6.2
			c-2.4,2.2-3.3-2.8-5.6-3c-0.5-0.9,1-0.9,0.9-1.6C36.8,7.1,36.4,7,36,7c-3.1,2.1-9.5,4-9.9,7.5c-0.1,0.7-0.3,0.1-0.9,0.3
			c0.5,1.8,2.5,0.4,3.5,1.3c0.5-0.4,0.7-0.9,0.5-1.6c3,2.2,9.6-2.3,11.4,2.1c-1.8,2.1-4.4,0.3-5.9,1.9c1.5,1,2.9,2.2,5.2,1.7
			c-0.6,2.5,2.8,3.4,1.5,5.7c-2.3,0.1-1.6-1.1-4.1-0.1c2.4-1.8-0.9-0.9-2.1-1.7c0,1.1,0.5,2.1-2.1,2.6c0.3-1.2,0.7-1.1-0.3-2.3
			c0.4,0.1,0.9,0.2,1.5,0c-0.7-0.8-3-0.5-2.1,1.2c0.4,0,0.9-0.3,1.1,0.1c-1.2,0.8-1.4,1.2-1.4,1.9c-0.5,0.1-0.9,0.3-1.4,0.4
			c0.5-1.1-0.2-0.5-0.6-1.7c0.6-0.2,1.2-0.4,1.8-0.6c-0.9-1.9-2.4,1.3-4.1,1.3c-1.2-0.1,1.6-1.4,2.4-1.7c-1.3-1.2-2,1.4-4.7,1
			c1-1.7,0.4-0.3-0.2-3.3c1.1-0.7,0.4,2.1,1.5,1.4c1-0.2-0.3-1.6-0.3-2.3c0.8-0.2,1.3,0.4,1.5,1.4c0-1.2,0.7-2.1,2.7-2.3
			c-1.5-2.3-6.9,0.2-9.1,1.5c0.4,0.3,0.7,0.5,0.9,1.1c1-0.1,0.7-0.9,0.5-1.6c1-0.3,0.8,1.8,1.4,2.4c-0.6,0.2-1.3,0.5-1.5,0
			c-2.3,4.3-8.2,4.8-11.9,6.7c1,2,0.4,3.3-1.1,4.2c1.5-3-1.4-6.1-0.3-8.1c0-0.1,1.3,0.2,1.4-0.4c0.1-1.3-1.2-3.5-0.9-5.5
			c2.2-2.4,3.9-4.1,7.3-5.2c-2,0.2-1.8-1.4-1.5-2.9c1.3-1.1,3.8-1.9,3.8-3.5c-2.5,1.3-4.7,2.9-6.6,4.8c-0.7,1.1-2.1,1.8-2.2,3.1
			c-0.1-0.1-0.2-0.2-0.3-0.2c-0.7,1-1.4,2-2,3.1c-0.2,1-0.7,1.9-1.3,2.7c-0.3,0.7-0.5,1.3-0.7,2c0.1,0,0.2,0,0.3,0
			C9.4,24.8,6.8,24.3,9.1,22.3z M48.3,19.8c0.2-0.5,0.1-1.1-0.2-1.9c1.9-1.6,3,1.9,3.4,0.8c1.9-0.2-1,2.1,0.6,1.7
			c0,0.7-0.6,0-1.4,0.4c0.9-1.1,0.4-1.4-0.6-0.3c0.1,0.3,0.2,0.6,0.3,0.9c-1,0.8-2.5-0.8-1.5-1.4C48.9,19.7,48.6,19.7,48.3,19.8z
			 M45.9,24.4c1.3-0.4,0.7-1,1.8-0.6c0.5,1.1,0.5,1.9-0.8,2.2c0,0.4,0.3,0.3,0.6,0.3c0.1,0.3,0.2,0.6,0.3,0.9
			c-1,0.5-1.3-0.5-2.4,0.3C44.7,26,45.1,25.1,45.9,24.4z M29.6,28.7c-1.3,0.1-3.4,1.7-4.3,0.9C25.4,28.2,29.5,25.8,29.6,28.7z
			 M26,31.3c-1.9,1-4.1,1.7-5.9,1.9C22.4,31.8,23.7,30.2,26,31.3z"/>
		<rect x="36.2" y="32.1" fill="#CB6231" width="0" height="0"/>
		
			<radialGradient id="mars_svgid_5_" cx="201.8247" cy="-351.6811" r="22.9691" gradientTransform="matrix(0.8398 -0.2708 0.2808 0.7925 -36.6893 368.0535)" gradientUnits="userSpaceOnUse">
			<stop  offset="0.3846" style="stop-color:#CB6231"/>
			<stop  offset="1" style="stop-color:#924724"/>
		</radialGradient>
		<path fill="url(#mars_svgid_5_)" d="M57.5,25.5c-4.1,2.4-4.1-3.3-7.2-3c-0.4,1.1-0.1,2.6,0.5,4.2c1.3-0.3-1.6-2.6,0.6-2.6
			c1.9,2.3-1.3,4.2-0.3,4.9c-0.6,1.5-2-1.4-3-1.4c-0.6,0.5,0.3,4.3,2,2.7c-0.2,0.7-1.3,1.1-1.4,1.9c-3.5,0.4-6.7,0.2-9.4-0.8
			c-0.3,0-0.5,0.1-0.8,0.1c-0.1,0-0.1,0-0.2,0c-0.2,0-0.5,0.1-0.7,0.2c0,0,0,0,0,0c-0.2,0.1-0.5,0.1-0.7,0.2c0,0,0,0-0.1,0
			c-0.2,0.1-0.4,0.2-0.7,0.2l0,0c0,0,0,0.1,0,0.1c0,0,0,0,0,0c0,0-0.1,0.1-0.1,0.1c-0.1,0-0.2,0-0.3-0.1c0,0,0,0,0,0
			c-0.5,0.3-1,0.5-1.4,0.9c0,0,0,0,0,0c-0.1,0.1-0.2,0.2-0.4,0.3c0,0-0.1,0.1-0.1,0.1c-0.1,0.1-0.2,0.2-0.3,0.3c0,0-0.1,0.1-0.1,0.1
			c-0.1,0.1-0.2,0.2-0.2,0.3c0,0-0.1,0.1-0.1,0.1c-0.1,0.1-0.2,0.2-0.2,0.3c0,0-0.1,0.1-0.1,0.1c-0.1,0.2-0.2,0.3-0.3,0.5
			c-0.2-1.7-2.2-0.1-2.9-1c-0.2-0.6-0.1-1,0-1.4c-0.9,0.3-2.7,0.1-2.7,0.9c0,0.7,2.1,0.5,0.9,1.1c-1.3-0.6-1.3,1.2-2.4,1.7
			c-1.1-0.3-2-0.9-3-1.4c1.4-0.1,2.9-0.2,4.1-1.3c-1-3.2-10.7,0.6-9.7,4.1c-0.9,0.2-0.8-1.3-1.8-0.8c-1,0.6,1,2.6,0.2,3.3
			c-5.5,0.5-6.5-5.2-8.5-8.3c0.4,0,0.6,0.3,1.1,0.1c-0.1-0.5-0.4-0.7-0.8-0.7c-0.6,0.2-0.9,0.5-1.2,0.9c1.5,1.6,2.5,5.3,2.4,6.9
			c2.9,1.4,5.1,4.2,9,3.8c-0.6-2.4-0.8-5.3,1.5-7.2c-0.5,2.3,1.4,3.3,3.2,3.3c0.2,0.7-1,0.7-0.5,1.6c1.3-0.9,1.5-0.8,1.2,0.6
			c1.4-3.5,8.7-2.4,5.5,1.1c2.5,1.9,3.4-3.8,5.9-1.9c0.3,1.2-2.5,1-1.7,2.5c1.5,0.9,3.2-1.1,3.3-2c0.5,1,1.9,0.3,2.1,1.7
			c2.7-0.7,4.9-2,6.7,0.2c4.4-1.7,4.2-5.5,5.6-8.5c-1.8,0.4-2.9,0.5-5,0.2c1-0.5,1.8-0.5,2.4-0.3c-0.3-1.7-2.4,0.2-2.9-1
			c5.9-0.4,7.5-1.4,10-3.2c-0.2-0.5-0.4-1.2-0.9-1.1c-0.9,2-1.5-2-0.9-2.6c1.8-0.3,4.1,0.1,5.9-0.5c-0.2-0.4-0.3-0.9-0.5-1.3
			c-0.6,0.1-0.7-0.5-0.9-1.1C56.8,23.9,57.3,24.8,57.5,25.5z M41.8,32.9c-0.2,0.8-1.3,1.1-2,1.6c-0.8-0.5-1.1-1.8-2.4-1.1
			C38.6,32.2,40.2,33.9,41.8,32.9z M41.1,38c-0.8-2.6-4.6,0.6-5.3-2.1c0.7-0.3,1.4,0.4,1.4-0.4c0.6-0.1,0.7,0.7,0.9,1.1
			c1.1,0,0.9-2.7,1.8-0.6c1-0.6,0.4-2,2.3-2.2c0.3,1.2,0.8,1.8,2,1.3C43.6,36.2,42.5,37.2,41.1,38z"/>
		<path fill="#CB6231" d="M30.9,32.8c0.1,0,0.1,0,0.2,0c0,0,0.1,0,0.1,0c0.1,0,0.1,0,0.2,0c0,0,0.1,0,0.1,0c0.1,0,0.1,0,0.2,0
			c0,0,0.1,0,0.1,0c0.1,0,0.1,0,0.2,0c0,0,0.1,0,0.1,0c0.1,0,0.1,0,0.2,0c0,0,0.1,0,0.1,0c0.1,0,0.2,0,0.2,0c0,0,0.1,0,0.1,0
			c0.4-0.1,0.8-0.2,1.2-0.3c0,0,0.1,0,0.1,0c0.1,0,0.2,0,0.3,0c0,0,0.1,0,0.1,0c0.1,0,0.2,0,0.2,0c0,0,0.1,0,0.1,0
			c0.1,0,0.1,0,0.2,0c0,0,0.1,0,0.1,0c0.1,0,0.1,0,0.2,0c0,0,0.1,0,0.1,0c0.1,0,0.1,0,0.2,0l0,0c0,0,0,0,0,0
			c0.1-0.1,0.3-0.1,0.4-0.2l0,0c0.1-0.3-0.1-0.7-0.1-1c0-0.1,0-0.1,0-0.2c0,0,0,0,0,0c0-0.1,0-0.1,0-0.2c0,0,0,0,0,0
			c0-0.1,0-0.1,0.1-0.2c0,0,0,0,0,0c0-0.1,0.1-0.1,0.2-0.1c-0.9-0.5-0.8-0.8,0.6-1.2c-1.6-0.4-3.3-0.4-5.2-0.3
			c-0.7,0.6,0.1,1.4-1.2,0.9c0.5,1.5,3.6-1.6,2.9,1c-1.2,0.4-0.7-0.1-0.8-0.7c-1,1-4.8,0.5-4.6,2.9c0.5-0.6,3.6-2,2.4-0.3
			C30.6,32.7,30.7,32.8,30.9,32.8C30.8,32.8,30.9,32.8,30.9,32.8z"/>
		<rect x="35.7" y="32.3" fill="#CB6231" width="0" height="0"/>
		<path fill="#CB6231" d="M36.2,32.1c0,0,0,0.1,0,0.1C36.1,32.2,36.2,32.2,36.2,32.1z"/>
		<path fill="#CB6231" d="M36.1,32.3c0,0-0.1,0.1-0.1,0.1C36.1,32.3,36.1,32.3,36.1,32.3z"/>
		<path fill="#CB6231" d="M35.7,32.3c0.1,0,0.2,0,0.3,0.1C35.9,32.4,35.8,32.3,35.7,32.3L35.7,32.3z"/>
		<path fill="#CB6231" d="M36.2,32.1c-0.1,0.1-0.3,0.1-0.4,0.2C35.9,32.3,36,32.2,36.2,32.1L36.2,32.1z"/>
		<path fill="#CB6231" d="M6,26.7C6,26.7,6,26.7,6,26.7C6,26.7,6.1,26.7,6,26.7C6.1,26.7,6,26.7,6,26.7z"/>
		<path fill="#CB6231" d="M7,30.7c0.9-2.7,2.4-5.1,2.1-8.4c-2.3,1.9,0.3,2.5-2.4,3.2c0.1,0.5-0.3,0.8-0.6,1.1c0,0,0,0,0,0.1
			c0.1,0.3,0.2,0.6,0.3,0.8C8.6,28.2,5.1,30.2,7,30.7z"/>
		<path fill="#CB6231" d="M8.3,20.9c-0.5,0.9-0.9,1.8-1.3,2.7C7.7,22.7,8.1,21.9,8.3,20.9z"/>
		<path fill="#CB6231" d="M10.6,18c0.1-1.3,1.5-2.1,2.2-3.1c-0.9,0.9-1.8,1.9-2.5,2.9C10.4,17.8,10.5,17.9,10.6,18z"/>
		
			<radialGradient id="mars_svgid_6_" cx="190.4474" cy="-342.4334" r="74.7373" gradientTransform="matrix(0.8398 -0.2708 0.2808 0.7925 -36.6893 368.0535)" gradientUnits="userSpaceOnUse">
			<stop  offset="0" style="stop-color:#F39E58"/>
			<stop  offset="0.6538" style="stop-color:#D0864A"/>
			<stop  offset="0.9725" style="stop-color:#A16A3A"/>
		</radialGradient>
		<path fill="url(#mars_svgid_6_)" d="M54.7,17.6c-3-4.1-7.3-7.2-12.1-9c-1.5-0.6-3-1-4.6-1.3c-0.1,0-0.2,0-0.3,0c0,0,0,0,0-0.1
			c-0.2,0-0.4-0.1-0.6-0.1c0.1,0.7-1.4,0.7-0.9,1.6c2.3,0.1,3.3,5.2,5.6,3c1.5,2.2,2.6,5.2,4.7,6.2c1.2-0.8,0.3-0.8-0.2-1.9
			c1.9-0.9,3-0.4,4.1,0.1c0.7-1.6-4.7-0.6-2.6-3c0.4,0.4,2,1.6,3.7,1.7c0.8,1.1-0.6,1.2-0.3,2c2.2-1.3,2.8,1.7,3.5,5.6
			c0.7-1.1-0.4-1.6,1.5-1.5l-0.6-1.7C55.5,18.7,55.1,18.1,54.7,17.6z"/>
		
			<radialGradient id="mars_svgid_7_" cx="190.8522" cy="-352.5811" r="41.5763" gradientTransform="matrix(0.8398 -0.2708 0.2808 0.7925 -36.6893 368.0535)" gradientUnits="userSpaceOnUse">
			<stop  offset="0.3571" style="stop-color:#F6BE7B"/>
			<stop  offset="1" style="stop-color:#D0864A"/>
		</radialGradient>
		<path fill="url(#mars_svgid_7_)" d="M50.2,20.6c1-1.1,1.5-0.8,0.6,0.3c0.7-0.4,1.4,0.3,1.4-0.4c-1.6,0.4,1.3-1.9-0.6-1.7
			c-0.3,1.1-1.5-2.4-3.4-0.8c0.3,0.7,0.4,1.4,0.2,1.9c0.3-0.1,0.6-0.1,0.6,0.3C49.4,20.1,49.9,20.2,50.2,20.6z"/>
		<path fill="#964729" d="M44.6,33.5c0.5,1.2,2.6-0.7,2.9,1c-0.7-0.2-1.4-0.2-2.4,0.3c2.1,0.4,3.2,0.2,5-0.2
			c-1.4,3.1-1.2,6.9-5.6,8.5c-1.8-2.2-4-0.9-6.7-0.2c-0.3-1.4-1.6-0.7-2.1-1.7c-0.1,0.9-1.9,2.9-3.3,2c-0.8-1.5,2-1.2,1.7-2.5
			c-2.5-1.9-3.4,3.8-5.9,1.9c3.2-3.5-4.1-4.6-5.5-1.1c0.3-1.4,0-1.5-1.2-0.6c-0.6-0.9,0.7-0.9,0.5-1.6c-1.8,0.1-3.7-0.9-3.2-3.3
			c-2.3,2-2.1,4.8-1.5,7.2c-3.9,0.4-6.1-2.4-9-3.8C7,39,7.7,38.3,6.7,37c-0.2,0-0.3,0.1-0.5,0.1c1.3,5.5,5.7,5,8.1,8.4
			c-0.3-1.1,1.5-0.6,1.5,0c-0.5,0.3-0.5,0.7-0.6,1.2c6.3,3.1,12.4,1.6,20.1-2.2c0.4,1.2,1.7,0.6,2.1,1.7c1.6-0.1,1.2-1.1,2-1.6
			c5.4,3.5,9.2-4.3,13.4-2.4c0-1.8,1.7-2.8,0.2-5.3c-1.5,0.9-0.9,2.7-1.7,3.9c-0.7-0.2-1.4-0.2-2.4,0.3c0.9-1.4,3-2.2,2-4.5
			c0.8-0.3,1.5-0.4,2-0.2c-0.7-1.8-2.3-1.6-1.2-3.4c2.3-0.4,2.5-1.7,3-2.9C52,32.1,50.5,33.1,44.6,33.5z"/>
		<path fill="#CB6231" d="M29.8,26.2c0.4,1.2,1.1,0.6,0.6,1.7c0.5-0.1,0.9-0.3,1.4-0.4c-0.1-0.7,0.1-1.1,1.4-1.9
			c-0.2-0.4-0.7-0.2-1.1-0.1c-0.2,0-0.3,0.1-0.5,0.1C31,25.8,30.4,26,29.8,26.2z"/>
		<path fill="#CB6231" d="M49,20c-1,0.6,0.5,2.3,1.5,1.4c-0.1-0.3-0.2-0.6-0.3-0.9C49.9,20.2,49.4,20.1,49,20z"/>
		<path fill="#CB6231" d="M47.9,27.1c-0.1-0.3-0.2-0.6-0.3-0.9C47.3,26.3,47,26.4,47,26c-0.3,0.3-0.6,0.7-1.2,0.9
			c-0.9-1.2,0.2-1.6,0.2-2.4c-0.9,0.7-1.2,1.6-0.5,3C46.6,26.6,46.9,27.6,47.9,27.1z"/>
		<path fill="#964729" d="M32.5,35.4c0.1-0.2,0.2-0.3,0.3-0.5c0,0,0.1-0.1,0.1-0.1c0.1-0.1,0.2-0.2,0.2-0.3c0,0,0.1-0.1,0.1-0.1
			c0.1-0.1,0.2-0.2,0.2-0.3c0,0,0.1-0.1,0.1-0.1c0.1-0.1,0.2-0.2,0.3-0.3c0,0,0.1-0.1,0.1-0.1c0.1-0.1,0.2-0.2,0.4-0.3c0,0,0,0,0,0
			c0.4-0.3,0.9-0.6,1.4-0.9c0,0,0,0,0,0c0,0,0,0,0,0c-0.1,0-0.1,0-0.2,0c0,0-0.1,0-0.1,0c-0.1,0-0.1,0-0.2,0c0,0-0.1,0-0.1,0
			c-0.1,0-0.1,0-0.2,0c0,0-0.1,0-0.1,0c-0.1,0-0.2,0-0.2,0c0,0-0.1,0-0.1,0c-0.1,0-0.2,0-0.3,0c0,0-0.1,0-0.1,0
			c-0.4,0.1-0.8,0.2-1.2,0.3c0,0-0.1,0-0.1,0c-0.1,0-0.2,0-0.2,0c0,0-0.1,0-0.1,0c-0.1,0-0.1,0-0.2,0c0,0-0.1,0-0.1,0
			c-0.1,0-0.1,0-0.2,0c0,0-0.1,0-0.1,0c-0.1,0-0.1,0-0.2,0c0,0-0.1,0-0.1,0c-0.1,0-0.1,0-0.2,0c0,0-0.1,0-0.1,0c-0.1,0-0.1,0-0.2,0
			c0,0-0.1,0-0.1,0c-0.1,0-0.2-0.1-0.3-0.1c-0.3,0.1-0.6,0.2-0.9,0.3c-0.1,0.4-0.2,0.9,0,1.4C30.3,35.3,32.3,33.7,32.5,35.4z"/>
		<path fill="#964729" d="M36.1,30.5c0,0-0.1,0.1-0.1,0.2c0,0,0,0,0,0c0,0.1,0,0.1,0,0.2c0,0,0,0,0,0c0,0.1,0,0.1,0,0.2
			c0.1,0.3,0.2,0.7,0.1,1l0,0c0.2-0.1,0.4-0.2,0.7-0.2c0,0,0,0,0.1,0c0.2-0.1,0.5-0.1,0.7-0.2c0,0,0,0,0,0c0.2-0.1,0.5-0.1,0.7-0.2
			c0.1,0,0.1,0,0.2,0c0.2,0,0.5-0.1,0.8-0.1c0.6-2.1-3.1-1.3-2.9-1C36.2,30.4,36.2,30.4,36.1,30.5C36.1,30.5,36.1,30.5,36.1,30.5z"
			/>
		<path fill="#964729" d="M33.9,33.6c-0.1,0.1-0.2,0.2-0.3,0.3C33.7,33.8,33.8,33.7,33.9,33.6z"/>
		<path fill="#964729" d="M32.8,34.9c-0.1,0.2-0.2,0.3-0.3,0.5C32.6,35.3,32.7,35.1,32.8,34.9z"/>
		<path fill="#964729" d="M33.5,34c-0.1,0.1-0.2,0.2-0.2,0.3C33.3,34.2,33.4,34.1,33.5,34z"/>
		<path fill="#964729" d="M36.1,32.3C36.1,32.3,36.1,32.3,36.1,32.3C36.1,32.3,36.1,32.3,36.1,32.3z"/>
		<path fill="#964729" d="M33.1,34.5c-0.1,0.1-0.2,0.2-0.2,0.3C33,34.7,33.1,34.6,33.1,34.5z"/>
		<path fill="#964729" d="M34.3,33.2c-0.1,0.1-0.2,0.2-0.4,0.3C34.1,33.5,34.2,33.3,34.3,33.2z"/>
		<path fill="#964729" d="M36.2,32.1c0.2-0.1,0.4-0.2,0.7-0.2C36.6,32,36.4,32,36.2,32.1L36.2,32.1z"/>
		<path fill="#964729" d="M38.3,31.5c-0.2,0-0.5,0.1-0.7,0.2C37.8,31.6,38.1,31.5,38.3,31.5z"/>
		<path fill="#964729" d="M36.9,31.9c0.2-0.1,0.5-0.1,0.7-0.2C37.4,31.7,37.1,31.8,36.9,31.9z"/>
		<path fill="#964729" d="M39.2,31.3c-0.3,0-0.5,0.1-0.8,0.1C38.7,31.4,39,31.4,39.2,31.3z"/>
		<polygon fill="#964729" points="36.2,32.1 36.2,32.1 36.2,32.1 		"/>
		<path fill="#964729" d="M35.7,32.3c-0.5,0.3-1,0.5-1.4,0.9C34.8,32.9,35.2,32.6,35.7,32.3z"/>
		<path fill="#964729" d="M36,30.7C36,30.7,36,30.7,36,30.7C36,30.7,36,30.7,36,30.7z"/>
		<path fill="#964729" d="M31.9,32.9c0,0-0.1,0-0.1,0C31.8,32.9,31.8,32.9,31.9,32.9z"/>
		<path fill="#964729" d="M34.1,32.5C34.1,32.5,34.1,32.5,34.1,32.5C34.1,32.5,34.1,32.5,34.1,32.5z"/>
		<path fill="#964729" d="M36.1,30.5C36.1,30.5,36.1,30.5,36.1,30.5C36.1,30.5,36.1,30.5,36.1,30.5z"/>
		<path fill="#964729" d="M32.9,32.7c0,0-0.1,0-0.1,0C32.8,32.8,32.9,32.7,32.9,32.7z"/>
		<path fill="#964729" d="M32.6,32.8c0,0-0.1,0-0.1,0C32.5,32.8,32.5,32.8,32.6,32.8z"/>
		<polygon fill="#964729" points="35.7,32.3 35.7,32.3 35.7,32.3 		"/>
		<path fill="#964729" d="M31.5,32.9c0,0-0.1,0-0.1,0C31.4,32.9,31.5,32.9,31.5,32.9z"/>
		<polygon fill="#964729" points="35.7,32.3 35.7,32.3 35.7,32.3 		"/>
		<path fill="#964729" d="M31.2,32.9c0,0-0.1,0-0.1,0C31.1,32.9,31.2,32.9,31.2,32.9z"/>
		<path fill="#964729" d="M36,30.9C36,30.9,36,30.9,36,30.9C36,30.9,36,30.9,36,30.9z"/>
		<path fill="#964729" d="M32.2,32.9c0,0-0.1,0-0.1,0C32.1,32.9,32.2,32.9,32.2,32.9z"/>
		<path fill="#964729" d="M35.5,32.3c0,0-0.1,0-0.1,0C35.5,32.3,35.5,32.3,35.5,32.3z"/>
		<path fill="#964729" d="M35.2,32.3c0,0-0.1,0-0.1,0C35.1,32.3,35.2,32.3,35.2,32.3z"/>
		<path fill="#964729" d="M30.9,32.8C30.9,32.8,30.8,32.8,30.9,32.8C30.8,32.8,30.9,32.8,30.9,32.8z"/>
		<path fill="#964729" d="M36.2,32.1c0.1-0.3-0.1-0.7-0.1-1C36.1,31.4,36.2,31.8,36.2,32.1z"/>
		<path fill="#964729" d="M34.9,32.3c0,0-0.1,0-0.1,0C34.8,32.4,34.8,32.4,34.9,32.3z"/>
		<path fill="#964729" d="M34.5,32.4c0,0-0.1,0-0.1,0C34.4,32.4,34.5,32.4,34.5,32.4z"/>
		<path fill="#964729" d="M35.7,32.3C35.7,32.3,35.7,32.3,35.7,32.3c0.1,0,0.2,0,0.3,0.1c0,0,0.1-0.1,0.1-0.1c0,0,0,0,0,0
			c0,0,0-0.1,0-0.1l0,0C36,32.2,35.9,32.3,35.7,32.3z"/>
		<path fill="#964729" d="M45.8,26.8c0.6-0.2,0.9-0.5,1.2-0.9c1.2-0.3,1.3-1.1,0.8-2.2c-1.2-0.4-0.6,0.2-1.8,0.6
			C46,25.3,44.9,25.6,45.8,26.8z"/>
		<path fill="#964729" d="M53.7,29.1c-0.1-0.5,0.8-0.6,0.6-1.2c1.4,0-0.3,1.8,1.2,2c1.1-0.4,1.1-1.3,2.3-0.7
			c-0.3-1.4-1.9-0.2-2.4-1.1c0.6-1.5,3.9-0.3,3.3-2c-1.9,0.6-4.2,0.2-5.9,0.5C52.2,27.1,52.8,31.1,53.7,29.1z"/>
		<path fill="#964729" d="M39.8,34.5c0.7-0.5,1.8-0.8,2-1.6c-1.6,1-3.2-0.7-4.4,0.5C38.8,32.7,39.1,34,39.8,34.5z"/>
		<path fill="#964729" d="M25.4,36.8c1.2-0.5,1.1-2.4,2.4-1.7c1.2-0.7-0.9-0.4-0.9-1.1c-0.2,0-0.3,0.1-0.5,0.2
			c-1.4,0.4-2.7,0.9-4.1,1.3C23.3,35.8,24.3,36.4,25.4,36.8z"/>
		<path fill="#964729" d="M42.1,33.8c-1.9,0.2-1.3,1.6-2.3,2.2c-1-2.1-0.7,0.6-1.8,0.6c-0.3-0.5-0.4-1.2-0.9-1.1
			c0.1,0.8-0.6,0.1-1.4,0.4c0.7,2.7,4.5-0.4,5.3,2.1c1.5-0.7,2.5-1.7,3-2.9C42.9,35.6,42.4,34.9,42.1,33.8z"/>
	</g>
</g>
</svg>
