<?xml version="1.0" encoding="utf-8"?>
<!-- Generator: Adobe Illustrator 17.1.0, SVG Export Plug-In . SVG Version: 6.00 Build 0)  -->
<!DOCTYPE svg PUBLIC "-//W3C//DTD SVG 1.1//EN" "http://www.w3.org/Graphics/SVG/1.1/DTD/svg11.dtd">
<svg version="1.1" id="Layer_1" xmlns="http://www.w3.org/2000/svg" xmlns:xlink="http://www.w3.org/1999/xlink" x="0px" y="0px"
	 viewBox="0 0 50 50" enable-background="new 0 0 50 50" xml:space="preserve">
<g>
	
		<radialGradient id="venus_svgid_1_" cx="-893.6166" cy="-981.1959" r="152.6988" gradientTransform="matrix(0.1948 -3.450000e-02 3.660000e-02 0.1883 228.8028 179.0623)" gradientUnits="userSpaceOnUse">
		<stop  offset="0" style="stop-color:#FAAF56"/>
		<stop  offset="0.4066" style="stop-color:#F16943"/>
		<stop  offset="0.4532" style="stop-color:#E96641"/>
		<stop  offset="0.5251" style="stop-color:#D45C3B"/>
		<stop  offset="0.6131" style="stop-color:#B04D31"/>
		<stop  offset="0.7132" style="stop-color:#803724"/>
		<stop  offset="0.8132" style="stop-color:#481F14"/>
	</radialGradient>
	<path fill="url(#venus_svgid_1_)" d="M46,21.3c2.2,11.2-5.5,22-17.1,24C17.3,47.4,6.2,39.9,4,28.7C1.8,17.5,9.4,6.7,21,4.7
		C32.7,2.6,43.8,10.1,46,21.3z"/>
	<ellipse transform="matrix(0.9877 -0.1566 0.1566 0.9877 -1.2745 5.2972)" fill="#FFFFFF" cx="33" cy="10.7" rx="0.1" ry="0.1"/>
	<path fill="#F47F43" d="M10,17.3c0,0.2-0.1,0.4-0.4,0.4c-0.2,0-0.5-0.1-0.5-0.3c0-0.2,0.1-0.4,0.4-0.4C9.8,17,10,17.1,10,17.3z"/>
	<path fill="#F47F43" d="M16.3,19.7c0,0.2-0.1,0.4-0.4,0.4c-0.3,0-0.5-0.1-0.5-0.3c0-0.2,0.1-0.4,0.4-0.4
		C16,19.4,16.3,19.5,16.3,19.7z"/>
	<path fill="#F47F43" d="M27.2,16c0,0.1-0.1,0.2-0.2,0.2c-0.1,0-0.2,0-0.3-0.1c0-0.1,0.1-0.2,0.2-0.2C27,15.9,27.1,15.9,27.2,16z"/>
	<path fill="#F47F43" d="M29.5,15.1c0,0.1-0.1,0.3-0.3,0.3c-0.2,0-0.3,0-0.4-0.2c0-0.1,0.1-0.3,0.3-0.3C29.3,14.9,29.5,15,29.5,15.1
		z"/>
	<path fill="#F47F43" d="M14.4,16.1c0,0.1-0.1,0.3-0.3,0.3c-0.2,0-0.4-0.1-0.4-0.2c0-0.1,0.1-0.3,0.3-0.3
		C14.2,15.9,14.4,15.9,14.4,16.1z"/>
	<path fill="#F47F43" d="M33.9,13.6c0,0.1,0,0.1-0.1,0.1c-0.1,0-0.1,0-0.1-0.1c0-0.1,0-0.1,0.1-0.1C33.8,13.6,33.9,13.6,33.9,13.6z"
		/>
	<path fill="#F47F43" d="M28.7,12c0,0.1-0.1,0.2-0.2,0.2c-0.1,0-0.2,0-0.3-0.1c0-0.1,0.1-0.2,0.2-0.2C28.6,11.9,28.7,11.9,28.7,12z"
		/>
	<path fill="#F47F43" d="M17.6,10.6c0,0.1-0.1,0.2-0.2,0.2c-0.1,0-0.2,0-0.3-0.1c0-0.1,0.1-0.2,0.2-0.2
		C17.5,10.5,17.6,10.5,17.6,10.6z"/>
	<path fill="#F47F43" d="M20.3,9.2c0,0.1-0.2,0.3-0.4,0.3c-0.2,0-0.5,0-0.5-0.1c0-0.1,0.1-0.3,0.4-0.3C20.1,9,20.3,9,20.3,9.2z"/>
	<path fill="#F47F43" d="M14.2,10.2c0.1,0.1,0.1,0.3-0.1,0.4c-0.2,0.1-0.5,0.2-0.6,0.1c-0.1-0.1-0.1-0.3,0.1-0.4
		C13.8,10.1,14.1,10.1,14.2,10.2z"/>
	<path fill="#F47F43" d="M21.5,8.2c0,0.1-0.1,0.3-0.3,0.3c-0.2,0-0.4-0.1-0.4-0.2c0-0.1,0.1-0.3,0.3-0.3C21.3,7.9,21.5,8,21.5,8.2z"
		/>
	<ellipse transform="matrix(0.9863 -0.1648 0.1648 0.9863 -0.6595 4.356)" fill="#F47F43" cx="25.9" cy="6.2" rx="0.1" ry="0"/>
	<path fill="#F47F43" d="M22.4,11.7c0,0.2-0.1,0.3-0.4,0.4c-0.2,0-0.5,0-0.5-0.2c0-0.2,0.1-0.3,0.4-0.4
		C22.1,11.4,22.3,11.5,22.4,11.7z"/>
	<path fill="#F47F43" d="M16.1,7.9c0.1,0.1,0,0.2-0.2,0.3c-0.2,0.1-0.4,0.1-0.5,0.1c-0.1-0.1,0-0.2,0.2-0.3
		C15.8,7.8,16,7.8,16.1,7.9z"/>
	<path fill="#F47F43" d="M13.4,18.5c0,0.1-0.1,0.2-0.2,0.3c-0.1,0-0.3-0.1-0.3-0.2c0-0.1,0.1-0.2,0.2-0.3
		C13.3,18.4,13.4,18.4,13.4,18.5z"/>
	<path fill="#F47F43" d="M16.1,12.3c0,0.1-0.1,0.3-0.3,0.3c-0.2,0-0.4-0.1-0.4-0.2c0-0.1,0.1-0.3,0.3-0.3
		C15.9,12.1,16.1,12.2,16.1,12.3z"/>
	<path fill="#F8ED49" d="M26.9,13.7c0,0.1-0.1,0.3-0.3,0.3c-0.2,0-0.4-0.1-0.4-0.2c0-0.1,0.1-0.3,0.3-0.3
		C26.7,13.5,26.8,13.6,26.9,13.7z"/>
	<path fill="#F8ED49" d="M31.9,15.6C31.9,15.7,31.8,15.7,31.9,15.6c-0.1,0.1-0.2,0.1-0.2,0c0,0,0-0.1,0.1-0.1
		C31.8,15.6,31.9,15.6,31.9,15.6z"/>
	<ellipse transform="matrix(0.9854 -0.1705 0.1705 0.9854 -1.4281 5.3345)" fill="#F8ED49" cx="30.3" cy="11" rx="0.2" ry="0.1"/>
	<path fill="#F8ED49" d="M24.8,10.9c0,0.1,0,0.1-0.1,0.1c-0.1,0-0.1,0-0.1-0.1c0,0,0-0.1,0.1-0.1C24.7,10.8,24.8,10.8,24.8,10.9z"/>
	<path fill="#F8ED49" d="M18.6,18.9c0,0.1-0.1,0.2-0.2,0.3c-0.2,0-0.3,0-0.3-0.2c0-0.1,0.1-0.2,0.2-0.3
		C18.5,18.8,18.6,18.8,18.6,18.9z"/>
	<path fill="#F47F43" d="M18.2,12.7c0,0.1-0.1,0.3-0.3,0.3c-0.2,0-0.3,0-0.4-0.2c0-0.1,0.1-0.3,0.3-0.3
		C18.1,12.5,18.2,12.6,18.2,12.7z"/>
	<path fill="#F8ED49" d="M12.2,14.7c0,0.1-0.1,0.2-0.2,0.2c-0.1,0-0.2,0-0.2-0.1c0-0.1,0.1-0.2,0.2-0.2
		C12.1,14.6,12.2,14.6,12.2,14.7z"/>
	<path fill="#F8ED49" d="M11.7,16.5c0,0.1-0.1,0.2-0.2,0.2c-0.1,0-0.3,0-0.3-0.1c0-0.1,0.1-0.2,0.2-0.2
		C11.5,16.3,11.7,16.4,11.7,16.5z"/>
	<ellipse transform="matrix(0.9851 -0.1719 0.1719 0.9851 -2.1819 2.6739)" fill="#F8ED49" cx="14.4" cy="13.9" rx="0.2" ry="0.1"/>
	<path fill="#F8ED49" d="M25.3,12.3c0,0.1-0.1,0.2-0.3,0.2c-0.2,0-0.3,0-0.3-0.1c0-0.1,0.1-0.2,0.2-0.2
		C25.1,12.2,25.3,12.2,25.3,12.3z"/>
	<path fill="#F8ED49" d="M27.4,11.6c0,0.1,0,0.1-0.1,0.1c-0.1,0-0.1,0-0.1-0.1c0-0.1,0-0.1,0.1-0.1C27.3,11.5,27.4,11.5,27.4,11.6z"
		/>
	<path fill="#F47F43" d="M14.4,23.2c0,0.2-0.2,0.4-0.4,0.5c-0.3,0-0.6-0.1-0.6-0.3c0-0.2,0.2-0.4,0.4-0.5C14,22.8,14.3,23,14.4,23.2
		z"/>
	<path fill="#F47F43" d="M7,26.6c0,0.3,0,0.5-0.2,0.5c-0.2,0-0.3-0.2-0.4-0.4c0-0.2,0-0.5,0.2-0.5C6.8,26.2,7,26.4,7,26.6z"/>
	<path fill="#F47F43" d="M14,31.2c0,0.2-0.1,0.4-0.3,0.4c-0.2,0-0.4-0.1-0.5-0.3c0-0.2,0.1-0.4,0.3-0.4C13.8,30.8,14,31,14,31.2z"/>
	<path fill="#F47F43" d="M21.9,22.3c0,0.2-0.1,0.3-0.2,0.3c-0.2,0-0.3-0.1-0.3-0.2c0-0.2,0.1-0.3,0.2-0.3
		C21.8,22.1,21.9,22.2,21.9,22.3z"/>
	<path fill="#F47F43" d="M37.4,24.4c0,0.2-0.1,0.4-0.2,0.5c-0.2,0-0.4-0.1-0.4-0.3c0-0.2,0.1-0.4,0.3-0.5
		C37.2,24.1,37.3,24.2,37.4,24.4z"/>
	<path fill="#F47F43" d="M35,27.3c0,0.2-0.1,0.4-0.3,0.4c-0.2,0-0.4-0.1-0.4-0.3c0-0.2,0.1-0.4,0.3-0.4C34.8,27,35,27.1,35,27.3z"/>
	<path fill="#F47F43" d="M31.2,23.8c0,0.1-0.1,0.3-0.2,0.3c-0.2,0-0.3-0.1-0.3-0.2c0-0.1,0.1-0.3,0.2-0.3
		C31,23.6,31.2,23.7,31.2,23.8z"/>
	<path fill="#F47F43" d="M23.4,27.1c0,0.1-0.1,0.3-0.2,0.3c-0.1,0-0.3-0.1-0.3-0.2c0-0.1,0.1-0.3,0.2-0.3
		C23.2,26.8,23.4,26.9,23.4,27.1z"/>
	<path fill="#F47F43" d="M24.6,30.3c0,0.1-0.1,0.3-0.2,0.3c-0.2,0-0.3-0.1-0.4-0.2c0-0.1,0.1-0.3,0.2-0.3
		C24.4,30.1,24.5,30.2,24.6,30.3z"/>
	<path fill="#F47F43" d="M29.1,30.7c0,0.2,0,0.3-0.2,0.4c-0.1,0-0.3-0.1-0.3-0.3c0-0.2,0-0.3,0.2-0.4C28.9,30.4,29.1,30.5,29.1,30.7
		z"/>
	<path fill="#F47F43" d="M18.8,32.8c0,0.1-0.1,0.3-0.3,0.3c-0.2,0-0.4-0.1-0.4-0.2c0-0.1,0.1-0.3,0.3-0.3
		C18.6,32.5,18.8,32.6,18.8,32.8z"/>
	<path fill="#F47F43" d="M10.5,24.3c0,0.2-0.1,0.3-0.2,0.3c-0.2,0-0.3-0.1-0.4-0.2c0-0.2,0.1-0.3,0.2-0.3
		C10.3,24.1,10.4,24.2,10.5,24.3z"/>
	<path fill="#F47F43" d="M37.1,22.2c0,0.2-0.1,0.3-0.2,0.3c-0.2,0-0.3-0.1-0.4-0.2c0-0.2,0.1-0.3,0.2-0.3
		C36.9,21.9,37.1,22,37.1,22.2z"/>
	<path fill="#F8ED49" d="M37.5,13.6c0,0.1,0,0.2-0.1,0.2c-0.1,0-0.2,0-0.2-0.1c0-0.1,0-0.2,0.1-0.2C37.4,13.4,37.5,13.5,37.5,13.6z"
		/>
	<path fill="#25110A" d="M37.9,10.9c0,0.1-0.1,0.2-0.2,0.3c-0.1,0-0.2-0.1-0.3-0.2c0-0.1,0.1-0.2,0.2-0.2
		C37.8,10.7,37.9,10.8,37.9,10.9z"/>
	<path fill="#692710" d="M30.4,7.4c0,0.1-0.1,0.3-0.2,0.3c-0.2,0-0.3-0.1-0.3-0.2c0-0.1,0.1-0.3,0.2-0.3C30.3,7.1,30.4,7.2,30.4,7.4
		z"/>
	<path fill="#F47F43" d="M23.5,8.2c0,0.1-0.1,0.3-0.2,0.3c-0.1,0-0.3-0.1-0.3-0.2C23,8.1,23.1,8,23.2,8C23.4,7.9,23.5,8,23.5,8.2z"
		/>
	<path fill="#F8ED49" d="M13.2,9.2c0,0.1-0.1,0.1-0.2,0.2c-0.1,0-0.2,0-0.2-0.1c0-0.1,0.1-0.2,0.2-0.2C13.1,9.1,13.2,9.1,13.2,9.2z"
		/>
	<path fill="#F8ED49" d="M25.8,20.9c0,0.2-0.1,0.4-0.3,0.4c-0.2,0-0.4-0.1-0.5-0.3c0-0.2,0.1-0.4,0.3-0.4
		C25.6,20.6,25.8,20.7,25.8,20.9z"/>
	<path fill="#F47F43" d="M11.7,27.7c0,0.2-0.1,0.4-0.3,0.4c-0.2,0-0.4-0.1-0.5-0.3c0-0.2,0.1-0.4,0.3-0.4
		C11.4,27.3,11.6,27.5,11.7,27.7z"/>
	<path fill="#F8ED49" d="M6,28.6c0,0.1-0.1,0.3-0.2,0.3c-0.1,0-0.3-0.1-0.3-0.2c0-0.1,0.1-0.3,0.2-0.3C5.8,28.4,6,28.5,6,28.6z"/>
	<path fill="#F8ED49" d="M4.9,24.3c0,0.2-0.1,0.3-0.2,0.3c-0.2,0-0.3-0.1-0.4-0.2c0-0.2,0.1-0.3,0.2-0.3C4.7,24,4.9,24.1,4.9,24.3z"
		/>
	<path fill="#F47F43" d="M39.9,27.1c0,0.2-0.1,0.3-0.3,0.4c-0.2,0-0.4-0.1-0.4-0.3c0-0.2,0.1-0.3,0.3-0.4
		C39.7,26.8,39.9,26.9,39.9,27.1z"/>
	<path fill="#8C311D" d="M42.2,27.6c0,0.2-0.1,0.3-0.2,0.3c-0.2,0-0.3-0.1-0.4-0.2c0-0.2,0.1-0.3,0.2-0.3
		C42,27.3,42.2,27.4,42.2,27.6z"/>
	<path fill="#8C311D" d="M41.8,19.9c0,0.2-0.1,0.4-0.3,0.4c-0.2,0-0.4-0.1-0.4-0.3c0-0.2,0.1-0.4,0.3-0.4
		C41.6,19.6,41.8,19.8,41.8,19.9z"/>
	<path fill="#F47F43" d="M39.7,14.7c0,0.1,0,0.2-0.1,0.2c-0.1,0-0.2,0-0.2-0.1c0-0.1,0-0.2,0.1-0.2C39.6,14.5,39.7,14.6,39.7,14.7z"
		/>
	<path fill="#F8ED49" d="M34.9,16.9c0,0.1-0.1,0.2-0.2,0.3c-0.1,0-0.2-0.1-0.3-0.2c0-0.1,0.1-0.2,0.2-0.3
		C34.8,16.7,34.9,16.8,34.9,16.9z"/>
	<path fill="#F8ED49" d="M31.1,17.8c0,0.1-0.1,0.2-0.2,0.3c-0.1,0-0.2-0.1-0.3-0.2c0-0.1,0.1-0.2,0.2-0.3
		C30.9,17.6,31,17.7,31.1,17.8z"/>
	<path fill="#F8ED49" d="M28,22.3c0,0.2-0.1,0.4-0.3,0.4c-0.2,0-0.4-0.1-0.5-0.3c0-0.2,0.1-0.4,0.3-0.4C27.8,22,28,22.1,28,22.3z"/>
	<path fill="#F8ED49" d="M27.1,18c0,0.2-0.1,0.3-0.3,0.4c-0.2,0-0.4-0.1-0.4-0.3c0-0.2,0.1-0.3,0.3-0.4C26.9,17.7,27.1,17.8,27.1,18
		z"/>
	<path fill="#F8ED49" d="M23.3,19.9c0,0.2-0.1,0.4-0.3,0.4c-0.2,0-0.4-0.1-0.4-0.3c0-0.2,0.1-0.4,0.3-0.4
		C23,19.6,23.2,19.7,23.3,19.9z"/>
	<path fill="#F8ED49" d="M20,24.9c0,0.1-0.1,0.2-0.2,0.3c-0.1,0-0.2-0.1-0.3-0.2c0-0.1,0.1-0.2,0.2-0.2C19.9,24.7,20,24.8,20,24.9z"
		/>
	<path fill="#F8ED49" d="M16.4,24.7c0,0.1,0,0.2-0.1,0.2c-0.1,0-0.2,0-0.2-0.1c0-0.1,0-0.2,0.1-0.2C16.2,24.6,16.3,24.6,16.4,24.7z"
		/>
	<path fill="#F8ED49" d="M21.4,31.6c0,0.1-0.1,0.2-0.2,0.3c-0.1,0-0.2-0.1-0.3-0.2c0-0.1,0.1-0.2,0.2-0.3
		C21.3,31.4,21.4,31.4,21.4,31.6z"/>
	<path fill="#F05B43" d="M29.7,40.6c0,0.1-0.1,0.3-0.2,0.3c-0.1,0-0.3-0.1-0.3-0.2c0-0.1,0.1-0.3,0.2-0.3
		C29.5,40.4,29.7,40.5,29.7,40.6z"/>
	<path fill="#F05B43" d="M32.7,39.8c0,0.2-0.1,0.3-0.2,0.3c-0.2,0-0.3-0.1-0.4-0.2c0-0.2,0.1-0.3,0.2-0.3
		C32.5,39.5,32.6,39.6,32.7,39.8z"/>
	<path fill="#F05B43" d="M34.3,37.8c0,0.2-0.1,0.3-0.2,0.3c-0.2,0-0.3-0.1-0.4-0.2c0-0.2,0.1-0.3,0.2-0.3
		C34.1,37.6,34.2,37.7,34.3,37.8z"/>
	<path fill="#F05B43" d="M30.2,35.3c0,0.2-0.1,0.4-0.3,0.4c-0.2,0-0.4-0.1-0.4-0.3c0-0.2,0.1-0.4,0.3-0.4C30,35,30.2,35.1,30.2,35.3
		z"/>
	<circle fill="#F05B43" cx="17.9" cy="37.7" r="0.1"/>
	<path fill="#F05B43" d="M14.9,36.2c0,0.2-0.1,0.5-0.4,0.5c-0.3,0-0.5-0.1-0.6-0.4c0-0.2,0.1-0.5,0.4-0.5
		C14.6,35.8,14.8,35.9,14.9,36.2z"/>
	<path fill="#F05B43" d="M12.5,37.7c0,0.2-0.1,0.4-0.3,0.4c-0.2,0-0.4-0.1-0.4-0.3c0-0.2,0.1-0.4,0.3-0.4
		C12.3,37.4,12.5,37.5,12.5,37.7z"/>
	<path fill="#F05B43" d="M42.1,31.8c0,0.2-0.1,0.3-0.2,0.3c-0.2,0-0.3-0.1-0.4-0.2c0-0.2,0.1-0.3,0.2-0.3
		C42,31.5,42.1,31.6,42.1,31.8z"/>
	<path fill="#F05B43" d="M20.2,38.7c0,0.2-0.1,0.3-0.3,0.4c-0.2,0-0.4-0.1-0.4-0.3c0-0.2,0.1-0.3,0.3-0.4
		C19.9,38.4,20.1,38.5,20.2,38.7z"/>
	<path fill="#F05B43" d="M18.9,42.8c0.1,0.3-0.1,0.5-0.4,0.6c-0.3,0-0.5-0.1-0.6-0.4c-0.1-0.3,0.1-0.5,0.4-0.6
		C18.6,42.3,18.9,42.5,18.9,42.8z"/>
	<path fill="#F05B43" d="M24.8,44.2c0,0.1,0,0.2-0.1,0.2c-0.1,0-0.2,0-0.2-0.1c0-0.1,0-0.2,0.1-0.2C24.7,44,24.8,44.1,24.8,44.2z"/>
	<path fill="#F05B43" d="M19.2,24.2c0,0.1-0.1,0.2-0.2,0.2c-0.1,0-0.2,0-0.2-0.2c0-0.1,0.1-0.2,0.2-0.2C19.1,24,19.2,24.1,19.2,24.2
		z"/>
	<path fill="#F8ED49" d="M20,35.7c0,0.1,0,0.1-0.1,0.2c-0.1,0-0.1,0-0.2-0.1c0-0.1,0-0.1,0.1-0.2C19.9,35.6,20,35.6,20,35.7z"/>
	<ellipse transform="matrix(0.9839 -0.179 0.179 0.9839 -5.8161 4.6784)" fill="#F8ED49" cx="23" cy="34.6" rx="0.3" ry="0.2"/>
	<path fill="#F8ED49" d="M28.1,37c0,0.1,0,0.2-0.1,0.2c-0.1,0-0.2-0.1-0.2-0.2c0-0.1,0-0.2,0.1-0.2C28,36.8,28.1,36.8,28.1,37z"/>
	<path fill="#F8ED49" d="M30.7,36.9c0,0.1,0,0.3-0.1,0.3c-0.1,0-0.2-0.1-0.2-0.2c0-0.1,0-0.3,0.1-0.3C30.6,36.7,30.7,36.7,30.7,36.9
		z"/>
	<path fill="#F8ED49" d="M33.2,35.6c0,0.1-0.1,0.3-0.3,0.3c-0.2,0-0.4-0.1-0.4-0.2c0-0.1,0.1-0.3,0.3-0.3
		C33,35.4,33.1,35.5,33.2,35.6z"/>
	<path fill="#F8ED49" d="M32.6,32.9c0,0.2-0.1,0.3-0.2,0.3c-0.2,0-0.3-0.1-0.4-0.2c0-0.2,0.1-0.3,0.2-0.3
		C32.4,32.6,32.6,32.7,32.6,32.9z"/>
	<path fill="#F8ED49" d="M27.2,33.6c0,0.1-0.1,0.2-0.2,0.2c-0.1,0-0.2,0-0.2-0.1c0-0.1,0.1-0.2,0.2-0.2
		C27.1,33.5,27.2,33.5,27.2,33.6z"/>
	<path fill="#441C0E" d="M42.1,33.8c0,0.1-0.1,0.3-0.3,0.3c-0.2,0-0.3-0.1-0.3-0.2c0-0.1,0.1-0.3,0.3-0.3
		C41.9,33.6,42.1,33.6,42.1,33.8z"/>
	<path fill="#F8ED49" d="M39,31.3c0,0.1-0.1,0.2-0.2,0.2c-0.1,0-0.3,0-0.3-0.1c0-0.1,0.1-0.2,0.2-0.2C38.8,31.1,39,31.2,39,31.3z"/>
	<path fill="#F8ED49" d="M36.6,37.6c0,0.1,0,0.2-0.2,0.2c-0.1,0-0.2-0.1-0.2-0.2c0-0.1,0-0.2,0.2-0.2C36.5,37.4,36.6,37.5,36.6,37.6
		z"/>
	<path fill="#F8ED49" d="M34.6,40.7c0,0.1-0.1,0.2-0.3,0.2c-0.2,0-0.3,0-0.3-0.1c0-0.1,0.1-0.2,0.3-0.2
		C34.4,40.6,34.5,40.6,34.6,40.7z"/>
	<path fill="#F8ED49" d="M26.4,42c0,0.1-0.1,0.2-0.2,0.2c-0.1,0-0.3,0-0.3-0.1c0-0.1,0.1-0.2,0.2-0.2C26.2,41.8,26.4,41.9,26.4,42z"
		/>
	<path fill="#F8ED49" d="M25.2,39.6c0,0.1-0.1,0.3-0.3,0.3c-0.2,0-0.3-0.1-0.3-0.2c0-0.1,0.1-0.3,0.3-0.3
		C25.1,39.4,25.2,39.5,25.2,39.6z"/>
	<path fill="#F8ED49" d="M15.3,38c0,0.2,0,0.3-0.1,0.3c-0.1,0-0.2-0.1-0.2-0.3c0-0.2,0-0.3,0.1-0.3C15.2,37.7,15.3,37.8,15.3,38z"/>
	<path fill="#F8ED49" d="M9.3,36.8c0,0.1-0.1,0.2-0.2,0.2c-0.1,0-0.2,0-0.3-0.1c0-0.1,0.1-0.2,0.2-0.2C9.2,36.7,9.3,36.7,9.3,36.8z"
		/>
	<path fill="#F8ED49" d="M7.9,34.6c0,0.1,0,0.3-0.1,0.3c-0.1,0-0.2-0.1-0.2-0.2c0-0.1,0-0.2,0.1-0.3C7.8,34.4,7.9,34.5,7.9,34.6z"/>
	<ellipse transform="matrix(0.983 -0.1837 0.1837 0.983 -6.0733 2.649)" fill="#F8ED49" cx="11.3" cy="34.1" rx="0.1" ry="0.2"/>
	<path fill="#F8ED49" d="M18.3,40.5c0,0.1,0,0.3-0.2,0.3c-0.1,0-0.2-0.1-0.3-0.2c0-0.1,0-0.3,0.2-0.3C18.1,40.2,18.3,40.3,18.3,40.5
		z"/>
	<path fill="#F8ED49" d="M7,18.7c0,0.2,0,0.3-0.2,0.3c-0.1,0-0.2-0.1-0.3-0.2c0-0.2,0-0.3,0.1-0.3C6.8,18.4,6.9,18.6,7,18.7z"/>
	<path fill="#F8ED49" d="M15.6,33.3c0,0.2,0,0.4-0.1,0.4c-0.1,0-0.2-0.1-0.3-0.4c0-0.2,0-0.4,0.1-0.4C15.5,32.9,15.6,33,15.6,33.3z"
		/>
	<path fill="#F47F43" d="M28.2,27.4c0.1,0.4-0.2,0.7-0.6,0.8c-0.4,0.1-0.7-0.2-0.8-0.5c-0.1-0.4,0.2-0.7,0.6-0.8
		C27.8,26.8,28.1,27,28.2,27.4z"/>
	<path fill="#F47F43" d="M18.4,29.7c0.1,0.3-0.2,0.5-0.5,0.6c-0.3,0.1-0.6-0.1-0.7-0.4c-0.1-0.3,0.2-0.5,0.5-0.6
		C18.1,29.3,18.4,29.4,18.4,29.7z"/>
	<path fill="#F47F43" d="M9.4,30.1c0.1,0.3-0.2,0.6-0.6,0.7c-0.4,0.1-0.7-0.1-0.8-0.4C8,30,8.2,29.7,8.6,29.7
		C9,29.6,9.4,29.8,9.4,30.1z"/>
	<path fill="#F47F43" d="M35.1,32.4c0.1,0.4-0.1,0.8-0.4,0.9c-0.3,0.1-0.7-0.2-0.7-0.7c-0.1-0.4,0.1-0.8,0.4-0.9
		C34.7,31.7,35,32,35.1,32.4z"/>
	<path fill="#F47F43" d="M35.5,29.1c0.1,0.3-0.2,0.6-0.6,0.7c-0.4,0.1-0.7-0.1-0.8-0.4c-0.1-0.3,0.2-0.6,0.6-0.7
		C35.1,28.6,35.4,28.8,35.5,29.1z"/>
	<path fill="#F47F43" d="M33.8,19.4c0.1,0.4-0.2,0.7-0.6,0.8c-0.4,0.1-0.7-0.2-0.8-0.5c-0.1-0.4,0.2-0.7,0.6-0.8
		C33.4,18.8,33.7,19,33.8,19.4z"/>
	<path fill="#F47F43" d="M21.5,16.7c0,0.2-0.1,0.4-0.4,0.5c-0.3,0-0.5-0.1-0.6-0.3c0-0.2,0.1-0.4,0.4-0.5
		C21.2,16.3,21.5,16.4,21.5,16.7z"/>
	<path fill="#F47F43" d="M11.6,11.7c0.1,0.3-0.2,0.6-0.5,0.7c-0.3,0.1-0.6-0.1-0.7-0.5c-0.1-0.3,0.2-0.6,0.5-0.7
		C11.2,11.2,11.5,11.4,11.6,11.7z"/>
	<path fill="#F47F43" d="M9,25.7c0.1,0.4-0.1,0.7-0.5,0.8c-0.3,0.1-0.7-0.2-0.7-0.6c-0.1-0.4,0.1-0.7,0.5-0.8
		C8.6,25.1,8.9,25.3,9,25.7z"/>
</g>
</svg>
