<?xml version="1.0" encoding="utf-8"?>
<!-- Generator: Adobe Illustrator 17.1.0, SVG Export Plug-In . SVG Version: 6.00 Build 0)  -->
<!DOCTYPE svg PUBLIC "-//W3C//DTD SVG 1.1//EN" "http://www.w3.org/Graphics/SVG/1.1/DTD/svg11.dtd">
<svg version="1.1" id="Layer_1" xmlns="http://www.w3.org/2000/svg" xmlns:xlink="http://www.w3.org/1999/xlink" x="0px" y="0px"
	 viewBox="0 0 70 70" enable-background="new 0 0 70 70" xml:space="preserve">
<g>
	
		<radialGradient id="earth_svgid_1_" cx="49.7671" cy="5.1036" r="70.9541" gradientTransform="matrix(0.7468 -0.139 0.1555 0.7555 -20.4786 38.2205)" gradientUnits="userSpaceOnUse">
		<stop  offset="0" style="stop-color:#5D89C1"/>
		<stop  offset="5.838194e-02" style="stop-color:#5076AC"/>
		<stop  offset="0.1701" style="stop-color:#3B5789"/>
		<stop  offset="0.2834" style="stop-color:#2A3E6D"/>
		<stop  offset="0.3976" style="stop-color:#1E2D5A"/>
		<stop  offset="0.5131" style="stop-color:#17224E"/>
		<stop  offset="0.6319" style="stop-color:#151F4A"/>
		<stop  offset="1" style="stop-color:#000000"/>
	</radialGradient>
	<path fill-rule="evenodd" clip-rule="evenodd" fill="url(#earth_svgid_1_)" d="M64.2,29.6c3.4,16.3-7,32-23.1,35
		C25,67.5,9.2,56.8,5.8,40.4c-3.4-16.3,7-32,23.1-35C45,2.5,60.8,13.2,64.2,29.6z"/>
	<g>
		
			<radialGradient id="earth_svgid_2_" cx="49.7841" cy="5.1021" r="70.9677" gradientTransform="matrix(0.7468 -0.139 0.1555 0.7555 -20.4786 38.2205)" gradientUnits="userSpaceOnUse">
			<stop  offset="0" style="stop-color:#5D89C1"/>
			<stop  offset="5.838194e-02" style="stop-color:#5076AC"/>
			<stop  offset="0.1701" style="stop-color:#3B5789"/>
			<stop  offset="0.2834" style="stop-color:#2A3E6D"/>
			<stop  offset="0.3976" style="stop-color:#1E2D5A"/>
			<stop  offset="0.5131" style="stop-color:#17224E"/>
			<stop  offset="0.6319" style="stop-color:#151F4A"/>
			<stop  offset="1" style="stop-color:#000000"/>
		</radialGradient>
		<path fill="url(#earth_svgid_2_)" d="M14.2,50.1c0-0.5,0.4-0.8,0.7-1.1c1-0.5-0.7-0.6,0.2-1.5c0.7,0.5,2.1,0.1,3.3-0.1
			c0-0.2-0.1-0.3-0.1-0.5c-1.9-0.2-1.7,0.2-3.8,0.2c0.3,0.7-0.3,0.9-0.2,1.5c-1.8,0,0.6-3.1-1.4-2.2c0.1-0.5,0.2-0.9,0.7-1.1
			c-1.1-0.7,0.2-3-1.3-1.7c0.2,0.5,0.1,0.9-0.3,1c-0.1,0.9,1.1,2.6,0.1,2.9c0,0.2,0.1,0.3,0.1,0.5C14.4,47.7,12.3,50,14.2,50.1z"/>
		
			<radialGradient id="earth_svgid_3_" cx="49.7881" cy="5.0901" r="70.9625" gradientTransform="matrix(0.7468 -0.139 0.1555 0.7555 -20.4786 38.2205)" gradientUnits="userSpaceOnUse">
			<stop  offset="0" style="stop-color:#5D89C1"/>
			<stop  offset="5.838194e-02" style="stop-color:#5076AC"/>
			<stop  offset="0.1701" style="stop-color:#3B5789"/>
			<stop  offset="0.2834" style="stop-color:#2A3E6D"/>
			<stop  offset="0.3976" style="stop-color:#1E2D5A"/>
			<stop  offset="0.5131" style="stop-color:#17224E"/>
			<stop  offset="0.6319" style="stop-color:#151F4A"/>
			<stop  offset="1" style="stop-color:#000000"/>
		</radialGradient>
		<path fill="url(#earth_svgid_3_)" d="M45.8,49.6c0.2,0,0.3-0.1,0.5-0.1c0-0.6-0.3-0.8-0.7-0.8c0-0.5,0.9-0.5,0.7-1.1
			c-0.6-0.7-1.7,1.1-1.2-1.2c-1.3,0.2-1.2,1.6-0.5,2C44.8,49.1,45.8,48.5,45.8,49.6z"/>
		
			<radialGradient id="earth_svgid_4_" cx="49.7824" cy="5.1029" r="70.972" gradientTransform="matrix(0.7468 -0.139 0.1555 0.7555 -20.4786 38.2205)" gradientUnits="userSpaceOnUse">
			<stop  offset="0" style="stop-color:#5D89C1"/>
			<stop  offset="5.838194e-02" style="stop-color:#5076AC"/>
			<stop  offset="0.1701" style="stop-color:#3B5789"/>
			<stop  offset="0.2834" style="stop-color:#2A3E6D"/>
			<stop  offset="0.3976" style="stop-color:#1E2D5A"/>
			<stop  offset="0.5131" style="stop-color:#17224E"/>
			<stop  offset="0.6319" style="stop-color:#151F4A"/>
			<stop  offset="1" style="stop-color:#000000"/>
		</radialGradient>
		<path fill="url(#earth_svgid_4_)" d="M14.2,40.9c0.9,0.1,2.6-1.1,2.9-0.1c1.4-0.2,2.8-0.6,3.1,0.9c0.3-0.1,0.6-0.1,0.9-0.2
			c-0.1-0.3,0.3-0.6,0.5-0.1c1.2-0.1,1.9-0.6,2.1-1.4c-0.3,0-0.6,0-0.6-0.4c-1.5-0.6-1.3-1-1.9-2.1c-2.4,0.5-2.3,0.7-4.6,0.9
			c0-0.6,0.6-1.2-0.3-1.4c0,0.4-0.3,0.6-0.8,0.6c-1.1,0.1-1.8,2.5-3.1,1.1c-0.5-1.4,0.7-1.7,2-1.8c2.2-0.1,2.8-1.3,4.4-1.8
			c-0.1-0.3-0.1-0.6-0.2-0.9c-0.7,0-0.7-1.1-0.8-1.8c-0.5-0.1-0.9-0.3-1.1-0.8c-0.2,0-0.3,0.1-0.5,0.1c0,2.1-2.3,2.7-3.5,4
			c-1.2,0.3-0.1,2.1-2,1.8c0.3,0.6,0.8,0.8,0.8,1.8c0.3,0.4-0.4,1.1,1.3,1.7C13.5,40.8,13.5,40.4,14.2,40.9z"/>
		
			<radialGradient id="earth_svgid_5_" cx="49.7641" cy="5.1119" r="70.9763" gradientTransform="matrix(0.7468 -0.139 0.1555 0.7555 -20.4786 38.2205)" gradientUnits="userSpaceOnUse">
			<stop  offset="0" style="stop-color:#5D89C1"/>
			<stop  offset="5.838194e-02" style="stop-color:#5076AC"/>
			<stop  offset="0.1701" style="stop-color:#3B5789"/>
			<stop  offset="0.2834" style="stop-color:#2A3E6D"/>
			<stop  offset="0.3976" style="stop-color:#1E2D5A"/>
			<stop  offset="0.5131" style="stop-color:#17224E"/>
			<stop  offset="0.6319" style="stop-color:#151F4A"/>
			<stop  offset="1" style="stop-color:#000000"/>
		</radialGradient>
		<path fill="url(#earth_svgid_5_)" d="M53,19.1c0.8,1.4-0.5,1.3-0.5,2c0.6-0.4,1.5,1.6,1.5,0.2c-0.6-0.3,0.4-1.9-0.7-3.3
			c-0.6,1.7-2.7-3.4-3-0.4C51.7,17.3,51.9,18.9,53,19.1z"/>
		
			<radialGradient id="earth_svgid_6_" cx="49.7821" cy="5.1071" r="70.9961" gradientTransform="matrix(0.7468 -0.139 0.1555 0.7555 -20.4786 38.2205)" gradientUnits="userSpaceOnUse">
			<stop  offset="0" style="stop-color:#5D89C1"/>
			<stop  offset="5.838194e-02" style="stop-color:#5076AC"/>
			<stop  offset="0.1701" style="stop-color:#3B5789"/>
			<stop  offset="0.2834" style="stop-color:#2A3E6D"/>
			<stop  offset="0.3976" style="stop-color:#1E2D5A"/>
			<stop  offset="0.5131" style="stop-color:#17224E"/>
			<stop  offset="0.6319" style="stop-color:#151F4A"/>
			<stop  offset="1" style="stop-color:#000000"/>
		</radialGradient>
		<path fill="url(#earth_svgid_6_)" d="M16.6,29.3c0-0.2-0.1-0.3-0.1-0.5c-0.5,0.1-0.9,0.2-1.4,0.3c-0.1-0.5,0.3-0.6,0.3-1
			c-0.6,0.1-1.2,0.2-1.8,0.3c0,0.4-0.4,0.6-0.3,1c0.3-0.1,0.6-0.1,0.9-0.2c0.5-0.7,2.3,1.8,3.7,1.7C17.7,30.2,17.9,28.5,16.6,29.3z"
			/>
		
			<radialGradient id="earth_svgid_7_" cx="49.7467" cy="5.1089" r="71.0498" gradientTransform="matrix(0.7468 -0.139 0.1555 0.7555 -20.4786 38.2205)" gradientUnits="userSpaceOnUse">
			<stop  offset="0" style="stop-color:#5D89C1"/>
			<stop  offset="5.838194e-02" style="stop-color:#5076AC"/>
			<stop  offset="0.1701" style="stop-color:#3B5789"/>
			<stop  offset="0.2834" style="stop-color:#2A3E6D"/>
			<stop  offset="0.3976" style="stop-color:#1E2D5A"/>
			<stop  offset="0.5131" style="stop-color:#17224E"/>
			<stop  offset="0.6319" style="stop-color:#151F4A"/>
			<stop  offset="1" style="stop-color:#000000"/>
		</radialGradient>
		<path fill="url(#earth_svgid_7_)" d="M32.5,24.9c0.6-0.1,0.8,0.5,1.5,0.2c0.5-0.3-1.7-2.4,0.6-1.6c-0.1-0.3-0.1-0.6-0.2-0.9
			c-0.8,0-0.7,0.6-1.3,0.7c-0.3,0.5-1.2,0.5-1.2,1.2C32.4,24.3,32.4,24.6,32.5,24.9z"/>
		
			<radialGradient id="earth_svgid_8_" cx="49.7814" cy="5.1034" r="70.9561" gradientTransform="matrix(0.7468 -0.139 0.1555 0.7555 -20.4786 38.2205)" gradientUnits="userSpaceOnUse">
			<stop  offset="0" style="stop-color:#5D89C1"/>
			<stop  offset="5.838194e-02" style="stop-color:#5076AC"/>
			<stop  offset="0.1701" style="stop-color:#3B5789"/>
			<stop  offset="0.2834" style="stop-color:#2A3E6D"/>
			<stop  offset="0.3976" style="stop-color:#1E2D5A"/>
			<stop  offset="0.5131" style="stop-color:#17224E"/>
			<stop  offset="0.6319" style="stop-color:#151F4A"/>
			<stop  offset="1" style="stop-color:#000000"/>
		</radialGradient>
		<path fill="url(#earth_svgid_8_)" d="M8.4,35.7c0.5-0.1,0.5-0.5,0.8-0.6c0-0.6,0.6-0.6,1.3-0.7c2.1-0.8,2.6-0.3,4.2-0.8
			c-0.4-1.2-0.2-2,1-2.1c2-1.1-0.2-0.4-0.8-1.3c0.1,0.6,0.1,1.1-0.7,1.1c0,1.8-1.7,1.9-2.6,1.5c0.6-0.1,0.3-0.9,0.7-1.1
			c0.2,0.3,0.5,0.5,1,0.3c-0.2-0.8-0.3-1.6-0.5-2.3c-0.2-0.4-0.6-0.4-0.7-0.8c-0.6,0.2-0.3,1.5,0.3,1.4c-0.4,1.5-2-0.2-1.8-1.6
			c0-0.2-0.1-0.3-0.1-0.5c-0.7,1-1.6,2.5,0.1,2.9c-0.1,0.6-0.4,1.1-1.2,1.2c0.1,0.6,0.7,0.5,0.8,1.3c-1.2,0-0.8,1-2.2,0.9
			c0,0.6-0.7,0.9-0.6,1.6C8,35.8,8,35,8.4,35.7z"/>
		
			<radialGradient id="earth_svgid_9_" cx="49.737" cy="5.0801" r="71.0602" gradientTransform="matrix(0.7468 -0.139 0.1555 0.7555 -20.4786 38.2205)" gradientUnits="userSpaceOnUse">
			<stop  offset="0" style="stop-color:#5D89C1"/>
			<stop  offset="5.838194e-02" style="stop-color:#5076AC"/>
			<stop  offset="0.1701" style="stop-color:#3B5789"/>
			<stop  offset="0.2834" style="stop-color:#2A3E6D"/>
			<stop  offset="0.3976" style="stop-color:#1E2D5A"/>
			<stop  offset="0.5131" style="stop-color:#17224E"/>
			<stop  offset="0.6319" style="stop-color:#151F4A"/>
			<stop  offset="1" style="stop-color:#000000"/>
		</radialGradient>
		<path fill="url(#earth_svgid_9_)" d="M42.8,41.9c0.2,0.5,0.8,0.4,1.5,0.2c0-0.2-0.1-0.3-0.1-0.5C44.1,41.3,44,41,44,40.7
			c-0.2,0-0.3,0.1-0.5,0.1c0.1,1.3-2.8,1-1.5,2.2c0.2,0,0.3-0.1,0.5-0.1C43.3,42.6,42.1,42.2,42.8,41.9z"/>
		
			<radialGradient id="earth_svgid_10_" cx="49.7741" cy="5.1075" r="70.9042" gradientTransform="matrix(0.7468 -0.139 0.1555 0.7555 -20.4786 38.2205)" gradientUnits="userSpaceOnUse">
			<stop  offset="0" style="stop-color:#5D89C1"/>
			<stop  offset="5.838194e-02" style="stop-color:#5076AC"/>
			<stop  offset="0.1701" style="stop-color:#3B5789"/>
			<stop  offset="0.2834" style="stop-color:#2A3E6D"/>
			<stop  offset="0.3976" style="stop-color:#1E2D5A"/>
			<stop  offset="0.5131" style="stop-color:#17224E"/>
			<stop  offset="0.6319" style="stop-color:#151F4A"/>
			<stop  offset="1" style="stop-color:#000000"/>
		</radialGradient>
		<path fill="url(#earth_svgid_10_)" d="M8.5,41c0.1-0.6,2.1-1,0.9-0.2c0.1,1,1.3-0.3,1.3-0.7C10.2,39.7,9,40.3,9,38.9
			c-0.8,0.1-1.1,0.6-1.2,1.2C9,39.2,8.3,39.7,8.5,41z"/>
		<path fill="#325F96" d="M60.4,39.1c-0.1-0.6-0.3-1.2-0.4-1.9c-0.5,0.1-0.9,0.2-1.4,0.3C58.6,39,59.7,38.8,60.4,39.1z"/>
		<path fill="#778A97" d="M27.6,10.2c0.6-0.2,0.3-1.1,0.6-1.6c-0.8-0.5-3.9-0.3-3.6,1.2c0.3,0,0.6,0,0.6,0.4
			C25.8,10.5,26.6,10.6,27.6,10.2z"/>
		<path fill="#8DA2B0" d="M24,11.4c0.7,0.2-0.1,1.5,1.3,1.7c-0.6,0.1-0.3,0.9-0.7,1.1c0.1,0.6-0.5,0.8-0.2,1.5
			c0.2,0,0.3-0.1,0.5-0.1c0-0.2-0.1-0.3-0.1-0.5c-0.1-1.1,1.9-0.8,2-1.8c-0.5-0.7-2.5-2.3-1.6-3.1c0-0.4-0.3-0.4-0.6-0.4
			c-0.6,0-1.3,0.3-1.5-0.2c-1.3,0.1-2.3,0.6-2.6,1.4C22,10.7,23.4,10.5,24,11.4z"/>
		<path fill="#485E73" d="M26.5,14.3c0.3-0.2,0.9-0.2,0.8-0.6c-0.1-0.6-0.7-0.5-0.7-1.3c-0.1-0.6-0.7-0.5-0.8-1.3
			c1.8,0.1,2.7,1.6,4.3,2.1c0-0.3,0-0.6,0.4-0.6c0-0.2-0.1-0.3-0.1-0.5c-0.8-0.8-2.2-0.8-2.8-1.9c-1,0.3-1.8,0.3-2.4,0
			c-0.9,0.8,1.1,2.4,1.6,3.1c-0.1,1-2.1,0.7-2,1.8C25.7,15.1,25.7,14.4,26.5,14.3z"/>
		<path fill="#485E73" d="M39.5,9.5c0.1,0.3,0.2,0.5,0.6,0.4c0.8-0.2,0-1.6,0.5-2C40.2,8,40.1,7.7,40,7.4c-0.9,0-1.1-1.2-2.5-0.5
			c0.1,0.5,0.5,0.5,0.7,0.9C38.8,7.7,40.7,8.7,39.5,9.5z"/>
		<path fill="#D4D8D0" d="M7.5,24.7c0-0.7,0.9-0.7,1.2-1.2c1.6-2.1,4.8-3.2,7.2-4.7c1.1-0.2,1.2-1.1,2.7-1c0-0.5,0.4-0.8,0.7-1.1
			c-0.3-2.7,1.2-3.1,1.4-4.6c1.2,1.8-1.7,2.8,0.3,3.8c0.5-0.9-0.1-2.5,0.8-3.1c0.2,0.3,0.2,0.9,0.7,0.8c0-0.7,0.4-0.9-0.3-1.4
			c0.7-0.2,1.7-0.2,1.8-0.8c-0.6-0.9-2-0.7-3.4-0.3c-0.2,1.7-0.4-1.3-1.5-0.2c-0.5,0.1-0.5,0.5-0.8,0.6c0,0.4,0.2,0.9-0.3,1
			c0.7,0.6,0.7,1-0.2,1.5c-0.1-0.5,0.3-0.6,0.3-1c-1.3-0.3-1.9,1.8-2.8,0.5c-2.1,0.2-2.6,3.1-4,2.8c-1.8,2.4-3.3,5-4.3,7.8
			C7.1,24.4,7.2,24.7,7.5,24.7z"/>
		<path fill="#C0B4AA" d="M24.6,14.2c0.5-0.2,0.1-1,0.7-1.1c-1.4-0.2-0.6-1.5-1.3-1.7c0,0.7-1.1,0.6-1.8,0.8
			c0.7,0.5,0.3,0.7,0.3,1.4c-0.5,0.1-0.5-0.5-0.7-0.8c-0.9,0.6-0.3,2.2-0.8,3.1c-2-1,0.9-2.1-0.3-3.8c-0.3,1.5-1.7,1.9-1.4,4.6
			c1.7-0.5,2-0.7,4.5-1.3C23.8,14.7,23.8,14.2,24.6,14.2z"/>
		<path fill="#E9F5F1" d="M15.3,13.5c0.9,1.3,1.5-0.8,2.8-0.5c0,0.4-0.4,0.5-0.3,1c0.9-0.4,0.8-0.9,0.2-1.5
			c-0.4-0.8-0.6,0.2-1.4,0.3c-0.1-0.5-0.5-0.5-0.7-0.8c-0.2,0-0.3,0.1-0.5,0.1C16.1,12.6,16.2,13.1,15.3,13.5z"/>
		<path fill="#8DA2B0" d="M34.1,11.5c0.4,0,0.6,0.3,0.7,0.8c2.1-0.5,2.6-1.9,4.2-2.7c-0.3,0-0.6,0-0.6-0.4c-0.3,0.1-0.6,0.1-0.9,0.2
			c-0.6,0.3-0.7,0.8-1.8,0.8c0.5-1.4-2.3-0.9-1.9-0.1C34.1,10.7,34.5,10.7,34.1,11.5z"/>
		<path fill="#AFBFC5" d="M39,9.6c0.2,0,0.3-0.1,0.5-0.1c1.3-0.8-0.6-1.8-1.3-1.7C37.8,8,37.2,8,37.3,8.4c0.6-0.1,1.1-0.1,1.1,0.8
			C38.4,9.6,38.7,9.6,39,9.6z"/>
		<path fill="#1A4073" d="M42.1,10.5c0,0.2,0.1,0.3,0.1,0.5c2.3,0.3,3.3,2.8,2.8,4.3c-0.2-0.3-0.2-0.9-0.7-0.9
			c0.2,2.8,3.7-0.8,2.4,2.5c1.5-1,0.6,1.5,1.7,1.1c0-0.4,1.2-1.7,1.3-0.7c0,0.5-0.4,0.8-0.7,1.1c0,0.2,0.1,0.3,0.1,0.5
			c1.9-0.4,0.1,0.7,0.3,1.4c0.6-0.1,1.1,0,1.5,0.2c0.1-1.6,0.8,0.7,0.8,1.3c1.2,0.1,2.1-0.1,3.2,1.4c0,0.2,0.1,0.3,0.1,0.5
			c1.2,0.5,1.4,2.4,2.5,2.9c-1.6-0.3-1.3,0.4-3.2,0.6c-0.1-0.5-0.2-0.9-0.3-1.4c-0.1-0.5-0.2-0.9-0.3-1.4c-1.3-1.2-1.2-1.7-3.1-0.9
			c-0.2-0.6,0-1.1,0.2-1.5c-1.2,0.2-1-1.7-2.2-1.5c-0.1,0-0.3,0.1-0.5,0.1c-0.3,0.2-0.9,0.2-0.8,0.6c2.5,1.1,3.5,0.7,2,2.5
			c0.5,0.9,1.3-1,0.7,0.8c0.6-0.3,0.7-0.7,1.4-0.3c0.4,0,0.9-0.2,1,0.3c-1.8,1.8,0.6-0.5,0.8,1.8c-1.7,0.9-1.4,0.6-1.9-0.1
			c1,1.4-1.7,1.6-1,2.1c0.8-0.2,1.5-0.2,1.9,0.1c-0.3-1,0.1-1.6,1.1-1.7c1.2,0.3,1.7,1.6,2.8,1.9c0.3,0,1.3-1.4,1.8-0.8
			c-2.5,1.2,1.6,2.8,0.7,3.3c-1.3,0.2-2-2-3-0.4c0.2,0.7,0.2,1.8,0.8,1.8c0.1-0.6,0.4-1.1,1.2-1.2c1,0.7,0.3,1.2,0.5,2.3
			c1.7,0.1,0.2-2,2-1.8c0.3,2.7-4,2.3-2.6,3.9c0.4,0.1,1.3,0.6,1.9,0.1c-0.4,0.9-0.6,2-1.9,2.3c0.7,1,1.5,1.8,2.1,3
			c-1.2-0.4-1.5,1.5-1.9,0.3c-0.3-0.8,0.4-1.3-0.3-1.4c-0.3,1.4-1.8-1.8-2.4,0c0,0.2,0.1,0.3,0.1,0.5c0.9,0.3,1.3,1.3,1.5,2.6
			c0.5-0.1,0.5-0.5,0.8-0.6c-0.2,1.6,1,1,1.3,1.7c1.7-0.3-0.7,1.7,0.8,1.3c1.3-0.8,1.1-2.6,0.2-3.9c3-0.1-0.5-4.6,2.4-4.8
			c-0.1-0.3-0.1-0.6-0.2-0.9c-1.2-1-0.3-4.4-2.6-5.8c0.6-0.1,1.1,0,1.5,0.2c0-1.8-1.7-2.4-0.8-3.7c-0.3-1.7-1.1-2.9-1.8-4
			c-1.6-1-2.3-3.4-3.5-5.2c-0.1-0.6-0.4-1-0.8-1.3c-2-0.3-2.6-2.6-4.1-3.6c-0.9-1.3-2.5-1.5-3.4-2.8c-1.1,0.1-1.2-1.5-2.6-1
			c-0.9,0.2-0.9-1.2-2-0.6C41.9,8.4,43.1,10.1,42.1,10.5z M60.4,39.1c-0.8-0.3-1.9,0-1.8-1.6c0.5-0.1,0.9-0.2,1.4-0.3
			C60.2,37.8,60.3,38.5,60.4,39.1z M53.2,18.1c1.1,1.3,0,3,0.7,3.3c0,1.4-0.9-0.6-1.5-0.2c0-0.8,1.4-0.7,0.5-2
			c-1.1-0.2-1.2-1.8-2.7-1.4C50.6,14.7,52.7,19.8,53.2,18.1z M48.7,14.6c0.9,0.3,0.1,2.1,0.7,0.8c1.5,0.3-0.3,1.6-1.1,1.7
			c1-1.7-1.9-1.2-2.1-3c-0.6,0-0.6-0.8-0.7-1.3C44.2,11,50.2,12,48.7,14.6z"/>
		<path fill="#1D2655" d="M53.8,16.1c-1.4-1.1-2.2-3.2-4.1-3.6C51.2,13.4,51.8,15.8,53.8,16.1z"/>
		<path fill="#1D2655" d="M54.5,17.4c1.1,1.8,1.8,4.2,3.5,5.2C57.1,20.5,56.1,18.5,54.5,17.4z"/>
		<path fill="#658CB2" d="M50.5,23.5c1.8-0.8,1.7-0.3,3.1,0.9c-0.7-2.2,0-1.9,1.2-1.2c-1.1-1.5-2-1.3-3.2-1.4c0-0.6-0.7-2.9-0.8-1.3
			c0.2,0.6,0,1.1-0.2,1.5C50.5,22.4,50.3,22.8,50.5,23.5z"/>
		<path fill="#325F96" d="M47.8,12.8C47.5,13,46.9,13,47,13.4c1-0.3,0.8,1.3,1.7,1.1c1.6-2.6-4.5-3.6-3.3-1.8
			C45.3,11.7,47.4,12.5,47.8,12.8z"/>
		<path fill="#1A4073" d="M43,17.6c0-0.6,0.6-0.6,1.3-0.7c0.1-1.8-2.5-0.6-1.4-2.2c-0.8,0.5-1.5,1.1-2.6,1.5
			c0.3,1.7,1.9,1.2,2.8,1.9c0,0.2,0.1,0.3,0.1,0.5C43.8,18.3,43.4,17.9,43,17.6z"/>
		<path fill="#1A4073" d="M38.4,11.6c0.8,1.1-1.5,1.8-0.1,2c0.8-1.7,2.8,1.9,4.2-0.8C40.9,12.9,40.5,11,38.4,11.6z"/>
		<path fill="#959393" d="M24.4,15.7c-0.3-0.7,0.3-0.9,0.2-1.5c-0.8,0-0.8,0.5-0.7,1.1c-2.5,0.6-2.9,0.8-4.5,1.3
			c-0.4,0.3-0.7,0.6-0.7,1.1c0.2,0,0.3-0.1,0.5-0.1C20.9,16.8,22.1,16.8,24.4,15.7z"/>
		<path fill="#485E73" d="M25,16.1c0-0.2-0.1-0.3-0.1-0.5c-0.2,0-0.3,0.1-0.5,0.1c-2.4,1.1-3.5,1.1-5.4,2
			C21.8,18.3,22.1,16.4,25,16.1z"/>
		<path fill="#778A97" d="M30.2,13.6c-0.8,1.4-2.3-1.4-3.6-1.3c0,0.8,0.6,0.7,0.7,1.3c0.6,0.1,2,1.7,0.9,2.3
			c0.8-0.2,2.1,0.4,2.8,1.9c0-0.5,0.4-0.8,0.7-1.1c0-0.5-2.2-0.6-0.8-1.3c0.6-0.1,0.6,0.7,1.1,0.8c0-0.4,0.3-0.6,0.8-0.6
			c-0.1-0.5-0.5-0.5-0.7-0.9c-0.5-0.3-1.3,0-1.6-0.7C30.7,13.7,30.6,13.5,30.2,13.6z"/>
		<path fill="#1A4073" d="M35.8,15c0.9,0.5,3,2.3,4,0.7c-0.9-0.6-2,1-2.6-1c1.1,0,2.7,0.6,2.7-1C37.8,14.6,36.3,13.3,35.8,15z"/>
		<path fill="#658CB2" d="M47,13.4c-0.1-0.5,0.5-0.5,0.8-0.6c-0.4-0.3-2.5-1.1-2.4,0c0.2,0.5,0.2,1.3,0.7,1.3
			C45.9,12.9,46.4,13.4,47,13.4z"/>
		<path fill="#1A4073" d="M7.3,30.5c0.6,0,1-2.2,1.8-0.8c-1,1.1,0,1-1,2.1c1.5,0.1,1.2-1.1,2.7-1C9,30.4,10,28.9,10.6,28
			c0.6-1.1,1.6-1.4,0.1-2c1.3-0.6,1.8,0.2,2.9,0c0.2,0,0.3-0.1,0.5-0.1c-0.8-1.1,2-1.6-0.3-1.4c-0.6,0.8-2.1,0.8-2.8,0.5
			c0.7-0.8,2.5-3.1,3.6-1.2c0.6-0.4,1-0.9,1.1-1.7c-2.6,0.3,3.1-2.9,3.4-4.5c-0.2,0-0.3,0.1-0.5,0.1c-1.9,1.9-4.3,3.5-7.2,4.7
			c-0.6,0.1-0.5,0.7-1.3,0.7c-0.7,0.9-0.8,2.1-2.4,2.4c0.2,0.5,1,0.9,0.3,1.4c-0.1-0.3-0.5-0.5-0.5,0.1c0.6,0,0.4,0.5,0.2,0.9
			c0.2,0,0.3-0.1,0.5-0.1c1.7-1.6-0.5,2.2-1.4,2.7C6.9,30.9,7.3,31.1,7.3,30.5z"/>
		<path fill="#1A4073" d="M19.5,21.9c0.4,0,0.6,0.3,0.7,0.9c0.5-0.1,0.5-0.5,0.8-0.6c0.6,0,1.1,0.6,0.8-0.6
			c-1.8,0.4-0.2-0.3-0.8-1.3c-0.8,0.6-1.8-1.1-1.8,0.3c0.2,0,0.3-0.1,0.5-0.1C21.3,20.6,19.3,21.5,19.5,21.9z"/>
		<path fill="#485E73" d="M33.3,16.9c-0.8-1.1,2-1.6-0.3-1.4c-0.6,0-0.8,0.3-0.8,0.6c-0.5,0-0.5-0.9-1.1-0.8
			c-1.4,0.7,0.7,0.8,0.8,1.3C32.4,16.6,32.6,17.2,33.3,16.9z"/>
		<path fill="#485E73" d="M11.4,22.5c2.9-1.3,5.3-2.8,7.2-4.7c-1.5-0.1-1.6,0.8-2.7,1C15.9,21,11.5,20.3,11.4,22.5z"/>
		<path fill="#1A4073" d="M25.9,18.3c0.2,0,0.3-0.1,0.5-0.1c-0.2-0.6,0-1.1,0.2-1.5c-0.3-0.9-0.7,0.4-1-0.3c0.1-0.6,0.3-1.2,0.6-1.6
			c0.1,0.5,0.7,0.3,0.4-0.6c-0.8,0.1-0.9,0.8-1.8,0.8c0,0.2,0.1,0.3,0.1,0.5c0,0.2,0.1,0.3,0.1,0.5C23.5,17.2,23.8,18.4,25.9,18.3z"
			/>
		<path fill="#8DA2B0" d="M10.1,23.2c0.8,0,0.7-0.6,1.3-0.7c0.1-2.2,4.5-1.5,4.5-3.8c-2.4,1.6-5.5,2.6-7.2,4.7
			C9.1,24.2,9.3,23.3,10.1,23.2z"/>
		<path fill="#5B7690" d="M33.3,16.9c-0.7,0.3-0.9-0.3-1.5-0.2c-0.4,0.3-0.7,0.6-0.7,1.1c-0.7-1.5-2-2.1-2.8-1.9
			c-0.7-1.3-0.5,1.2-1.8,0.8c-0.2,0.4-0.3,0.9-0.2,1.5c1.7-0.3,3.6-0.9,4.4,0.2c-0.4,0.6-1.5,0.8-2.7,1c0,1.2,1.1,0.9,0.9,2.3
			c1.2-0.4,0.8,1.7,1.8,1.6c0-0.4,0.3-0.6,0.8-0.6c-0.1-0.7,1.1-0.6,0.6-1.6c-0.6,0-1.3,0.3-1.5-0.2c1.5-0.2,0.6-2,1.9-2.3
			c0.8,0,0.7-0.6,1.3-0.7c0-0.4,0.4-0.6,0.3-1C33.7,16.8,33.7,17.6,33.3,16.9z"/>
		<path fill="#778A97" d="M24.1,21.1c3.4-0.9,0.9,1.9,2.5,2.9c1.1-0.5,1.3-1.5,2.5-1.9c0-0.2-0.1-0.3-0.1-0.5
			c0.1-1.4-0.9-1.1-0.9-2.3c1.2-0.2,2.2-0.3,2.7-1c-0.8-1.1-2.7-0.5-4.4-0.2c-0.2,0-0.3,0.1-0.5,0.1C25.6,19.8,24,18.8,24.1,21.1z"
			/>
		<path fill="#5B7690" d="M10.1,23.2c-0.8,0.1-1,1-1.4,0.3c-0.3,0.5-1.2,0.5-1.2,1.2c0.3,0,0.6,0.3,0.1,0.5c0,0.2,0.1,0.3,0.1,0.5
			C9.3,25.3,9.4,24.1,10.1,23.2z"/>
		<path fill="#485E73" d="M20.1,22.8c0-0.6-0.3-0.8-0.7-0.9c-0.2-0.5,1.8-1.3,0.2-1.5c-0.2,0-0.3,0.1-0.5,0.1
			c-1.3,0.3-3.3,0.2-3,1.5c1.2-0.6,1.1,0.8,1.7,1.1c-0.6,0.2-1.1,0.3-0.7,1.1c0.3-0.1,0.6-0.1,0.9-0.2C17.9,23.1,19,22.9,20.1,22.8z
			"/>
		<path fill="#658CB2" d="M21.8,21.5c0.9,0,2-0.2,2.1,1.1c0.5-0.2,0.3-0.8,0.2-1.5c-0.6,0-0.6-0.8-0.8-1.3c-0.8,0.1-1.5,0.3-2.3,0.4
			C21.5,21.2,20,21.9,21.8,21.5z"/>
		<path fill="#E9F5F1" d="M46.5,17.9c-1,0-1.2-1.1-2.1-1.1C43.7,16.9,43,17,43,17.6c0.4,0.4,0.7,0.7,0.2,0.9
			c-0.9,0.2-1.9,0.3-2.8,0.5c0,0.2,0.1,0.3,0.1,0.5c1.1-0.3,2-0.1,2.5,0.5c1.4,0.3,2.5,1.1,4.1,1.2c-0.1-0.5,0.5-0.5,0.8-0.6
			c0-0.2-0.1-0.3-0.1-0.5C46.4,20.8,46.8,18.7,46.5,17.9z"/>
		<path fill="#E9F5F1" d="M24.1,21.1c0.2,0.7,0.3,1.3-0.2,1.5c-0.4,0-0.4,0.3-0.4,0.6c0.7,0,0.5,1,0.3,1.4c0.6,0,1.3-0.3,1.5,0.2
			c-0.3,0.2-0.5,0.5-0.3,1c0.6,0,0.7,0.6,0.8,1.3c1.2-0.3,0.4-1.9,0.9-2.6c0-0.2-0.1-0.3-0.1-0.5C25,22.9,27.5,20.2,24.1,21.1z"/>
		<path fill="#485E73" d="M30.8,23.2c1.3,0.4,0.5,0.9,1.2,1.2c0-0.7,0.9-0.7,1.2-1.2c-0.2-2.5,1.4-1.9,2.7-1c0-1.5-1.2-1.3-0.5-2.3
			c-0.4,0.2-0.5-0.1-0.6-0.4c-0.3,0.1-0.6,0.1-0.9,0.2c-0.5,0.1-0.9,0.2-1.4,0.3c0.3,0.4,0.6,0.8,1.1,0.8c-0.4,0.9-0.9,2.6-2,1.8
			C31,22.6,30.8,22.9,30.8,23.2z"/>
		<path fill="#325F96" d="M7.6,27.1C7.5,26.5,8,26.7,8,27c0.7-0.5-0.1-0.9-0.3-1.4c0-0.2-0.1-0.3-0.1-0.5c-0.7,0.6-1.2,1.3-1.5,2.2
			c0,0.6-0.9,2.5,0,2.4c1.2-0.1,1.3-1,1.6-1.7C7.9,27.5,8.1,27.1,7.6,27.1z"/>
		<path fill="#AFBFC5" d="M21.9,24.4c0.4-1.9-0.4-0.7-0.9-2.3c-0.4,0.2-0.4,0.6-0.8,0.6c-1.2,0.1-2.3,0.3-2.1,1.4
			c0.3,1.6,2.9-0.3,3.2,1.4c-0.8,0.4-2,0.5-1.6,1.7c0.3-0.2,0.9-0.2,0.8-0.6C21,25.9,21.5,25.2,21.9,24.4z"/>
		<path fill="#8DA2B0" d="M40.1,22c1.2-0.4,0.1-1.9,2.9-2c-0.5-0.6-1.4-0.8-2.5-0.5c0-0.1-0.1-0.3-0.1-0.5c-1.1,0.4-1.2-0.7-2.4,0
			c-0.9,0.2,0.7,1.7,0.9,2.3c0,0.2,0.1,0.3,0.1,0.5C39.5,21.7,40,21.5,40.1,22z"/>
		<path fill="#8DA2B0" d="M35.8,22.3c0.2,0.3,0.2,0.9,0.7,0.8c-0.1-0.8-0.9-2.3,0.5-2c0-1-1.7-2.2-1.7-1.1
			C34.7,21,35.8,20.8,35.8,22.3z"/>
		<path fill="#485E73" d="M36.5,23.1c0.7-1.4,1.7-0.7,2.6-1.5c0-0.2-0.1-0.3-0.1-0.5c-1.4,0.6-1-1.6-1.9-0.1
			C35.6,20.9,36.4,22.3,36.5,23.1z"/>
		<path fill="#485E73" d="M46.5,17.9c0.4,0.8,0,2.9,1.4,2.2c0,0.2,0.1,0.3,0.1,0.5c0.2,0,0.3-0.1,0.5-0.1c-0.3-0.9,0.4-1,0.6-1.6
			c0-0.2-0.1-0.3-0.1-0.5C47.6,19,47.8,17.3,46.5,17.9z"/>
		<path fill="#BAD4E4" d="M32.5,24.9c-0.1-0.3-0.2-0.5-0.6-0.4c-0.7-0.3,0-0.8-1.2-1.2c-1,0.1-0.5-2-1.8-1.6c0,0.2,0.1,0.3,0.1,0.5
			c-1.2,0.4-1.4,1.5-2.5,1.9c0,0.2,0.1,0.3,0.1,0.5c0.6-0.1,1.2-0.2,1.8-0.3c0-0.2-0.1-0.3-0.1-0.5c-0.3,0.1-0.6-0.3-0.1-0.5
			c0.6,0.9,1.6,1.3,2.3,2c1.1,0,0.9,2,1.9,2.1c0-0.2-0.1-0.3-0.1-0.5C33.5,26,31.3,25.6,32.5,24.9z"/>
		<path fill="#E9F5F1" d="M39.1,21.7c-0.9,0.7-1.9,0.1-2.6,1.5c-0.5,0.1-0.5-0.5-0.7-0.8c-1.3-0.9-2.9-1.6-2.7,1
			c0.6-0.1,0.5-0.7,1.3-0.7c0.1,0.3,0.1,0.6,0.2,0.9c0.1,0.6,0.7,0.5,0.8,1.3c0.2,0,0.3-0.1,0.5-0.1c-0.6-1.5,0.8-0.9,1.3-0.7
			c0.8-0.7,2.2-0.5,3-2C40,21.5,39.5,21.7,39.1,21.7z"/>
		<path fill="#1A4073" d="M49.9,27.5c-0.4-0.6-1-1-1.7-1.1c-0.5,0.2-0.1,1-0.7,1.1c1.5-0.7,1.2,3.9,2,5c0.2,0,0.3-0.1,0.5-0.1
			C51.1,31.4,47.3,26.7,49.9,27.5z"/>
		<path fill="#325F96" d="M49.8,34.3c0.3-1.3,1.6,1.2,2.6,1c0.6-0.3,0.1-1.2,0.1-2c-0.4,0-0.4,0.3-0.4,0.6c-1.3,0.2,0.8-1.5-1.1-0.8
			c0,0.7-0.9,0.5-1.4,0.3c0.1,0.9-2,0.3-1.7-1.1c-1.5,1.2-1-0.4-1.8-1.6c-0.5,1.8-1.1,0.2-2.4,0C43,31,45,32.3,46,32.1
			c0.1,0.5,0.2,0.9,0.3,1.4C47.3,32.1,48.3,34.5,49.8,34.3z"/>
		<path fill="#8FB1CE" d="M48.4,20.4c1.2-0.2,1,1.7,2.2,1.5c0.2-0.4,0.3-0.8,0.2-1.5c-0.4-0.2-0.9-0.3-1.5-0.2
			c-0.2-0.7,1.6-1.8-0.3-1.4C48.9,19.4,48.1,19.6,48.4,20.4z"/>
		<path fill="#8FB1CE" d="M5.7,34.2c-0.2,1.6,1,1,1.3,1.7c0.2,0,0.3-0.1,0.5-0.1c0-0.7,0.6-0.9,0.6-1.6c-0.5,0-1.3-0.6-0.7-0.8
			c-0.6-0.5-0.9-1.6-1-2.7c0.2,0,0.3-0.1,0.5-0.1c0.8-0.5,3-4.3,1.4-2.7C8.1,28,7.9,28,7.7,28c-0.3,0.8-0.4,1.6-1.6,1.7
			c-0.2,1.1-0.3,2.3-1,3.1c-0.1,1.4,0,2.9,0.1,4.3C6.1,35.8,5.1,35.6,5.7,34.2z"/>
		<path fill="#E9F5F1" d="M13.9,27.8c1-0.5,2-1.1,2.5,0.5c1.9-1-0.8-1.4-1.4-2.2c0,0.3,0,0.6-0.4,0.6c-0.2-0.3-0.2-0.9-0.7-0.8
			c-0.2,0-0.3,0.1-0.5,0.1c0,0.2,0.1,0.3,0.1,0.5C13.8,26.9,13.9,27.4,13.9,27.8z"/>
		<path fill="#658CB2" d="M13.7,26.4c0-0.2-0.1-0.3-0.1-0.5c-1.1,0.2-1.5-0.6-2.9,0c1.6,0.5,0.5,0.9-0.1,2c0,0.2,0.1,0.3,0.1,0.5
			c0.5-0.8,2.1-0.7,2.6-1.5C13.3,26.7,13.2,26.4,13.7,26.4z"/>
		<path fill="#778A97" d="M19.6,27.3c-0.4-1.2,0.7-1.4,1.6-1.7c-0.3-1.6-2.9,0.2-3.2-1.4c-0.3,0.1-0.6,0.1-0.9,0.2
			c-2.7,1.2,1,0.8,0,2.4c0.7,0,1.7-0.5,1.9,0.1c-0.6,0.4-1,0.9-1.1,1.7c0.5-0.1,0.9-0.2,1.4-0.3C20.2,28,18.9,27.6,19.6,27.3z"/>
		<path fill="#485E73" d="M22.3,24.3c0,1.5,1.7,0.3,1.4,2.2c0.2,0,0.3-0.1,0.5-0.1c0-0.4,0.3-0.6,0.8-0.6c-0.2-0.5-0.1-0.9,0.3-1
			c-0.2-0.5-0.9-0.2-1.5-0.2c0.2-0.4,0.5-1.4-0.3-1.4C23.1,23.5,23.3,24.3,22.3,24.3z"/>
		<path fill="#5B7690" d="M6.2,29.8c-0.9,0.1,0-1.8,0-2.4c-0.1,0-0.1,0-0.2,0c-0.4,1.8-0.7,3.7-0.8,5.6C5.9,32.1,6,30.9,6.2,29.8z"
			/>
		<path fill="#1A4073" d="M13.6,28.4c-0.8,0,0-0.6-0.3-1.4c-0.5,0.8-2.1,0.7-2.6,1.5c-0.2,1.4,1.4,3.1,1.8,1.6
			c-0.6,0.1-0.9-1.2-0.3-1.4c0.1,0.5,0.5,0.5,0.7,0.8c0.2,0,0.3-0.1,0.5-0.1C13.2,28.9,13.6,28.8,13.6,28.4z"/>
		<path fill="#8DA2B0" d="M14.7,26.7c0.4,0,0.4-0.3,0.4-0.6c0.6,0.7,3.3,1.1,1.4,2.2c0,0.2,0.1,0.3,0.1,0.5c0,0.2,0.1,0.3,0.1,0.5
			c1.3-0.7,1,0.9,1.3,1.7c0.2,0,0.3-0.1,0.5-0.1c0-0.6,0.6-0.6,1.3-0.7c0.1,0.3,0.1,0.6,0.2,0.9c0.5-0.1,0.6,0.3,1,0.3
			c0.3-1.3-0.5-1.4,0.1-2c-0.6-1.3-0.9,0.6-1.8,0.3c-0.2-0.6,0-1.1,0.2-1.5c-0.5,0.1-0.9,0.2-1.4,0.3c0.1-0.7,0.5-1.3,1.1-1.7
			c-0.3-0.6-1.2-0.2-1.9-0.1c1-1.6-2.7-1.2,0-2.4c-0.3-0.8,0.2-0.9,0.7-1.1c-0.6-0.3-0.5-1.7-1.7-1.1c-0.2,0-0.3,0.1-0.5,0.1
			c-0.1,0.7-0.5,1.3-1.1,1.7c-0.3,0.2-0.9,0.2-0.8,0.6c2.3-0.2-0.5,0.3,0.3,1.4C14.5,25.8,14.5,26.4,14.7,26.7z"/>
		<path fill="#325F96" d="M8.1,31.8c1-1.1,0-1,1-2.1c-0.7-1.4-1.1,0.8-1.8,0.8c0,0.5-0.4,0.3-0.5,0.1c-0.2,0-0.3,0.1-0.5,0.1
			c0.2,1.2,0.4,2.3,1,2.7c0.2,0,0.3-0.1,0.5-0.1C7.7,32.7,7.9,32.3,8.1,31.8z"/>
		<path fill="#AFBFC5" d="M27.5,25.8c0.4,0,0.9-0.2,1,0.3c-1.5,0.3,0.1,1.4-0.9,2.6c0.6-0.1,1.1,0,1.5,0.2c0.5-0.1,0.9,0.5,0.9-0.2
			c-0.7-0.2-1.1-0.8-1.3-1.7c0.6-0.1,0.8,0.5,1.5,0.2c-0.1-0.9,0-1.6,0.5-2c-0.7-0.7-1.7-1.1-2.3-2c-0.5,0.2-0.2,0.5,0.1,0.5
			c0,0.2,0.1,0.3,0.1,0.5c0,0.2,0.1,0.3,0.1,0.5C27.8,24.7,27.5,25.2,27.5,25.8z"/>
		<path fill="#5B7690" d="M35.9,24.7c-0.2,0-0.3,0.1-0.5,0.1c0,0.2,0.1,0.3,0.1,0.5c0.1,0.6-0.5,0.8-0.2,1.5c0,0.4,0.3,0.4,0.6,0.4
			c0.2,0,0.3-0.1,0.5-0.1c-1.2-0.9,0.2-2.2,0.8-3.1C36.7,23.8,35.2,23.2,35.9,24.7z"/>
		<path fill="#1A4073" d="M18.4,30.9c-0.2,0-0.3,0.1-0.5,0.1c-1.4,0.1-3.2-2.4-3.7-1.7c0.2,0.8,0.2,1.5-0.1,2c0.8,0,0.8-0.5,0.7-1.1
			c0.5,0.9,2.7,0.2,0.8,1.3c0.1,0.3,0.2,0.5,0.6,0.4c0.2,0,0.3-0.1,0.5-0.1C17.3,31.5,18.4,31.5,18.4,30.9z"/>
		<path fill="#AFBFC5" d="M24.2,26.4c0.2,0.6,0,1.1-0.2,1.5c1.6-1,1.2,1.1,2.5,0.5c1.1-0.6-0.2-1.4-0.6-0.4
			c-0.1-0.3-0.1-0.6-0.2-0.9c-0.1-0.7-0.2-1.3-0.8-1.3C24.5,25.8,24.2,26,24.2,26.4z"/>
		<path fill="#737576" d="M25.8,27.1c0.1,0.3,0.1,0.6,0.2,0.9c0.4-1,1.6-0.2,0.6,0.4c0.2,0.3,0.5,0.5,1,0.3c1-1.2-0.6-2.3,0.9-2.6
			c-0.1-0.5-0.6-0.3-1-0.3c0.1-0.6,0.4-1.1,1.2-1.2c0-0.2-0.1-0.3-0.1-0.5c-0.6,0.1-1.2,0.2-1.8,0.3C26.2,25.2,27,26.8,25.8,27.1z"
			/>
		<path fill="#8DA2B0" d="M23.7,26.5c-0.6,0-1.2-0.6-1.4,0.3c1.5,0.2-0.8,1-0.6,1.6c1.4-0.4-0.9,1.6,0.7,1.3
			c0.1-0.6,0.3-1.2,0.6-1.6c0.1,0.5,0.2,0.9,0.3,1.4c0.8-0.2,0-1.3,0.6-1.6c0.2-0.4,0.3-0.8,0.2-1.5C24.1,26.4,23.9,26.5,23.7,26.5z
			"/>
		<path fill="#778A97" d="M35.5,25.3c-0.6,0-1.3,0.3-1.5-0.2c-0.7,0.3-0.9-0.3-1.5-0.2c-1.2,0.7,0.9,1.1-0.1,2
			c1.4-0.4,1.9,1.4,2.9,0C35,26,35.6,25.9,35.5,25.3z"/>
		<path fill="#D4D8D0" d="M26.5,28.4c-1.4,0.6-0.9-1.5-2.5-0.5c0.9,1.4,0.1,2.1,1.2,3.7c0.1,0.3,0.1,0.6,0.2,0.9
			c0.3-0.1,0.5-0.2,0.4-0.6c0.4-1.2,1.1-2.2,1.7-3.2C27,28.9,26.7,28.7,26.5,28.4z"/>
		<path fill="#5B7690" d="M22.1,30.2c0.6-0.1,0.5-0.7,1.3-0.7c-0.1-0.5-0.2-0.9-0.3-1.4c-0.4,0.4-0.5,1-0.6,1.6
			c-1.6,0.3,0.7-1.7-0.7-1.3c-0.2-0.6,2.2-1.4,0.6-1.6c-0.9,0.3-1.1-0.3-1.9-0.1c0.1,0.5-0.5,0.5-0.8,0.6c-0.7,0.3,0.6,0.7-0.3,1
			c-0.2,0.4-0.3,0.8-0.2,1.5c1,0.3,1.3-1.7,1.8-0.3c0.1,0.5,0.5,0.5,0.7,0.8C21.8,30.3,22,30.2,22.1,30.2z"/>
		<path fill="#778A97" d="M23.4,29.5c-0.8,0-0.7,0.6-1.3,0.7c0,0.2,0.1,0.3,0.1,0.5c1.2-0.6,1.1,0.8,2,0.6c0.5-0.1,0.6,0.3,1,0.3
			c-1.1-1.5-0.4-2.3-1.2-3.7C23.4,28.1,24.2,29.3,23.4,29.5z"/>
		<path fill="#485E73" d="M30.7,27.6c0.3-0.1,0.5-0.2,0.4-0.6c-0.3,0.1-0.6,0.1-0.9,0.2c-0.7,0.3-0.9-0.3-1.5-0.2
			c0.2,0.9,0.6,1.5,1.3,1.7c-0.1,0.7-0.4,0-0.9,0.2c0,0.2,0.1,0.3,0.1,0.5c0.1,0.5-0.3,0.6-0.3,1c1.7,0,1.1-1.7,2.5-1.9
			c0.5-0.1,0.5,0.5,0.7,0.9c0.4-0.1,0.2-0.6,0.3-1c0-0.2-0.1-0.3-0.1-0.5C31.6,27.9,30.9,28.2,30.7,27.6z"/>
		<path fill="#658CB2" d="M8.1,31.8c-0.2,0.4-0.3,0.9-0.2,1.5c1.6,0.3,1-0.9,1.7-1.3c0.8-0.1,1.1-0.6,1.2-1.2
			C9.2,30.8,9.5,31.9,8.1,31.8z"/>
		<path fill="#485E73" d="M22.1,32.6c-0.2-0.8-0.3-1.6-0.5-2.3c-0.2-0.4-0.6-0.4-0.7-0.8c-0.6,0.5,0.3,0.7-0.1,2
			c-0.4,0-0.6-0.4-1-0.3c0.5,1.4-0.1,2.4-1.1,1.7c0.6,1.8,1.5-0.4,2.6,1c0-0.2-0.1-0.3-0.1-0.5C21.3,32.9,21.6,32.6,22.1,32.6z"/>
		<path fill="#1A4073" d="M46.5,39.2c-0.9,1.3-3.1-0.2-2.6,1.5c0.1,0.3,0.1,0.6,0.2,0.9c1.2-1.5,2.3-0.5,3.4-2.1
			c-0.7,0-0.7-1.1-0.8-1.8c-0.2-0.4-0.6-0.4-0.7-0.8c-0.8,0.1-1.1,0.6-1.2,1.2C44.5,39.9,46.5,38.1,46.5,39.2z"/>
		<path fill="#485E73" d="M36.8,41.1c1.7-0.8,2.9,0.5,3.7-0.7c-0.1-1.3-1.9,0-1.8-1.6c-1,0-1.2,0.5-1.8,0.8
			C37.1,40.2,36.5,40.3,36.8,41.1z"/>
		<path fill="#1A4073" d="M33.7,37.3c0.1,0.6,0.3,1.2,0.4,1.9c0.2,0,0.3-0.1,0.5-0.1c1.2-1.1-2.1-2-0.7-3.3
			c-0.2-1.5-1.1,1.4-1.5-0.2c-0.6,0.4-0.7,1.2-0.5,2C32.9,38.2,32.4,37.5,33.7,37.3z"/>
		<path fill="#1A4073" d="M31.9,40.5c0.2,0,0.3-0.1,0.5-0.1c-0.1-0.3-0.1-0.6-0.2-0.9c0.6-1.1-0.2-0.6-0.4-1.9
			c-1.4,0.6-1.2-1.1-2.5-0.5c0.2,0.6,0,1.1-0.2,1.5C29.8,39.6,32,38.4,31.9,40.5z"/>
		<path fill="#1A4073" d="M28.9,30.4c0.8,1.5-0.3,1.7-1.6,1.7c1.5,1.1-1.2,1.6-0.8,3.1c1.7-0.2,1.2-3.1,2.9-2
			c0.1,0.5-0.5,0.5-0.8,0.6c0.2,0.4,0.6,0.4,0.7,0.9c1.3-0.3,0.4-2.1,1.9-2.3c-1.2-0.8-0.3-1.5,0-2.4c1.2,0.5,0.9,1,0.9,2.3
			c1,0,1.2-0.6,1.8-0.8c-1-0.7-2.3-1-2.5-2.9C29.9,28.7,30.6,30.4,28.9,30.4z"/>
		<path fill="#325F96" d="M47.8,22c0,0.9-1.9,1.2-0.3,3.4c0.8-0.1,0.9-0.8,1.8-0.8c0.4,0.6-1.6,1.5-0.2,1.5c0.1-0.6,2.1-0.3,0.6-1.6
			C47.6,24.6,49,22.8,47.8,22z"/>
		<path fill="#5B7690" d="M49.1,26.1c0,0.2,0.1,0.3,0.1,0.5c1.5-0.2,2.1-1,1.9-2.3c-0.7-0.4-0.8,0-1.4,0.3
			C51.2,25.9,49.2,25.6,49.1,26.1z"/>
		<path fill="#E9F5F1" d="M10.3,33.4c0-0.8-0.6-0.7-0.8-1.3c-0.7,0.3-0.1,1.5-1.7,1.3c-0.2,0-0.3,0.1-0.5,0.1
			c-0.6,0.3,0.1,0.8,0.7,0.8C9.5,34.4,9.1,33.4,10.3,33.4z"/>
		<path fill="#E9F5F1" d="M25.8,31.9c0.8-0.1,0.5,1.3,1.2,1.2c0-0.4-0.2-0.9,0.3-1c0.4-1.1,1-2,1.8-2.8c0-0.2-0.1-0.3-0.1-0.5
			c-0.4-0.2-0.9-0.3-1.5-0.2C26.9,29.7,24.7,29.4,25.8,31.9z"/>
		<path fill="#8FB1CE" d="M37.4,29.8c1.9-1.1,0-2.3,1.2-3.6c-0.4-0.6-1-1-1.7-1.1c-0.6,0.5,0.3,0.7-0.1,2c-0.2,0-0.3,0.1-0.5,0.1
			c-0.2,0-0.3,0.1-0.5,0.1C36,28.7,37.5,27.9,37.4,29.8z"/>
		<path fill="#8FB1CE" d="M38.8,27.1c0.4,0,0.6,0.3,0.7,0.9c0.6,0.1,1.1,0.4,1.2,1.2c0.5-0.1,0.9-0.2,1.4-0.3
			C41.7,27.4,39.1,26.4,38.8,27.1z"/>
		<path fill="#BAD4E4" d="M18.8,32.8c1,0.7,1.6-0.2,1.1-1.7c-0.1-0.3-0.1-0.6-0.2-0.9c-0.7,0.1-1.3,0.2-1.3,0.7
			c0,0.7-1.1,0.6-1.8,0.8c0.2,0.5,0.7,0.6,1.1,0.8C17.8,31.6,18.3,32.6,18.8,32.8z"/>
		<path fill="#8FB1CE" d="M53.8,25.7c0.1,0.5,0.2,0.9,0.3,1.4c1.9-0.2,1.7-0.9,3.2-0.6c-1.1-0.6-1.4-2.5-2.5-2.9
			C54.5,24.3,54.8,25.4,53.8,25.7z"/>
		<path fill="#1A4073" d="M53.8,30.1c-0.2-0.9,1.1-0.8,0.5-2c-1.2,0.6-1.1-0.8-2-0.6C52.9,28.2,52.9,29.8,53.8,30.1z"/>
		<path fill="#325F96" d="M56.2,32.6c-0.7,0-0.6-1.1-0.8-1.8c-0.2,0.9-0.9,1.5-0.9,2.6C54.4,34.2,56.2,33,56.2,32.6z"/>
		<path fill="#325F96" d="M5.3,37.2C5.3,37.2,5.3,37.2,5.3,37.2C5.3,37.2,5.3,37.2,5.3,37.2C5.3,37.2,5.3,37.2,5.3,37.2z"/>
		<path fill="#325F96" d="M7.1,36.4C7,36.2,7,36.1,7,35.9c-0.3-0.7-1.5-0.1-1.3-1.7c-0.6,1.4,0.4,1.6-0.3,3c0,0,0,0,0,0.1
			c0.1,0.3,0.1,0.6,0.2,0.9C7,37.6,4.9,35.6,7.1,36.4z"/>
		<path fill="#485E73" d="M22.2,30.7c0.2,0.8,0.3,1.6,0.5,2.3c0.6-0.1,1.1,0,1.5,0.2c0-0.2-0.1-0.3-0.1-0.5
			c-0.1-0.6,0.5-0.8,0.2-1.5C23.3,31.4,23.4,30.1,22.2,30.7z"/>
		<path fill="#E9F5F1" d="M10.5,34.3c-0.7,0.1-1.3,0.2-1.3,0.7c0,1.5,0.8,1.6,1,2.7c0.2,0,0.3-0.1,0.5-0.1c1.9,0.3,0.8-1.6,2-1.8
			C12.1,35.1,10.9,35.4,10.5,34.3z"/>
		<path fill="#658CB2" d="M15.6,31.4c-1.2,0.1-1.4,0.9-1,2.1c-1.5,0.5-2.1-0.1-4.2,0.8c0.4,1.1,1.6,0.8,2.2,1.5
			c1.2-1.3,3.5-1.9,3.5-4C15.8,31.9,15.7,31.7,15.6,31.4z"/>
		<path fill="#8DA2B0" d="M24.1,32.7c0,0.2,0.1,0.3,0.1,0.5c-0.4-0.2-0.9-0.3-1.5-0.2c-0.2-0.8-0.3-1.6-0.5-2.3
			c0-0.2-0.1-0.3-0.1-0.5c-0.2,0-0.3,0.1-0.5,0.1c0.2,0.8,0.3,1.6,0.5,2.3c-0.6,0-0.8,0.3-0.8,0.6c1.3-0.4,1.6,0.8,3,0.4
			C24.2,33,26,32.4,24.1,32.7z"/>
		<path fill="#778A97" d="M27.3,32.1c1.2-0.1,2.3-0.3,1.6-1.7c0-0.4,0.4-0.6,0.3-1C28.3,30.1,27.7,31.1,27.3,32.1z"/>
		<path fill="#658CB2" d="M8.2,37.2c0-0.6-0.3-1.3,0.2-1.5C8,35,8,35.8,7.4,35.8c0.1,0.5,0.2,0.9,0.3,1.4c0.3,1.2,1,1.7,2.2,1.5
			C9.3,37.5,8.9,37.2,8.2,37.2z"/>
		<path fill="#AFBFC5" d="M24.3,31.3c0.3,0.7-0.3,0.9-0.2,1.5c1.9-0.3,0.2,0.3,0.2,0.9c0.3,0.6,1.1,0.3,1.6,0.7
			c-0.1-0.6-0.3-1.2-0.4-1.9c-0.1-0.3-0.1-0.6-0.2-0.9C24.9,31.5,24.7,31.2,24.3,31.3z"/>
		<path fill="#959393" d="M27.3,32.1c-0.4,0.1-0.2,0.6-0.3,1c-0.7,0-0.5-1.4-1.2-1.2c0.2,0.4-0.1,0.5-0.4,0.6
			c0.1,0.6,0.3,1.3,0.4,1.9c-0.5-0.3-1.3,0-1.6-0.7c-1.3,0.4-1.6-0.8-3-0.4c0,0.2,0.1,0.3,0.1,0.5c-1-1.4-2,0.9-2.6-1
			c-0.5-0.2-1-1.2-1-0.3c0.2,0.7,0.1,1.8,0.8,1.8c0.1-0.9,0.5,0.1,1,0.3c1.4-0.3,2.6-0.3,3.4,0.3c-1.3,0.8,1,1.7,0,2.4
			c2,0.9-0.7-1.1,1.7-1.3c1.1,1,0,2.4,1.6,3.1c0.2,0,0.3-0.1,0.5-0.1c-0.1-0.5-0.5-0.5-0.7-0.8c-0.1-0.6,0.7-0.6,0.7-1.1
			c-0.4,0-0.6-0.3-0.7-0.9c0.6-0.1,1.2-0.2,1.8-0.3c0.2,0,0.3-0.1,0.5-0.1c0.4,0,0.6,0.4,1,0.3c-0.3-0.6-1-0.6-1.2-1.2
			c-1-0.3-1.3,1.7-1.9,0.3C26.1,33.7,28.8,33.2,27.3,32.1z"/>
		<path fill="#1D2655" d="M60.5,30.3c-0.4-0.2-0.9-0.3-1.5-0.2c2.4,1.4,1.5,4.8,2.6,5.8c0.3-2.2-0.7-7.5-1.9-9.4
			C58.9,27.9,60.5,28.6,60.5,30.3z"/>
		<path fill="#325F96" d="M57.3,45c-0.3,0.1-0.5,0.2-0.4,0.6c1.6-0.8,1.2,1.4,2.2,1.5c0-0.4-0.2-0.9,0.3-1c0-0.2-0.1-0.3-0.1-0.5
			C58,46,60.3,44,58.6,44.3c0,0.2,0.1,0.3,0.1,0.5C58.7,45.5,57.8,45.3,57.3,45z"/>
		<path fill="#BAD4E4" d="M10.7,37.7c-0.2,0-0.3,0.1-0.5,0.1c-0.2-1.1-1.1-1.2-1-2.7c-0.4,0.2-0.4,0.6-0.8,0.6
			c-0.5,0.2-0.2,0.9-0.2,1.5c0.7,0,1.1,0.3,1.8,1.6c0.7,0,0.9,0.6,1.6,0.7C11.5,38.4,11,38.3,10.7,37.7z"/>
		<path fill="#D4D8D0" d="M27.5,37.9c-0.3,0-0.6,0-0.6-0.4c1.3,0.1,0.7-1.1,1.1-1.7c-0.6,0.1-1.2,0.2-1.8,0.3c0,0.6,0.3,0.8,0.7,0.9
			c0,0.5-0.9,0.5-0.7,1.1C26.9,37.9,27.5,38.7,27.5,37.9z"/>
		<path fill="#C0B4AA" d="M24.8,36c-2.4,0.2,0.4,2.2-1.7,1.3c0,0.3,0,0.6-0.4,0.6c0.1,0.3,0.5,0.5,0.5-0.1c2-0.1,3,1.8-0.1,2
			c0,0.4,0.3,0.4,0.6,0.4c0.5-0.1,0.6,0.3,1,0.3c-0.1-0.9,1.5-0.6,1.7-1.3C24.7,38.4,25.8,37.1,24.8,36z"/>
		<path fill="#737576" d="M20.5,36.3c-0.1-2.5,1.5,1.3,2.2,1.5c0.4,0,0.4-0.3,0.4-0.6c1-0.8-1.3-1.6,0-2.4c-0.8-0.6-2-0.6-3.4-0.3
			C19.9,35.2,19.8,36.3,20.5,36.3z"/>
		<path fill="#AFBFC5" d="M23.2,37.8c0,0.5-0.4,0.3-0.5,0.1c-0.7-0.2-2.3-4.1-2.2-1.5c-0.7,0-0.6-1.1-0.8-1.8c-0.5-0.2-1-1.2-1-0.3
			c0.1,0.3,0.1,0.6,0.2,0.9c-1.6,0.5-2.2,1.7-4.4,1.8c0.1,0.6,0.9,0.3,1.1,0.8c0.6,0,0.8-0.3,0.8-0.6c0.9,0.2,0.2,0.8,0.3,1.4
			c2.3-0.1,2.2-0.3,4.6-0.9c0.6,1.1,0.4,1.5,1.9,2.1C26.2,39.6,25.1,37.7,23.2,37.8z"/>
		<path fill="#325F96" d="M5.7,39.7c-0.1-0.3-0.1-0.6-0.2-0.9C5.5,38.9,5.5,39.2,5.7,39.7z"/>
		<path fill="#325F96" d="M6.5,42.8c0.1,0.7,0.5,1.8,0.7,0.9c0.2-1.6-0.2-1.1-0.6-2.8c0.8,0,0.7-0.6,1.3-0.7
			c0.1-0.6,0.4-1.1,1.2-1.2c-0.1,1.3,1.1,0.7,1.7,1.1c0,0.4-1.2,1.7-1.3,0.7c-1.1,1,1.4,1.6,1.5,2.6c1.6-0.1-0.9,2,1.2,1.2
			c0.3-0.2,0.5-0.5,0.3-1c-0.7-0.6-0.7-1,0.2-1.5c-0.1-0.5,0.3-0.6,0.3-1c-1.8-0.6-1-1.3-1.3-1.7c-0.6-0.1-0.9-0.7-1.6-0.7
			c-1.2,0.2-1.9-0.3-2.2-1.5c-0.8,0.4-1,1.2-2.1,1.4c0,0-0.1,0.1-0.1,0.1c0,0.3,0.1,0.6,0.2,0.9C6,40.6,6.5,41.8,6.5,42.8z"/>
		<path fill="#1A4073" d="M17.1,40.8c0,0.3,0,0.6-0.4,0.6c0.7,0.7,2.5-0.1,3.4,0.3C19.9,40.3,18.5,40.6,17.1,40.8z"/>
		<path fill="#737576" d="M27,37.5c0,0.4,0.3,0.4,0.6,0.4c-0.1,0.7-0.6-0.1-1.4,0.3c0.2,0.4,0.6,0.4,0.7,0.8c0.5,1,0.6-0.7,1.5,0.2
			c0.7-1-0.9-1.3,0.5-2c-0.1-0.5-0.2-0.9-0.3-1.4c-0.2,0-0.3,0.1-0.5,0.1C27.7,36.4,28.3,37.6,27,37.5z"/>
		<path fill="#325F96" d="M17.1,40.8c-0.3-1-2,0.2-2.9,0.1c-0.2,1.7,1.6,0.5,2.5,0.5C17.2,41.4,17.1,41.1,17.1,40.8z"/>
		<path fill="#1D2655" d="M32.2,39.5c0.6-0.1,1.2-0.2,1.8-0.3c-0.1-0.6-0.3-1.3-0.4-1.9c-1.3,0.2-0.8,0.9-1.8,0.3
			C32,38.9,32.8,38.4,32.2,39.5z"/>
		<path fill="#8FB1CE" d="M53,38c-0.4-2.2-2.3-2.2-3.2-3.8c-1.5,0.2-2.5-2.1-3.5-0.8c2,1.9,5,2.3,6.3,5.1C52.9,38.5,53.2,38.4,53,38
			z"/>
		<path fill="#E9F5F1" d="M47.1,56.1c-1.5,0.1-3.1,0.2-3.6-1.3c-1.5-1,0.8-0.8,0.5-2c-1.6-0.5-1.5,2.1-2.2,0.9
			c0.3-0.9,0.5-1.8,2-1.8c0-0.2-0.1-0.3-0.1-0.5c-0.5-0.3-2.2-1.9-2.5-0.5c1.1,0.2-0.3,1.9-1,2.1c0,0.7-0.9,0.7-1.2,1.2
			c0.1-2.1-5.8-2.2-1.6-3.1c-2.9,0.1-3.7-1.2-0.8-1.8c0-0.2-0.1-0.3-0.1-0.5c-1-0.5-3.1,0.6-3.9-0.2c2.2-0.2,2.9-1.5,4.9-1.9
			c-0.4-2.1,1.9,0.2,2.9-0.1c0.3-0.1,0.5-0.2,0.4-0.6c-0.1-0.6-0.4-1-0.8-1.3c-2.2,2-2-3,0.4-2.5c0.9-0.9-0.8-1,0.2-1.5
			c0-0.2-0.1-0.3-0.1-0.5c-0.8,1.2-2-0.1-3.7,0.7c-0.3-0.7,0.3-0.9,0.2-1.5c0-0.4-0.3-0.4-0.6-0.4c-0.9,1.6-3-0.1-4.1,1.2
			c-0.2,0-0.3,0.1-0.5,0.1c-0.6,0.1-1.1,0-1.5-0.2c-0.5,0.1-0.9,0.2-1.4,0.3c-0.3-0.6-0.7-0.7-0.3-1.4c-0.2,0-0.3,0.1-0.5,0.1
			c-0.9-0.9-1,0.8-1.5-0.2c-0.2,0-0.3,0.1-0.5,0.1c-0.1,0.7-1.8,0.4-1.7,1.3c0.3,0.6,0.7,0.7,0.3,1.4c0.2,0.9,1.6,0,1.7,1.1
			c0.5-0.1,0.9-0.2,1.4-0.3c1.1-0.3,1.6,0.4,2.1,1.1c1.4-0.4,2.6,2.2,1,2.7c-1.4,0.3-3.3-1.7-3.7,0.7c1.7-0.8,0.8,2.4,2,2.5
			c-0.5,0.1-0.9-0.5-0.9,0.2c0.6,0.8-1.1,1.8,0.4,1.9c0.2-1.7,1.2-1.1,2-1.8c-1,1.6,1.4,1.5,2,2.5c0.4-1.7-2.6-1.4-1-2.7
			c0.8,1.6,1.7-0.4,2.5,0.5c-0.9,1.7-1.3,3.7-3.4,4.5c-1.1,0.3-2.2,0.5-2.9,0c-1.7,0.3-1.1-2.3-1.9-0.1c-1.2-1.5-0.5-2.8-1.3-4.1
			c-0.1-1.2-0.6-2-1.8-1.6c0.2,0.3,1.5,1.6,0.4,1.9c-0.1-1.5-1.5-1-1.9-2.1c-0.7-0.4-1.6-0.5-2.1-1.1c-0.4,0-0.9,0.2-1-0.3
			c-1.2,0.2-2.6,0.7-3.3,0.1c-0.9,0.9,0.8,1-0.2,1.5c0.1,0.5,0.5,0.5,0.7,0.8c0.7-2.2,4.3-1.2,5.3,0c0.8,0.3,1.6,0.4,1.8,1.6
			c1.1,0.8-0.3,1.9,0.1,2.9c0.6,0.1,1.4,0.4,2.2,1.5c0.3-0.1,0.6-0.1,0.9-0.2c0.5-0.9,2-0.3,2.5,0.5c-0.6,1.4-3,1.7-4.2,2.7
			c1.1-1.6-1.5-0.9-1.9-2.1c-0.2-0.6,0-1.1,0.2-1.5c-0.1-0.3-0.1-0.6-0.2-0.9c-1.3-0.1-2-1-3.2-1.4c-0.5,0.1-0.6-0.3-1-0.3
			c-0.1,0.9,1.1,2.6,0.1,2.9c-1-0.5-1.9-5-2.4-2.5c0.1,0.5,0.2,0.9,0.3,1.4c0.1,0.5,0.2,0.9,0.3,1.4c1.5,0.4,3,0.8,4.2,1.6
			c2.2,0.5,1,4.9,3.1,3.3c-0.1-0.7-1.5-0.3-0.7-0.9c1.9,0.4,3.5,2.2,4.8,0.1c0.8,1.2,1.7,2.3,3,2.8c0.2,0,0.3-0.1,0.5-0.1
			c-1.4-1.1-1.4-2.6-0.9-4.2c-0.9,0-0.8,0.8-1.2,1.2c-0.1-0.6-0.4-1-0.8-1.3c1.7,0.3,1.7-2.5,3.1-1.1c-2,1.2,1.9,4.6,1.2,5.6
			c0.1,0.3,0.2,0.5,0.6,0.4C40.9,62.8,48.3,57.5,47.1,56.1z M33.6,55.7c-0.5-1.5,0.7-2,0.8-3.1c1-0.4,0.8,0.8,1.6,0.7
			C34.9,54,35.5,55.7,33.6,55.7z M37.3,57.5c1.4-0.7,2.3-3.2,3.8-2.6C40.5,56.1,39.6,57.3,37.3,57.5z"/>
		<path fill="#D4D8D0" d="M30.1,52.5c0,0.3,0,0.6-0.4,0.6c0.3,1.2,2.3,0.3,1.3,1.7c2.1-0.8,2.5-2.8,3.4-4.5
			c-0.8-0.9-1.7,1.1-2.5-0.5c-1.5,1.4,1.4,1,1,2.7c-0.6-1-3-1-2-2.5c-0.9,0.7-1.8,0.1-2,1.8C29.5,51.7,29.8,52.1,30.1,52.5z"/>
		<path fill="#1A4073" d="M13.7,45.4c0.1,0.5,0.9,0.4,0.9-0.2c-0.3,0-0.6,0-0.6-0.4c0.2,0,0.3-0.1,0.5-0.1c0.6-0.1,1.2-0.2,1.8-0.3
			c-0.8-1.1-2.2-1.2-2.9-2.4c0.7,1.5-0.8,0.9-0.9,0.2c-0.9,0.4-0.8,0.9-0.2,1.5C13.9,42.3,12.6,44.7,13.7,45.4z"/>
		<path fill="#1A4073" d="M22.3,42.8c-0.3,0-0.6,0-0.6-0.4c0.5-0.2,1.3-0.2,1.3-0.7c-0.6,0-1.3,0.3-1.5-0.2
			c-0.2-0.5-0.5-0.2-0.5,0.1c0.1,0.5-0.3,0.6-0.3,1c0.1,0.5-0.3,0.6-0.3,1C21.2,43.4,22.3,43.4,22.3,42.8z"/>
		<path fill="#778A97" d="M28.3,39.2c0.2,0,0.3-0.1,0.5-0.1c-0.4,0.7,0,0.8,0.3,1.4c0.5-0.1,0.9-0.2,1.4-0.3c0-0.2-0.1-0.3-0.1-0.5
			c-0.8,0.2-1.2-0.3-1.2-1.2c0.2-0.4,0.3-0.8,0.2-1.5c-0.2,0-0.3,0.1-0.5,0.1C27.4,37.9,29,38.3,28.3,39.2z"/>
		<path fill="#5B7690" d="M29.1,38.6c0,1,0.4,1.4,1.2,1.2c0,0.2,0.1,0.3,0.1,0.5c0.4,0.2,0.9,0.3,1.5,0.2
			C32,38.4,29.8,39.6,29.1,38.6z"/>
		<path fill="#8DA2B0" d="M21.6,41.5c0.2,0.5,0.9,0.2,1.5,0.2c0.7,0,1,0.5,1.9,0.1c0.4-0.7,0-0.8-0.3-1.4c-0.4,0-0.6-0.4-1-0.3
			C23.4,40.9,22.7,41.3,21.6,41.5z"/>
		<path fill="#AFBFC5" d="M8,45.5c0.1,1.7,0.9,2.3,2,2.5c0.9-1.6-1.4-3.3,0.2-3.9c-0.9-0.6-1.7,0.5-3-0.4c-0.2,0.9-0.6-0.2-0.7-0.9
			c0,0,0,0,0,0c0.3,1,0.7,2.1,1.1,3C7.6,45.7,7.8,45.6,8,45.5z"/>
		<path fill="#E9F5F1" d="M9.6,48.6c0.7,1,1.8,1.4,2.1,3c1.1,1.4,1.2,4.4,3.3,4.2c-0.4-1.1,0.6-1.2,0-2.4c-0.1-0.5-0.2-0.9-0.3-1.4
			c-0.1-0.3-0.1-0.6-0.2-0.9c0-0.2-0.1-0.3-0.1-0.5c-1.9,1-1.6-1.3-2-2.6c0-0.2-0.1-0.3-0.1-0.5c0.1-2.4-1.8-1.7-2.2-3.5
			c-1.6,0.6,0.7,2.3-0.2,3.9c-1.1-0.2-1.9-0.8-2-2.5c-0.2,0.1-0.4,0.3-0.5,0.4c0.6,1.5,1.4,3,2.2,4.4C10.2,49.5,8.7,48.8,9.6,48.6z"
			/>
		<path fill="#BAD4E4" d="M16.1,54.6c-0.1-0.5-0.2-0.9-0.3-1.4c-0.3,0.1-0.6,0.1-0.9,0.2c0.7,1.3-0.4,1.3,0,2.4
			c0.2,0.9,0.6,1.5,1.3,1.7c-0.1-0.3-0.1-0.6-0.2-0.9C15.2,56.9,14.7,54.1,16.1,54.6z"/>
		<path fill="#E9F5F1" d="M13.5,42c0.7,1.2,2.1,1.3,2.9,2.4c0.6,0.2,2.5,1.4,2.9,0c-0.4,0-0.9,0.2-1-0.3c2,0.3,0.6-1.7,2.6-1.5
			c0-0.4,0.4-0.5,0.3-1c-0.3,0.1-0.6,0.1-0.9,0.2c-0.9-0.4-2.7,0.4-3.4-0.3c-0.9,0-2.7,1.2-2.5-0.5c-0.7-0.4-0.8,0-1.4,0.3
			c0,0.4-0.4,0.5-0.3,1C12.7,42.9,14.2,43.5,13.5,42z"/>
		<path fill="#325F96" d="M44,40.7c-0.5-1.7,1.7-0.2,2.6-1.5c0-1.2-2,0.6-1.7-1.1c-1,0.3-1.8,0.2-2-0.6c-0.7,0.3-0.1,1.5-1.7,1.3
			c1.7,0.2,0.7,1.1,2.1,1.1c0,0.2,0.1,0.3,0.1,0.5c0,0.2,0.1,0.3,0.1,0.5C43.6,40.8,43.8,40.7,44,40.7z"/>
		<path fill="#485E73" d="M20.6,46c1.1-0.8-0.9-2.2,0-2.4c0-0.4,0.4-0.6,0.3-1c-2-0.3-0.6,1.7-2.6,1.5c0.1,0.5,0.6,0.3,1,0.3
			c-0.4,1.5-2.3,0.3-2.9,0c-0.1,1.6,3,1.5,2,2.5c0,0.2,0.1,0.3,0.1,0.5c0.1,0.5,0.6,0.3,1,0.3C18.3,47.1,19.6,45.2,20.6,46z"/>
		<path fill="#5B7690" d="M27.4,44.3c-1.7-0.1-1.8,1.2-2.8,0.5c-1,0.5,0.4,2.7,0.3,3.8c0.6-0.7,0.3-1.9,0.9-2.6c0.4,0,0.6,0.4,1,0.3
			C26,44.9,27.4,45,27.4,44.3z"/>
		<path fill="#485E73" d="M30,45.2c1.6-0.4-1.3-1.4,0.2-1.5c-0.5-0.6-1-1.4-2.1-1.1c0.1,0.3,0.1,0.6,0.2,0.9
			C28.6,44.5,28.8,45.6,30,45.2z"/>
		<path fill="#1A4073" d="M40.5,42.3c1.8-0.4,0,0.7,1.2,1.2c-1.1,0.1-1.7,0.4-1.7,1.3c1.4-0.3,2.1,0.5,2.7,1.4
			c0.8-0.2,1.5-0.6,1.7-1.3c-0.7,0.1-1.7,0.5-1.9-0.1c1.2-0.1,1.3-1,1.6-1.7c-0.2,0-0.3,0.1-0.5,0.1c-0.6,0-1.3,0.3-1.5-0.2
			c-1.3-1.2,1.6-0.9,1.5-2.2c0-0.2-0.1-0.3-0.1-0.5c-0.8,0-2,1.7-2.8,0.5C39.6,41.3,41.3,41.5,40.5,42.3z"/>
		<path fill="#1D2655" d="M59.5,41.7c1,1.3,1.1,3.1-0.2,3.9c0,0.2,0.1,0.3,0.1,0.5c0.4,1.3-0.7,1.6-0.3,3c2.1-3.3,2.6-7.6,2.8-12.2
			C59.1,37.1,62.5,41.6,59.5,41.7z"/>
		<path fill="#1A4073" d="M59.5,46.1c-0.4,0.1-0.2,0.6-0.3,1c-1-0.1-0.6-2.3-2.2-1.5c-0.5,0.1-0.6-0.3-1-0.3c0,0.4,0.2,0.9-0.3,1
			c0.2,0.6,0,1.1-0.2,1.5c0.4,1.6-1.4,0.9-1.3,3.2c1.6,0.5,1.9,0.1,3,0.4c-0.8,1.8-2.5,4.1-3.4,4.5c1.4,0-0.6,0.9-0.2,1.5
			c0.2,0,0.3-0.1,0.5-0.1c1.6-2.7,3.2-5.3,5.1-7.8c0-0.2-0.1-0.3-0.1-0.5C58.7,47.7,59.9,47.4,59.5,46.1z"/>
		<path fill="#5B7690" d="M14.5,44.7c-0.2,0-0.3,0.1-0.5,0.1c0,0.4,0.3,0.4,0.6,0.4c0,0.6-0.8,0.6-0.9,0.2c-0.5,0.2-0.6,0.7-0.7,1.1
			c2-1-0.4,2.1,1.4,2.2c-0.1-0.6,0.5-0.8,0.2-1.5C14.8,46.2,15.7,45.5,14.5,44.7z"/>
		<path fill="#8DA2B0" d="M16.4,44.4c-0.6,0.1-1.2,0.2-1.8,0.3c1.2,0.8,0.3,1.5,0,2.4c2.1,0,1.9-0.4,3.8-0.2
			C19.4,45.9,16.3,46,16.4,44.4z"/>
		<path fill="#AFBFC5" d="M52.6,38.6c0.2,0.4,0.6,0.4,0.7,0.9c0.7,0.8,1.8,2.8,1.2,3.7c0,0.6,0.7,2.9,0.8,1.3c0-1.2,0.2-2.3-0.3-3.8
			c0-0.2-0.1-0.3-0.1-0.5c-0.3-1.2-1.2-1.5-1.9-2.1C53.2,38.4,52.9,38.5,52.6,38.6z"/>
		<path fill="#5B7690" d="M47.6,39.5c-1.1,1.5-2.2,0.6-3.4,2.1c0,0.2,0.1,0.3,0.1,0.5c-0.6,0.2-1.3,0.3-1.5-0.2
			c-0.7,0.3,0.6,0.7-0.3,1c-0.2,0-0.3,0.1-0.5,0.1c0.2,0.5,0.9,0.2,1.5,0.2c0-0.4,0.3-0.6,0.8-0.6c0.1,0.6,0.4,1,0.8,1.3
			c0.9-0.1,0.9-0.7,1.8-0.8c0.7,0.1,2.3-1,2.4,0c0.1,0.6-0.5,0.8-0.2,1.5c0.8-0.1,1.1-0.6,1.2-1.2c0.4-0.7,0.2-1-0.7-0.8
			c0.2-0.4,0.5-1.4-0.3-1.4c0,0.4-1.7,0.7-1.8,0.3c-0.1-0.3-0.1-0.6-0.2-0.9c1.4,1,0.4-1.4,1.8-0.3c-1.3-1-1.2-2.4-2.4-2.5
			C46.9,38.5,46.9,39.6,47.6,39.5z"/>
		<path fill="#1A4073" d="M30,45.2c0.2,0.3,0.2,0.9,0.7,0.8c-0.1-0.5,0.5-0.5,0.6,0.4c1.6-0.5,0.4-3.2-1-2.7
			C28.7,43.9,31.6,44.9,30,45.2z"/>
		<path fill="#778A97" d="M30.7,46.1c-0.5,0.1-0.5-0.5-0.7-0.8c-1.2,0.4-1.4-0.8-1.8-1.6c-0.3,0.2-0.9,0.2-0.8,0.6
			c0,0.8-1.4,0.7-0.5,2c0.6,1.2-0.7,1.1-0.5,2c0.8-0.1,1.1-0.6,1.2-1.2c0.4-2.4,2.3-0.3,3.7-0.7C31.2,45.6,30.6,45.6,30.7,46.1z"/>
		<path fill="#8DA2B0" d="M41.7,43.6c-1.2-0.5,0.6-1.7-1.2-1.2c-2.5-0.5-2.6,4.5-0.4,2.5C39.9,44,40.6,43.6,41.7,43.6z"/>
		<path fill="#778A97" d="M21.8,47.3c-0.3-0.6-1-0.6-1.2-1.2c-1-0.8-2.2,1.1-1.1,1.7c0.6,0.5,1.4,0.7,2.1,1.1
			C23.1,48.6,20.2,47.6,21.8,47.3z"/>
		<path fill="#1D2655" d="M54.1,57.3c2.3-2.2,4-4.7,5.1-7.8C57.3,52,55.7,54.6,54.1,57.3z"/>
		<path fill="#658CB2" d="M11.6,51.6c-0.3-1.6-1.4-2-2.1-3c-0.9,0.3,0.6,1,0.1,1.7c0.4,0.7,0.9,1.4,1.4,2
			C11.2,52.1,11.5,51.9,11.6,51.6z"/>
		<path fill="#485E73" d="M15.6,49.9c-0.2-0.4-0.6-0.4-0.7-0.8c-0.4,0.3-0.7,0.6-0.7,1.1c-1.9-0.1,0.2-2.5-1.9-2.1
			c0.4,1.2,0.1,3.6,2,2.6c0,0.2,0.1,0.3,0.1,0.5C14.8,49.8,15.3,50.6,15.6,49.9z"/>
		<path fill="#8DA2B0" d="M21.8,47.3c-1.6,0.4,1.3,1.4-0.2,1.5c0.4,1.1,1.8,0.6,1.9,2.1c1.1-0.3-0.2-1.6-0.4-1.9
			c-0.2-0.4-0.6-0.4-0.7-0.9C22.3,47.7,21.9,47.7,21.8,47.3z"/>
		<path fill="#5B7690" d="M16.3,50.7c0.6,1.3,0.7,0.4,2.1,1.1c0-0.6-0.4-1.3,0.2-1.5c0.2,0.5,0.6,0.2,0.9-0.2
			c0.2,0.6,0.4,1.1,1.1,0.8c0-0.3,0-0.6,0.4-0.6c0-0.2-0.1-0.3-0.1-0.5c-0.9-1.2-4.6-2.2-5.3,0c-0.3,0.7-0.8-0.1-1.2,1.2
			c0.1,0.3,0.1,0.6,0.2,0.9C15.5,51.8,14.9,50.6,16.3,50.7z"/>
		<path fill="#AFBFC5" d="M49.3,43.1c-0.1-1-1.7,0.1-2.4,0c-0.9,0.4-0.1,4.2,1,4.7c0.1-1.6,1,0.4,1.5,0.2c-0.1-0.5,0.3-0.6,0.3-1
			c-0.8-0.6-1.6-1.2-2.3-2C48,44.4,47.4,42.9,49.3,43.1z"/>
		<path fill="#E9F5F1" d="M49.1,44.6c-0.3-0.7,0.3-0.9,0.2-1.5c-1.8-0.2-1.3,1.3-2,1.8c-0.6,0.3,1.9,2.6,2.3,2
			c0-0.2-0.1-0.3-0.1-0.5c-0.3-1.4,2.1-1,2.5-1.9c0-0.2-0.1-0.3-0.1-0.5c-0.1-0.5-0.5-0.5-0.7-0.8c-0.3,0.1-0.6,0.1-0.9,0.2
			C50.2,44,49.9,44.5,49.1,44.6z"/>
		<path fill="#BAD4E4" d="M55.3,44.4c-0.1,1.6-0.8-0.7-0.8-1.3c-0.3,0.4-0.6,3-1.3,0.7c-0.5,0.1-0.9,0.2-1.4,0.3
			c0,0.2,0.1,0.3,0.1,0.5c-0.4,0.9-2.8,0.5-2.5,1.9c2.5,1.4,0-0.3,2.2-0.9c0.2,0.7,0.3,1.6,1.2,1.2c0.9,0,1.4,0.8,2.5,0.5
			c0-0.4-0.2-0.9,0.3-1C55,45.5,56.7,44.5,55.3,44.4z"/>
		<path fill="#D4D8D0" d="M26.3,48.3c-0.6,0.5-1.7,0.7-1,2.1c0.3,0,0.6,0,0.6,0.4c0.5-0.2,0.9-1,1.4-0.3c0.8,1.5-0.1-1.3,1.3-0.7
			c0.1-0.7,0.4,0,0.9-0.2c-1.1-0.1-0.2-3.3-2-2.5C27.4,47.8,27.1,48.2,26.3,48.3z"/>
		<path fill="#485E73" d="M36.8,47.9c1,0.6,1.5-0.7,2.5,0.5c0.9-0.1,0.9-0.7,1.8-0.8c-0.1-0.5-0.5-0.5-0.7-0.8
			c-0.9,0.3-3.3-2.1-2.9,0.1C37.6,47.4,36.8,47.3,36.8,47.9z"/>
		<path fill="#658CB2" d="M57.3,45c0.4,0.3,1.4,0.5,1.4-0.3c0-0.2-0.1-0.3-0.1-0.5c-0.3-0.7-1.5-0.1-1.3-1.7
			c-0.4,0.2-0.4,0.6-0.8,0.6C56.6,44.1,57.2,44.2,57.3,45z"/>
		<path fill="#1A4073" d="M42.2,48.3c0-0.4-0.2-0.9,0.3-1c1.2,0.5-0.6,1.7,1.2,1.2c0.1-1.8-1.4-1.1-1.5-2.6
			c-0.5,0.1-0.9,0.2-1.4,0.3c0.2,0.4-0.1,0.5-0.4,0.6c0.2,0.4,0.6,0.4,0.7,0.8C41.3,48.1,41.7,48.2,42.2,48.3z"/>
		<path fill="#8DA2B0" d="M37.7,50.1c0.4-0.6,3.9-1,2.6-1.5c-0.6,0.2-1.8,0.2-1-0.3c-1-1.2-1.5,0.1-2.5-0.5c0-0.5,0.9-0.5,0.7-1.1
			c-2,0.4-2.7,1.6-4.9,1.9c0.8,0.8,2.9-0.3,3.9,0.2c0,0.2,0.1,0.3,0.1,0.5C37.2,49.3,37.7,49.3,37.7,50.1z"/>
		<path fill="#485E73" d="M46.8,43.1c-0.8,0.1-0.9,0.8-1.8,0.8c-0.3-0.3-0.6-0.7-0.8-1.3c-0.6,0-0.8,0.3-0.8,0.6
			c0.2,0,0.3-0.1,0.5-0.1c-0.3,0.8-0.4,1.6-1.6,1.7c0.3,0.6,1.2,0.2,1.9,0.1c-0.2,0.7-0.8,1.1-1.7,1.3c-0.6-1-1.3-1.7-2.7-1.4
			c0.3,0.3,0.6,0.7,0.8,1.3c0.5-0.1,0.9-0.2,1.4-0.3c0.1,1.5,1.6,0.8,1.5,2.6c0.2,0.5,0.6,0.2,0.9-0.2c-0.7-0.4-0.8-1.9,0.5-2
			c-0.5,2.3,0.6,0.6,1.2,1.2c0.1,0.6-0.7,0.6-0.7,1.1c0.4,0,0.6,0.3,0.7,0.8c0,0.2,0.1,0.3,0.1,0.5c0.2,0,0.3-0.1,0.5-0.1
			c-0.3-1,0.1-1.6,1.1-1.7c0.2,0,0.3-0.1,0.5-0.1c-0.1-0.3-0.2-0.5-0.6-0.4C46.8,47.3,46.4,43.9,46.8,43.1z"/>
		<path fill="#8DA2B0" d="M18.2,55.7c1-0.3-0.2-2-0.1-2.9c0.4,0,0.6,0.4,1,0.3c0-0.7,0.9-0.5,1.4-0.3c0.6-0.1,1.1,0,1.5,0.2
			c0.1-0.6,0.3-1.2,0.6-1.6c-0.2-1.2-1-1.3-1.8-1.6c0,0.2,0.1,0.3,0.1,0.5c-0.4,0-0.4,0.3-0.4,0.6c-0.7,0.3-0.9-0.2-1.1-0.8
			c-0.4,0.4-0.7,0.7-0.9,0.2c-0.5,0.2-0.2,0.9-0.2,1.5c-1.4-0.7-1.6,0.2-2.1-1.1c-1.3-0.1-0.7,1.1-1.7,1.3c0.1,0.5,0.2,0.9,0.3,1.4
			c0.3-0.1,0.6-0.1,0.9-0.2C16.4,50.6,17.3,55.1,18.2,55.7z"/>
		<path fill="#AFBFC5" d="M27.3,50.6c-1.3,0.1,1,2.5-1,2.1c-0.1-0.6-0.3-1.2-0.4-1.9c0-0.4-0.3-0.4-0.6-0.4c-0.2,0-0.3,0.1-0.5,0.1
			c0.9,1.3,0.1,2.6,1.3,4.1c0.9-2.1,0.3,0.4,1.9,0.1c0-0.2-0.1-0.3-0.1-0.5c-0.5-0.9-1.2-1.6,0-2.4c0.3,0.8,1,0.9,2,0.6
			c-0.3-0.4-0.6-0.8-1.1-0.8c-1.4-0.1,0.2-1.1-0.4-1.9C27.2,49.3,28.1,52.1,27.3,50.6z"/>
		<path fill="#8FB1CE" d="M55.3,44.4c1.4,0.1-0.2,1.1,0.4,1.9c0.4-0.1,0.2-0.6,0.3-1c0.4,0,0.6,0.4,1,0.3c-0.2-0.4,0.1-0.5,0.4-0.6
			c-0.1-0.8-0.8-0.9-0.8-1.8c-0.2-1.4-0.6-2.4-1.5-2.6C55.5,42.2,55.3,43.2,55.3,44.4z"/>
		<path fill="#E9F5F1" d="M27.3,50.6c-0.5-0.8-0.9,0.1-1.4,0.3c0.1,0.6,0.3,1.2,0.4,1.9C28.2,53.1,26,50.7,27.3,50.6z"/>
		<path fill="#8FB1CE" d="M17.8,59.1c0.3,0.2,0.7,0.5,1,0.7c0.1-0.1,0.1-0.3,0.1-0.4C18.9,59.3,18.2,59.2,17.8,59.1z"/>
		<path fill="#8FB1CE" d="M17.9,58.7c-0.4-0.6-1-1-1.7-1.1c-0.7-0.2-1.1-0.8-1.3-1.7c-2.1,0.1-2.1-2.9-3.3-4.2
			c-0.1,0.3-0.4,0.5-0.6,0.8c1.8,2.5,4,4.7,6.5,6.6C17.5,58.8,17.6,58.8,17.9,58.7z"/>
		<path fill="#1A4073" d="M47.9,50.6c1.8-0.1,0.8-2.1,2.9-2c-1-1.2-1.5,0.1-2.5-0.5c-0.2,0-0.3,0.1-0.5,0.1
			C48.6,49.5,47.5,49.6,47.9,50.6z"/>
		<path fill="#325F96" d="M53.8,55.9c0.9-0.5,2.6-2.7,3.4-4.5c-1.1-0.3-1.4,0.1-3-0.4c-0.1-2.2,1.7-1.6,1.3-3.2
			c-0.6,0.3-0.7,0.8-1.8,0.8c-0.1-0.3-0.2-0.5-0.6-0.4c-0.6-0.1-0.9-0.7-1.6-0.7c-0.6,0.3,0.3,0.6,0.3,1.4c-0.5,0.7-0.7,0.3-1.4,0.3
			c0.2,0.4,0.6,0.4,0.7,0.8c0.2,0,0.3-0.1,0.5-0.1c1.2,0,0.8-1,2.2-0.9c0.1,0.6-0.5,0.8-0.2,1.5c0.2,0.9,1.4,0.4,1.3,1.7
			c-1.3,2.4-0.6,1.8-2.7,3.4c0.4,0,0.9-0.2,1,0.3c-1.7,1.4-2.4,3.5-4.3,4.7c0,0.2,0.1,0.3,0.1,0.5c2.4-0.7,3-2.5,4.5-3.7
			C53.2,56.7,55.2,55.9,53.8,55.9z"/>
		<path fill="#8FB1CE" d="M22,53c-0.4-0.2-0.9-0.3-1.5-0.2c0.5,0.9,1.6,0.8,2.2,1.5c-0.4-1,0.9-2.1-0.1-2.9
			C22.3,51.9,22.1,52.4,22,53z"/>
		<path fill="#658CB2" d="M55.4,47.3c-1.1,0.3-1.6-0.5-2.5-0.5c0.1,0.5,0.2,0.9,0.3,1.4c0.4-0.2,0.5,0.1,0.6,0.4
			c1,0,1.2-0.5,1.8-0.8c0.2-0.4,0.3-0.8,0.2-1.5C55.2,46.4,55.4,46.9,55.4,47.3z"/>
		<path fill="#E9F5F1" d="M29.9,54c-0.7,0.1-1.8-1-0.2-0.9c0.4,0,0.4-0.3,0.4-0.6c-1,0.3-1.8,0.2-2-0.6c-1.2,0.8-0.4,1.5,0,2.4
			C29,53.5,30,55.2,29.9,54z"/>
		<path fill="#5B7690" d="M45.8,49.6c0-1.1-1-0.5-1.2-1.2c-0.4,0.4-0.7,0.7-0.9,0.2c-1.8,0.4,0-0.7-1.2-1.2c-0.4,0.1-0.2,0.6-0.3,1
			c-0.5-0.1-0.9-0.3-1.1-0.8c-0.8,0.1-0.9,0.8-1.8,0.8c-0.8,0.5,0.4,0.5,1,0.3c1.3,0.4-2.2,0.9-2.6,1.5c0.2,0.7,0.9,0.7,1.2,1.2
			c0.3,0.6,0.8,0.8,0.8,1.8c0.2,0,0.3-0.1,0.5-0.1c0.7-0.2,2.1-2,1-2.1c0.3-1.4,2,0.2,2.5,0.5C44.8,51.1,45.7,50.6,45.8,49.6z"/>
		<path fill="#5B7690" d="M16.1,54.6c-1.4-0.5-0.9,2.3-0.1,2c1.3-0.2,2.1,0.4,2.3,2c0.3-1.3,1.9,0.6,2.2-0.9
			c-1.2-0.9-2.7-1.2-4.2-1.6C16.3,55.6,16.2,55.1,16.1,54.6z"/>
		<path fill="#778A97" d="M29.7,53.1c-1.6-0.1-0.5,1.1,0.2,0.9c0.1,1.2-0.9-0.5-1.8,0.3c0,0.2,0.1,0.3,0.1,0.5
			c0.7,0.4,1.7,0.2,2.9,0C32,53.3,30,54.3,29.7,53.1z"/>
		<path fill="#8FB1CE" d="M45.2,51.6c1-0.1,1.4-0.7,1.1-1.7c0-0.2-0.1-0.3-0.1-0.5c-0.2,0-0.3,0.1-0.5,0.1c-0.1,1-1,1.5-2,1.8
			c0,0.2,0.1,0.3,0.1,0.5C44.1,52.6,44.9,52,45.2,51.6z"/>
		<path fill="#1A4073" d="M16,56.6c0.1,0.3,0.1,0.6,0.2,0.9c0.7,0.1,1.3,0.5,1.7,1.1c0.2,0,0.3-0.1,0.5-0.1
			C18.2,57,17.3,56.4,16,56.6z"/>
		<path fill="#D4D8D0" d="M37.3,57.5c2.3-0.2,3.1-1.3,3.8-2.6C39.7,54.2,38.7,56.8,37.3,57.5z"/>
		<path fill="#D4D8D0" d="M50.2,54.6c-1.5-1-2.7,0.5-3,1.5c1.2,1.4-10.2,4.5-13.8,7.4c4.1,0.3,10.3-2.2,12.2-3.7
			c1.1-0.5,4.1-1.7,4-3.7C49.2,55.3,50,55.1,50.2,54.6z"/>
		<path fill="#D4D8D0" d="M31.6,57.6c-1.4-1.4-1.4,1.4-3.1,1.1c0.3,0.3,0.6,0.7,0.8,1.3c0.4-0.4,0.3-1.2,1.2-1.2
			c-0.5,1.6-0.5,3.1,0.9,4.2c0,0.2,0.1,0.3,0.1,0.5c0.5-0.1,0.9-0.2,1.4-0.3C33.5,62.2,29.6,58.8,31.6,57.6z"/>
		<path fill="#D4D8D0" d="M27.8,60.2c-1.3,2.1-2.9,0.3-4.8-0.1c-0.8,0.6,0.6,0.2,0.7,0.9c2.3,0.8,4.5,1.8,7.1,2.1
			C29.6,62.5,28.6,61.4,27.8,60.2z"/>
		<path fill="#BAD4E4" d="M49.7,52.3c1,0.3,1.3-1.7,1.8-0.3c0.2,0,0.3-0.1,0.5-0.1c1.2-0.7-1.6-0.8-0.4-1.9c-0.2,0-0.3,0.1-0.5,0.1
			c-0.3,0.1-0.6,0.1-0.9,0.2C51.1,51.6,48.8,50.8,49.7,52.3z"/>
		<path fill="#8FB1CE" d="M52,51.8c0.3,0.6,0.8,0.8,1.6,0.7c-0.1-0.7-0.5-1.7,0.1-2c-0.3-0.7,0.3-0.9,0.2-1.5
			c-1.4-0.1-1.1,0.9-2.2,0.9C50.4,51,53.2,51.2,52,51.8z"/>
		<path fill="#485E73" d="M34.4,52.7c-0.1,1.1-1.3,1.5-0.8,3.1c1.9-0.1,1.3-1.8,2.4-2.4C35.3,53.4,35.4,52.2,34.4,52.7z"/>
		<path fill="#8DA2B0" d="M49.7,52.3c-0.9-1.4,1.4-0.6,0.5-2c-0.4,0.2-0.4,0.6-0.8,0.6c-0.1,0.6-0.4,1.1-1.2,1.2
			c0.1,0.5-0.3,0.6-0.3,1c1.2-0.9,2.2-0.8,3,0.4c-0.9,0.5-1.7-1-1.3,0.7c0.6-0.1,1.2-0.2,1.8-0.3c-0.3-0.9,0.3-1.1,0.1-2
			C50.9,50.6,50.6,52.5,49.7,52.3z"/>
		<path fill="#AFBFC5" d="M27.1,56.9c-2.2,0.8-2.7,0.8-4-0.7c-0.2-0.3-0.2-0.9-0.7-0.9c-0.2,0.4-0.3,0.8-0.2,1.5
			c0.4,1.2,2.9,0.5,1.9,2.1c1.2-1,3.6-1.3,4.2-2.7c-0.6-0.9-2-1.4-2.5-0.5C26.2,56.4,26.8,56.4,27.1,56.9z"/>
		<path fill="#658CB2" d="M52.3,55.7c2.1-1.6,1.4-1,2.7-3.4c0.1-1.3-1.1-0.8-1.3-1.7c-0.6,0.3-0.1,1.2-0.1,2
			c-0.8,0.2-1.3-0.1-1.6-0.7c-0.2,0-0.3,0.1-0.5,0.1c0.2,0.8-0.4,1.1-0.1,2c0.6,0,0.7,0.6,0.8,1.3c-0.5,0.1-0.9,0.2-1.4,0.3
			c0.1,0.3,0.1,0.6,0.2,0.9c1.5,1.6-2.5,2.4-2.5,4.3c0.2,0,0.3-0.1,0.5-0.1c1.9-1.2,2.6-3.3,4.3-4.7C53.2,55.5,52.7,55.7,52.3,55.7z
			"/>
		<path fill="#5B7690" d="M45.2,51.6c-0.3,0.4-1.1,1-1.4,0.3c-1.5,0-1.8,0.9-2,1.8c0.7,1.2,0.6-1.4,2.2-0.9c0.2,1.2-2,1.1-0.5,2
			c0.7-0.7,2.4-0.8,2.5-1.9c0.5,0.6,0.7-0.3,1.9,0.1c0-0.4,0.4-0.5,0.3-1C47.2,51.9,45.2,53.4,45.2,51.6z"/>
		<path fill="#AFBFC5" d="M50.9,53.5c-0.8-1.3-1.7-1.3-3-0.4c-1.3-0.4-1.4,0.5-1.9-0.1c-0.1,1.1-1.8,1.2-2.5,1.9
			c0.5,1.4,2.1,1.4,3.6,1.3c0.3-1,1.6-2.5,3-1.5c-0.2,0.5-1,0.7-0.6,1.6c0.4,0,0.9-0.2,1,0.3c0.2,0,0.3-0.1,0.5-0.1
			c-0.1-0.3-0.1-0.6-0.2-0.9c0.5-0.1,0.9-0.2,1.4-0.3c-0.1-0.7-0.2-1.3-0.8-1.3c-0.6,0.1-1.2,0.2-1.8,0.3C49.2,52.4,50,54,50.9,53.5
			z"/>
		<path fill="#BAD4E4" d="M17.8,59.1c-0.1-0.1-0.2-0.1-0.3-0.2C17.5,59,17.6,59.1,17.8,59.1z"/>
		<path fill="#BAD4E4" d="M31.4,63.4c0-0.2-0.1-0.3-0.1-0.5c-0.2,0-0.3,0.1-0.5,0.1c-2.6-0.3-4.8-1.3-7.1-2.1
			c-2.1,1.6-0.9-2.8-3.1-3.3c-0.3,1.5-1.9-0.4-2.2,0.9c-0.2,0-0.3,0.1-0.5,0.1c-0.2,0.1-0.4,0.2-0.4,0.2c0.1,0.1,0.2,0.1,0.3,0.2
			c0.4,0.1,1.1,0.2,1.2,0.3c0,0.2-0.1,0.3-0.1,0.4c3.3,2.2,7.1,3.8,11,4.6C30.3,64.1,31.4,64.2,31.4,63.4z"/>
		<path fill="#8FB1CE" d="M51,56.4c-0.2,0-0.3,0.1-0.5,0.1c0,1.7-1.8,2.2-2.7,3.4c-0.3,0.2-0.9,0.2-0.8,0.6c0.6-0.1,1.1,0,1.5,0.2
			C48.5,58.8,52.5,58,51,56.4z"/>
		<path fill="#BAD4E4" d="M49.5,56.2c-0.6,0.6-2.9,2.2-4,3.7c0.6,1.6,1.9-1.5,2.4,0c0.8-1.2,2.7-1.7,2.7-3.4
			C50.5,56,49.9,56.2,49.5,56.2z"/>
		<path fill="#AFBFC5" d="M47.9,59.9c-0.5-1.5-1.8,1.6-2.4,0c-3.8,1.2-8.1,4.1-12.2,3.7c-0.4,0.2-0.5-0.1-0.6-0.4
			c-0.5,0.1-0.9,0.2-1.4,0.3c0.1,0.7-1,0.6-1.5,1c1.6,0.3,3.3,0.5,5,0.6c2-1.7,5.8-2.2,9.2-3c1.4-0.2,2.5-0.7,3-1.5
			C47,60.1,47.6,60,47.9,59.9z"/>
		<path fill="#778A97" d="M23.2,9.6c1.1-2.7,7.6-2.5,7.6-0.4c0,0.2,0.1,0.3,0.1,0.5c1.3-0.4,1.6,0.8,3,0.4c-0.3-0.8,2.4-1.3,1.9,0.1
			c1,0,1.2-0.5,1.8-0.8c-0.6-0.1-2.5-0.2-3.6-1.3c0.9-0.4,0.8-0.9,0.2-1.5c-0.4,0-0.9,0.2-1-0.3c-3.4,0-10.2,0.7-12.4,2.8
			C21.8,8.8,22.6,9,23.2,9.6z"/>
		<path fill="#1D2655" d="M34.1,6.6c0.6,0.3,1.4,0.4,2.4,0C36,5.9,33.1,5.7,33,6.3C33.1,6.8,33.7,6.6,34.1,6.6z"/>
		<path fill="#5B7690" d="M24.6,9.8c-0.3-1.4,2.8-1.7,3.6-1.2c1.1-0.3,1.6,0.5,2.5,0.5c0-2.1-6.5-2.2-7.6,0.4
			C23.3,10.1,24.1,9.8,24.6,9.8z"/>
		<path fill="#AFBFC5" d="M18.3,11.5c0.4-0.2,0.4-0.6,0.8-0.6c1.1-1.1,1.3,1.9,1.5,0.2c0.3-0.9,1.2-1.3,2.6-1.4
			c-0.5-0.6-1.4-0.8-2.5-0.5c-1.3,0.2-2.3,0.6-2.6,1.4C18.2,11.1,17.6,11.4,18.3,11.5z"/>
		<path fill="#8FB1CE" d="M34.1,6.6c0.7,0.6,0.7,1-0.2,1.5c1.1,1,3,1.1,3.6,1.3c0.3-0.1,0.6-0.1,0.9-0.2c0-0.8-0.5-0.8-1.1-0.8
			C37.2,8,37.8,8,38.1,7.8c-0.2-0.4-0.6-0.4-0.7-0.9c-0.4,0-0.6-0.4-1-0.3C35.4,7,34.7,6.9,34.1,6.6z"/>
		<path fill="#8DA2B0" d="M15.3,13.5c0.9-0.4,0.8-0.9,0.2-1.5c-0.4,0.3-0.7,0.5-1.1,0.8c-1.1,1.1-2.2,2.2-3.1,3.4
			C12.8,16.6,13.2,13.7,15.3,13.5z"/>
		<path fill="#778A97" d="M18,12.5c0.4-0.1,0.2-0.6,0.3-1c-0.7-0.1,0-0.4-0.2-0.9c-1.2,0.1-1.9,0.6-2.1,1.4c0.2,0.4,0.6,0.4,0.7,0.8
			C17.4,12.7,17.6,11.7,18,12.5z"/>
		<path fill="#C0B4AA" d="M31.1,11c-0.3,0.2-0.9,0.2-0.8,0.6c1.8-0.6,2.8-0.1,3.9,0.2c0-0.2-0.1-0.3-0.1-0.5c0.4-0.7,0-0.8-0.3-1.4
			c-1.3,0.4-1.6-0.8-3-0.4C30.8,10.3,30.5,10.5,31.1,11z"/>
		<path fill="#959393" d="M27.6,10.2c0.6,1.1,2,1.1,2.8,1.9c0-0.2-0.1-0.3-0.1-0.5c-0.1-0.5,0.5-0.5,0.8-0.6
			c-0.7-0.5-0.3-0.7-0.3-1.4c0-0.2-0.1-0.3-0.1-0.5c-0.9,0-1.4-0.8-2.5-0.5C27.9,9.1,28.2,10,27.6,10.2z"/>
		<path fill="#D4D8D0" d="M33,13.1c0.7-0.2,1.8-0.1,1.8-0.8c0-0.6-0.3-0.8-0.7-0.8c0,0.2,0.1,0.3,0.1,0.5c-1.1-0.3-2.1-0.9-3.9-0.2
			c0,0.2,0.1,0.3,0.1,0.5c0,0.2,0.1,0.3,0.1,0.5C31.4,12.6,31.9,13.4,33,13.1z"/>
		<path fill="#5B7690" d="M30.1,13.2c0,0.2,0.1,0.3,0.1,0.5c0.4-0.2,0.5,0.1,0.6,0.4c0.6-0.4,2.5,0.1,2.2-0.9
			c-1.1,0.3-1.6-0.5-2.5-0.5C30.1,12.6,30.1,12.9,30.1,13.2z"/>
		<path fill="#8DA2B0" d="M33.3,16.9c0.3,0.6,0.4-0.1,0.9-0.2c0.7-0.6,0.5-1.8,0.9-2.6c-0.4-1-2.5,0.1-2.8,0.5
			c0.2,0.4,0.6,0.4,0.7,0.9C35.3,15.3,32.5,15.8,33.3,16.9z"/>
		<path fill="#BAD4E4" d="M47,13.4c-0.6,0-1.1-0.6-0.8,0.6c0.1,1.9,3,1.3,2.1,3c0.8,0,2.6-1.4,1.1-1.7c-0.6,1.3,0.2-0.6-0.7-0.8
			C47.8,14.7,48,13.1,47,13.4z"/>
		<path fill="#8FB1CE" d="M14.6,23.8c-1.1-1.9-2.9,0.4-3.6,1.2c0.6,0.3,2.1,0.3,2.8-0.5C13.7,24,14.2,24,14.6,23.8z"/>
		<path fill="#8DA2B0" d="M7.6,25.1c0.5-0.2,0.2-0.5-0.1-0.5c-0.3,0.1-0.4-0.3-0.5-0.6c-0.4,1.1-0.7,2.1-1,3.2c0.1,0,0.1,0,0.2,0
			C6.4,26.4,6.9,25.7,7.6,25.1z"/>
		<path fill="#BAD4E4" d="M23.7,26.5c0.3-1.9-1.5-0.7-1.4-2.2c-0.2,0-0.3,0.1-0.5,0.1c-0.4,0.8-0.9,1.5-1.5,2.2
			c0.8-0.2,1.1,0.4,1.9,0.1C22.5,25.9,23.2,26.5,23.7,26.5z"/>
		<path fill="#8FB1CE" d="M15.2,29.1c0.5-0.1,0.9-0.2,1.4-0.3c0-0.2-0.1-0.3-0.1-0.5c-0.5-1.6-1.5-1-2.5-0.5
			c-0.1-0.5-0.2-0.9-0.3-1.4c-0.4,0-0.4,0.3-0.4,0.6c0.3,0.8-0.5,1.4,0.3,1.4c0.6-0.1,1.2-0.2,1.8-0.3
			C15.4,28.4,15.1,28.6,15.2,29.1z"/>
		<path fill="#485E73" d="M34,25.1c0.2,0.5,0.9,0.2,1.5,0.2c0-0.2-0.1-0.3-0.1-0.5c0-0.8-0.6-0.7-0.8-1.3
			C32.3,22.7,34.5,24.7,34,25.1z"/>
		<path fill="#1A4073" d="M43.3,23.3c0.1,0.3,0.1,0.6,0.2,0.9c0.1,0.3,0.2,0.5,0.6,0.4c0.2-1.5,1.3,0.3,1.9,0.1c0-1,0.4-1.9-0.9-2.3
			C45.1,23.2,44,23.2,43.3,23.3z"/>
		<path fill="#778A97" d="M30.7,25.2c-0.6,0.4-0.7,1.2-0.5,2c0.3-0.1,0.6-0.1,0.9-0.2c0.2,0.4-0.1,0.5-0.4,0.6
			c0.2,0.5,0.9,0.2,1.5,0.2c0,0.2,0.1,0.3,0.1,0.5c0.4-0.1,0.2-0.6,0.3-1C31.6,27.2,31.8,25.2,30.7,25.2z"/>
		<path fill="#325F96" d="M41.2,27.1c0.6-0.1,1.1,0,1.5,0.2c-0.8-1.4,0.5-1.3,0.5-2C41.8,25.5,40.7,25.7,41.2,27.1z"/>
		<path fill="#658CB2" d="M13.3,29.4c-0.2,0-0.3,0.1-0.5,0.1c0.2,0.8,0.3,1.6,0.5,2.3c-0.5,0.2-0.8,0-1-0.3c-0.5,0.2-0.1,1-0.7,1.1
			c0.9,0.4,2.6,0.3,2.6-1.5c0.3-0.5,0.3-1.1,0.1-2C13.9,29.3,13.6,29.3,13.3,29.4z"/>
		<path fill="#BAD4E4" d="M53.5,24.3c0.1,0.5,0.2,0.9,0.3,1.4c0.9-0.3,0.7-1.4,1-2.1c0-0.2-0.1-0.3-0.1-0.5
			C53.6,22.5,52.8,22.1,53.5,24.3z"/>
		<path fill="#1A4073" d="M35.7,33c1.5-1.5,0.9-4.3-0.6-5.2C34.6,29.5,36.2,31.3,35.7,33z"/>
		<path fill="#5B7690" d="M39.4,27.9c0.1,0.5-0.3,0.6-0.3,1c0.4,0,0.9-0.2,1,0.3c-0.9,0.1-0.9,0.5-0.3,1c0.6-0.1,1.1,0,1.5,0.2
			c0.2,0,0.3-0.1,0.5-0.1c-0.1-0.9-0.8-0.8-1.2-1.2C40.5,28.4,40,28,39.4,27.9z"/>
		<path fill="#1A4073" d="M7,35.9c0,0.2,0.1,0.3,0.1,0.5c-2.2-0.8-0.1,1.2-1.6,1.7c0,0.2,0.1,0.3,0.1,0.5c1.2-0.1,1.3-1,2.1-1.4
			c-0.1-0.5-0.2-0.9-0.3-1.4C7.3,35.9,7.1,35.9,7,35.9z"/>
		<path fill="#8FB1CE" d="M14.4,37c-1.3,0.2-2.5,0.4-2,1.8c1.3,1.4,2-1,3.1-1.1C15.3,37.3,14.5,37.6,14.4,37z"/>
		<path fill="#5B7690" d="M51,33.1c0.2-0.4,0.3-0.8,0.2-1.5c-1.4-0.6-0.5,2.2-1.3,0.7c-0.2,0-0.3,0.1-0.5,0.1
			c0.1,0.3,0.1,0.6,0.2,0.9C50.1,33.6,51.1,33.8,51,33.1z"/>
		<path fill="#658CB2" d="M5.7,39.7c0,0.3,0.1,0.5,0.1,0.8c0.2,0.8,0.4,1.6,0.6,2.4c0,0,0,0,0,0C6.5,41.8,6,40.6,5.7,39.7z"/>
		<path fill="#658CB2" d="M5.6,38.6c0-0.2-0.1-0.3-0.1-0.5c-0.1-0.3-0.1-0.6-0.2-0.9c0,0.5,0.1,1,0.2,1.5
			C5.5,38.7,5.6,38.6,5.6,38.6z"/>
		<path fill="#5B7690" d="M32.2,39.5c0.1,0.3,0.1,0.6,0.2,0.9c1-1.4,3.2,0.4,4.1-1.2c-0.7,0.1-1.7,0.6-1.9-0.1
			c-0.2,0-0.3,0.1-0.5,0.1C33.4,39.3,32.8,39.4,32.2,39.5z"/>
		<path fill="#325F96" d="M24.6,44.8c1,0.7,1.1-0.6,2.8-0.5c-0.1-0.5,0.5-0.5,0.8-0.6c-0.1-0.3-0.1-0.6-0.2-0.9
			c-0.5,0.1-0.9,0.2-1.4,0.3C25.2,41.8,23.1,43.9,24.6,44.8z"/>
		<path fill="#5B7690" d="M12.1,44.7c-2.1,0.8,0.4-1.3-1.2-1.2c-0.4,0.2-0.4,0.6-0.8,0.6c0.3,1.8,2.3,1,2.2,3.5
			C13.3,47.3,12,45.5,12.1,44.7z"/>
		<path fill="#BAD4E4" d="M47.3,40.6c0.1,0.3,0.1,0.6,0.2,0.9c0.1,0.3,1.9,0,1.8-0.3c-0.1-0.3-0.1-0.6-0.2-0.9
			C47.7,39.2,48.7,41.6,47.3,40.6z"/>
		<path fill="#8DA2B0" d="M53.2,43.8c0.7,2.3,1-0.4,1.3-0.7c0.5-0.9-0.5-2.9-1.2-3.7c0.2,1.5,1.2,3.5-0.7,3.5
			C51.8,43.4,52.9,43.4,53.2,43.8z"/>
		<path fill="#8FB1CE" d="M53.2,43.8c-0.4-0.4-1.4-0.5-0.7-0.8c-0.2-0.9-0.4-1.9-0.6-2.8c-0.9,0.6,0.4,2.7-0.8,3.1
			c0.2,0.4,0.6,0.4,0.7,0.8C52.3,44,52.8,43.9,53.2,43.8z"/>
		<path fill="#AFBFC5" d="M38.9,51.3c-0.3-0.6-1-0.6-1.2-1.2c0-0.8-0.5-0.8-1.1-0.8c-2.9,0.6-2,1.9,0.8,1.8
			C37.6,51.7,38.4,51.4,38.9,51.3z"/>
		<path fill="#325F96" d="M47.9,48.2c-1,0.1-1.4,0.7-1.1,1.7c-0.2,0-0.3,0.1-0.5,0.1c0.3,1-0.1,1.6-1.1,1.7c-0.1,1.8,2,0.3,3,0.4
			c0.8-0.1,1.1-0.6,1.2-1.2c-0.5,0.7-0.7,0.3-1.4,0.3c0-0.2-0.1-0.3-0.1-0.5C47.5,49.6,48.6,49.5,47.9,48.2z"/>
		<path fill="#5B7690" d="M49,60.6c-0.2,0-0.3,0.1-0.5,0.1c-0.4-0.2-0.8-0.3-1.5-0.2c-0.5,0.8-1.6,1.3-3,1.5c-1.3,2.4-6.3,2.1-8.4,3
			c1.7,0,3.5-0.1,5.2-0.5c3.4-0.7,6.3-1.8,8.3-3.5C49.1,60.9,49.1,60.8,49,60.6z"/>
		<path fill="#8FB1CE" d="M35.7,65c2.1-0.9,7-0.6,8.4-3c-3.3,0.8-7.2,1.2-9.2,3C35.1,65,35.4,65,35.7,65z"/>
		<path fill="#325F96" d="M40,9.9c-0.2,1.5,1.2,0.6,2,0.6c1.1-0.3-0.2-2.1-0.5-2.3c-0.4,0-0.6-0.4-1-0.3C40,8.2,40.9,9.6,40,9.9z"/>
	</g>
</g>
</svg>
