<?xml version="1.0" encoding="utf-8"?>
<!-- Generator: Adobe Illustrator 17.1.0, SVG Export Plug-In . SVG Version: 6.00 Build 0)  -->
<!DOCTYPE svg PUBLIC "-//W3C//DTD SVG 1.1//EN" "http://www.w3.org/Graphics/SVG/1.1/DTD/svg11.dtd">
<svg version="1.1" id="Layer_1" xmlns="http://www.w3.org/2000/svg" xmlns:xlink="http://www.w3.org/1999/xlink" x="0px" y="0px"
	 viewBox="0 0 170 170" enable-background="new 0 0 170 170" xml:space="preserve">
<g>
	<g>
		
			<radialGradient id="jupiter_svgid_1_" cx="93.2864" cy="625.6363" r="0.9527" gradientTransform="matrix(185.7254 5.7976 -2.5047 115.6363 -15695.9502 -72797.375)" gradientUnits="userSpaceOnUse">
			<stop  offset="0.1758" style="stop-color:#FFC758"/>
			<stop  offset="0.4341" style="stop-color:#DBA434"/>
			<stop  offset="0.6154" style="stop-color:#8A6B2B"/>
			<stop  offset="0.8791" style="stop-color:#231C11"/>
		</radialGradient>
		<path fill="url(#jupiter_svgid_1_)" d="M162.8,87.5c-0.9,41.5-36.5,74.1-79.5,72.7c-43-1.3-77.1-36.1-76.2-77.6
			c0.5-23,11.6-43.2,28.8-56.5c0.6-0.4,1.1-0.8,1.7-1.3c0.6-0.3,1-1.1,1.7-1.2c0.6-0.4,1.2-0.8,1.8-1.2C54,14.1,69.7,9.4,86.6,9.9
			C129.6,11.3,163.7,46,162.8,87.5z"/>
		
			<radialGradient id="jupiter_svgid_2_" cx="93.2274" cy="622.18" r="0.5368" gradientTransform="matrix(191.5866 6.0442 -3.9362 184.7652 -15356.8281 -115417.3125)" gradientUnits="userSpaceOnUse">
			<stop  offset="0.2802" style="stop-color:#DBA434"/>
			<stop  offset="0.3859" style="stop-color:#C09131"/>
			<stop  offset="0.5659" style="stop-color:#8A6B2B"/>
			<stop  offset="1" style="stop-color:#231C11"/>
		</radialGradient>
		<path fill="url(#jupiter_svgid_2_)" d="M26.5,134.2c13.9,15.3,34.1,25.3,56.7,26c22.6,0.7,43.2-8,57.8-22.4c-15.2,4.9-35.4,7.6-57.4,6.9
			C61.5,144,41.5,140.1,26.5,134.2z"/>
		
			<radialGradient id="jupiter_svgid_3_" cx="92.5472" cy="628.2703" r="1.0961" gradientTransform="matrix(99.4799 3.9972 -1.1845 97.4136 -8389.7168 -61491.0312)" gradientUnits="userSpaceOnUse">
			<stop  offset="0" style="stop-color:#DBA434"/>
			<stop  offset="0.2033" style="stop-color:#C09131"/>
			<stop  offset="0.5495" style="stop-color:#8A6B2B"/>
			<stop  offset="0.8791" style="stop-color:#231C11"/>
		</radialGradient>
		<path fill="url(#jupiter_svgid_3_)" d="M95.2,10.4c-2.9-0.3-6-0.5-9.1-0.6C83,9.7,80,9.6,77,9.7c-13.4,1-25.9,6.1-36.5,13.1
			c-0.6,0.4-1.1,0.7-1.6,1.1c0.1,0,0.7,0.5,1.1,0.6c0.1-0.5,1.3,1.3,1.1,0.6c0.1-0.1,0.2-0.4,0.9,0.7c1,1.8,0.8,0.8,1,0.7
			c0.6,0.7,0.7,0.3,1.2,0.6c0.1-0.4,0.8,0.3,1.3,0.6c0.2-0.3,0.5-0.4,1.4,0.6c0.9,1,2.1,2.8,1.5,0.5c0.6,0.4,1.4,1,1.6,0.5
			c0.5,0,1.2,0.4,1.7,0.5c0.4-0.2,1.1,0.2,1.8,0.5c0.7,0.3,0.7-1,1.9,0.4c0.8,0.3,1.7,1.1,2.1,0.4c0.2-0.9,1.3,0.1,2.1,0.4
			c0.7,0.1,1.6,0.5,2.2,0.4c0.7,0,1.4-0.1,2.3,0.3c0.5-0.5,1.8,0.7,2.4,0.3c0.9,0.3,1.7,0.3,2.5,0.3c0.8-0.1,1.7,0.1,2.6,0.2
			c0.9,0,1.2-1.2,2.6,0.2c0.5-0.9,1.9,0.4,2.7,0.2c0.9,0,2,0.4,2.8,0.2c0.7-0.5,1.8-0.1,2.9,0.2c0.4-0.1,0.6-0.8,1.3-0.2
			c0.8,0.7,1.1,0.2,1.6,0.3c0.3-0.4,1.2,0.5,1.5,0.2c0.7,0.6,0.8-0.2,1.3-0.1c0.2-0.5,0.5-0.9,1.2-0.3c0.5,0.1,1.2,0.6,1.5,0.3
			c0.3-0.4,1.1,0.5,1.4,0c0.6,0.3,1.1,0.5,1.4,0c0.9,0,2,0.4,2.8,0c1,0.1,2.2,0.7,2.7-0.1c0.9-0.1,1.9,0.2,2.7-0.1
			c0.9-0.1,1.7-0.1,2.6-0.1c1,0.2,1.3-0.9,2.5-0.2c0.6-0.5,2.2,1.1,2.4-0.2c1.1,0.6,1.6-0.2,2.4-0.3c0.7-0.3,1.8,0.4,2.3-0.3
			c0.7-0.3,1.5-0.2,2.2-0.3c0.7-0.1,1.4-0.2,2.1-0.4c6.1-1.2,10.7-2.7,13.3-4.6c0.3-0.2,1-0.8,1.2-1C122.6,18,109.3,12.6,95.2,10.4z
			"/>
		
			<radialGradient id="jupiter_svgid_4_" cx="93.4748" cy="620.5982" r="0.9543" gradientTransform="matrix(251.5327 7.9351 -5.1677 242.5775 -20281.4531 -151241.75)" gradientUnits="userSpaceOnUse">
			<stop  offset="0.1703" style="stop-color:#FFC758"/>
			<stop  offset="0.2272" style="stop-color:#F0BB52"/>
			<stop  offset="0.3369" style="stop-color:#C89C43"/>
			<stop  offset="0.4835" style="stop-color:#8A6B2B"/>
			<stop  offset="0.8407" style="stop-color:#000000"/>
		</radialGradient>
		<path fill="url(#jupiter_svgid_4_)" d="M145.8,45.7c-6.3,2.4-16,4.2-27.7,5.2c-0.6,0.1-1.2,0.1-1.9,0.2c-0.4,0.6-1.5-0.5-1.9,0.1
			c-0.8-0.3-1.2,0.3-1.9,0.1c-0.7-0.1-1.2,0.3-2,0.1c-0.8-0.4-1,0.7-2,0.1c-0.8-0.2-1.4,0-2,0.1c-0.9-0.4-1.3,0.1-2,0.1
			c-0.4,0.4-1.2,0-1.8,0.1c-0.4,0.4-1.2,0.1-1.8,0c-0.7-0.3-1.4-0.3-1.8,0c-0.7-0.2-1.1,0.4-1.9,0c-0.3,0-0.6,0-0.9,0
			c-0.3,0-0.6,0-0.9,0c-0.6,0-1,0.6-1.9,0c-1-0.8-1,0.5-1.9,0c-0.8-0.3-1.1,0.4-1.9,0c-0.8-0.3-1.4-0.2-1.9,0c-1-0.7-1.3,0-2-0.1
			c-0.5,0.2-1.4-0.2-2-0.1c-0.8-0.4-1,0.7-1.9-0.1c-0.3,0.7-1.2,0.1-1.9-0.1c-0.8-0.3-1.4-0.3-1.9-0.1c-0.6,0.1-1.7-1.1-1.9-0.1
			c-0.5-0.4-0.6,0-1-0.1c-0.5-0.4-0.7-0.2-0.9,0c-0.2,0.2-0.5,0.2-0.9,0.1c-0.3-0.1-0.7-0.2-1-0.2c-0.4,0.3-1.4-0.6-1.8-0.1
			c-0.6-0.1-1.3-0.3-1.8-0.2c-0.6-0.1-1.1,0.1-1.8-0.2c-0.8-0.2-1.2,0.3-2-0.2c-0.7,0-1.8-1.1-2-0.2c-0.7-0.3-1.6-0.8-2-0.2
			c-0.7-0.2-1.2,0.1-1.9-0.2c-0.4,0.4-1.4-0.5-1.9-0.3c-0.3,0.6-1.2,0.1-1.9-0.3c-0.5,0.2-1.2-0.1-1.8-0.3c-0.7,0.1-2-1.1-2.5-0.4
			c-0.4,0.7-1.7-0.5-2.4-0.4c-0.7,0-1.6-0.3-2.3-0.4c-0.8-0.3-1.8-0.9-2.3-0.4c-0.9-0.6-0.9,0.9-2.2-0.5c-0.5,0.3-1.8-1.2-2.1-0.5
			c-0.1,1-1.1,0.3-2-0.5c-0.2,0.8-1.2-0.2-1.9-0.5c-0.7-0.3-1.1,0-1.9-0.5c-0.6-0.2-1.2-0.4-1.8-0.5c-0.6-0.2-1.1-0.4-1.7-0.6
			c-1.6-0.6-3.1-1.1-4.4-1.7c-0.2-0.1-0.4-0.2-0.6-0.3c1.2,0.8,2.5,1.6,3.9,2.4c0.5,0.3,1,0.6,1.4,0.8c0.5,0.3,1.2,1,1.5,0.7
			c0.6,0.3,1.1,0.5,1.6,0.7c0.8,0.9,1.1,0.6,1.6,0.7c0.8,0.8,1.6,1.5,1.7,0.7c0.4-0.1,1.1,0.3,1.7,0.7c0.6,0.2,1.7,1.5,1.8,0.7
			c0.9,0.8,1.1,0.1,1.8,0.6c0.7,0.4,1-0.2,1.9,0.6c0.5,0,0.7-0.9,1.9,0.6c0.6,0.1,1.6,0.9,2,0.6c0.5-0.1,1.2,0,2,0.5
			c0.6,0,1.7,1.1,2.1,0.5c0.7,0.1,1.3,0.2,2.1,0.5c1.2,1.2,1.5,0.5,2.2,0.5c0.6-0.1,1.8,1,2.2,0.5c1.3,1.3,1.1-0.6,2.3,0.4
			c0.6-0.2,1.6,0.4,2.3,0.4c0.5-0.5,1.7,0.6,2.3,0.4c0.4-0.7,1.5,0.1,2.4,0.4c0.9,0.4,1.5,0,2.4,0.3c0.8,0.1,1.6,0.2,2.4,0.3
			c0.6,0.1,1.3,0.2,1.9,0.2c0.6,0,1.4,0.5,1.9,0.2c0.5-0.2,1-0.6,2,0.2c0.6,0,1.1-0.3,2,0.2c0.6-0.1,1.2-0.2,2,0.1
			c0.7,0.1,1.3,0,2,0.1c0.6-0.1,1.4,0.3,2,0.1c0.6-0.1,1.3-0.1,2,0.1c0.7,0,1.3-0.1,2.1,0.1c0.4,0,0.8,0,1.2,0c0.4,0,0.5-0.7,1.3,0
			c0.5,0.1,0.9,0.2,1.3,0c0.5,0.1,1.3,1.1,1.3,0c-0.1-1.2,0.8-0.2,1.2-0.2c0.3-0.3,0.7-0.3,1.4,0.2c0.3-0.4,0.6-0.4,1.3,0.1
			c0.5,0.2,0.3-1.1,1.2-0.1c0.4,0,0.9,0.2,1.2-0.2c0.7,0.7,1.3,1.1,1.3,0.1c0.8,0.7,1.1,0.5,1.2-0.1c0.7,0.6,0.6-0.4,1.3,0.1
			c0.4,0,0.8,0,1.2-0.1c0.4,0,0.6-0.5,1.2-0.1c0.8,0,1.6-0.1,2.4-0.1c16.8-1.1,31.3-4.3,41.4-8.9c-0.9-1.4-1.8-2.8-2.7-4.1
			C148.3,44.6,147.1,45.1,145.8,45.7z"/>
		
			<radialGradient id="jupiter_svgid_5_" cx="93.7187" cy="619.0785" r="0.3079" gradientTransform="matrix(403.6199 12.7335 -8.2927 389.2499 -32628.3906 -242097.5312)" gradientUnits="userSpaceOnUse">
			<stop  offset="0" style="stop-color:#FFDA92"/>
			<stop  offset="0.3736" style="stop-color:#FFC758"/>
			<stop  offset="0.4644" style="stop-color:#F0BB52"/>
			<stop  offset="0.6396" style="stop-color:#C89C43"/>
			<stop  offset="0.8736" style="stop-color:#8A6B2B"/>
		</radialGradient>
		<path fill="url(#jupiter_svgid_5_)" d="M137.3,70.5c-1.1-1.1-1,0.4-1.6,0.3c-1-0.8-1.7-1-1.7,0.3c-0.4,0.6-0.8,0.9-1.7,0.3
			c-0.6,0-0.5,1.7-1.8,0.3c-0.7-0.2-0.9,0.8-1.8,0.3c-0.2,1.1-1.8-1-1.9,0.3c-0.5,0.4-1.1,0.4-1.9,0.3c-0.6,0.2-1.2,0.3-1.9,0.2
			c-0.7,0-1.1,0.6-2,0.2c-0.7,0.1-0.9,1.2-2,0.2c-0.1,1.2-1,0.9-2,0.2c-0.7,0.1-1.2,0.6-2.1,0.2c-1.2-1-1.4,0-2.1,0.2
			c-0.7,0-1.2,0.6-2.1,0.1c-0.8-0.2-1.8-0.7-2.2,0.1c-0.6,0.2-1.5-0.1-2.2,0.1c-0.8-0.2-2.2-1.5-2.2,0.1c-1-0.5-1.5,0.1-2.2,0.1
			c-0.9-0.3-1.7-0.4-2.3,0.1c-0.7,0.1-1.6-0.2-2.3,0c-1-0.5-1.6,0-2.3,0c-0.8,0-1.6,0-2.3,0c-0.8,0-1.6,0-2.4,0
			c-0.7,0.1-1.4,0.3-2.4,0c-1.1-0.8-1.4,0.5-2.4-0.1c-1.1-0.8-1.6-0.1-2.4-0.1c-1.2-1-1.6-0.1-2.4-0.1c-0.6,0.4-1.6-0.2-2.4-0.1
			c-1.5-1.7-1.1,0.9-2.3-0.1c-0.9-0.2-1.7-0.5-2.3-0.2c-0.9-0.4-0.8,1.5-2.3-0.2c-0.6,0.4-1.7-0.6-2.3-0.2c-0.9-0.3-1.6-0.2-2.2-0.2
			c-0.7,0-1.8-0.9-2.2-0.2c-0.5,0.5-1.2,0.5-2.2-0.2c-0.6,0.2-1.7-0.7-2.2-0.3c-0.5,0.3-1.2,0.4-2.1-0.3c-0.9-0.5-2.1-1.7-2.1-0.3
			c-0.8-0.4-1.1,0.4-2.1-0.3c-0.2,0.9-1.9-1.4-2-0.3c-1-0.9-1.7-1.1-2-0.3c-0.8-0.4-1.2,0-2-0.3c-0.3,0.7-1.4-0.4-1.9-0.4
			c-0.5,0.2-1.2-0.1-1.9-0.4c-0.5,0-1.1,0-1.8-0.4c-0.8-0.5-1.1,0-1.8-0.4c-0.8-0.7-0.6,0.9-1.8-0.4c-0.5,0-1.2-0.4-1.7-0.4
			c-0.9-0.9-1.3-0.6-1.7-0.4c-0.6-0.2-1.4-0.9-1.6-0.4c-1-0.5-1.7-0.4-2.5-0.7c-1.3-1.2-1.7-0.7-2.4-0.8c-0.6,0.2-1.2,0.2-2.3-0.8
			c-0.9-0.5-1.5-0.6-2.1-0.8c-0.8-0.4-1.4-0.6-2-0.8c-0.4,0.3-1.3-0.6-1.9-0.9c-0.5-0.1-1.1-0.4-1.7-0.9c-0.7-0.6-1.1-0.7-1.6-0.9
			c-0.5-0.4-1-0.6-1.4-0.9c-1.3-0.9-2.4-1.9-3.2-2.8c-1.2,2.8-2.1,5.8-2.9,8.7c1.7,1.1,3.8,2.2,6.2,3.3c0.3,0.1,0.5,0.2,0.8,0.3
			c1.1,2.1,3.7,3.4,5.7,1.2c0.5-0.6,1.6-0.1,2.2,0.4c0.5,0.5,0.7,1.4,1.5,1.7c0.3,0.1,0.7,0.2,1.1,0.3c1.7,0.5,3.5,1,5.3,1.4
			c0.6,0.1,1.2,0.3,1.9,0.4c0.6,0,1.1,0,1.9,0.4c0.7,0.3,1-0.3,2,0.4c0.7,0.3,1.3,0.3,2,0.4c3.4,0.7,6.9,1.3,10.6,1.9
			c0.2,0.1,0.4,0.1,0.6,0.1c0.1,0.8,1,2.1,1.5,1.6c1.9-1.6,4.5-2.4,6.7-0.6c0.1,0.2,0.4,0,0.6,0.1c0.2,0,0.4,0,0.6,0.1
			c1.8,0.2,3.7,0.4,5.5,0.6c0.6,0.1,1.3,0.1,1.9,0.2c0.6-0.1,1.4,0.3,1.9,0.2c0.7,0.2,1.1-0.3,1.9,0.2c0.8,0.4,1.1-0.2,1.9,0.1
			c0.3-0.8,1.5,0.4,1.9,0.1c0.6,0,1.5,0.5,2,0.1c0.7,0.2,1.3,0.1,2,0.1c0.7,0.1,1.3-0.1,2,0.1c0.2,0.1,0.3-0.2,0.7,0.1
			c0.1,0.1,0.5,0.9,0.9,1.5c0.3,0.4,0.7,0.7,1.2,0.3c0.3-0.3,0.7-0.4,0.8-1c0.1-0.6,0.4-0.9,0.7-1.1c0.2-0.4,0.8-0.2,1.1-0.7
			c0.5,0,1,0.2,1.3,0c0.5,0.2,0.6-0.3,1.2,0.4c0.5,0.4,1,1,1.1,0.7c0.2,0.1,0.6,0.3,0.8,0.1c0.4,0.3,0.5,0.1,0.7,0
			c1.1,0.4,1.8-0.2,2.8,0c0.9-0.1,1.9,0.2,2.8,0c0.5,0,1,0.1,1.4,0.2c0.4-0.1,1,0.2,1.3-0.2c0.5,0.1,0.9-0.1,1.4,0
			c0.8,0.8,1.3,0.8,1.3,0c0.7,0.2,1.3,0.1,1.8,0c0-1.2,1-0.4,1.8,0c0.6,0,1-0.3,1.8-0.1c0.3-0.4,0.9-0.1,1.3,0
			c0.7,0.5,0.5-0.9,1.3-0.1c0.6,0.4,0.8-0.2,1.4,0.2c0.4,0,0.4-1.1,1.2-0.3c0.2-0.5,0.6-0.5,1.2-0.1c0.4-0.2,0.7-0.3,1.3,0
			c0.5,0.2,0.8-0.2,1.3,0.1c0.4-0.1,0.8-0.2,1.1-0.3c0.8,0,1.5-0.3,2.4-0.2c0.8-0.1,1.8,0.3,2.4-0.2c0.9,0.1,1.6-0.1,2.4-0.2
			c0.8-0.1,1.6-0.2,2.3-0.3c14.5-1.7,26.1-4.5,33.2-8.1c-0.7-3.4-1.6-6.6-2.7-9.8c-1.1,1.2-2.7,2.4-4.7,3.4
			c-0.5,0.3-1.1,0.5-1.6,0.8c-0.9-0.6-1.1,0.6-1.7,0.8c-1-0.6-0.9,1.3-1.9,0.7c-0.1,1.5-1.2,0.7-2,0.7c-0.5,0.7-1.8-0.3-2.2,0.7
			c-0.9-0.1-1.5,0.4-2.3,0.6c-0.9,0.1-1.8,0.1-2.4,0.6C138.5,69.1,138.6,71.3,137.3,70.5z"/>
		
			<radialGradient id="jupiter_svgid_6_" cx="93.2445" cy="622.5533" r="0.9542" gradientTransform="matrix(176.2555 5.5605 -3.6212 169.9799 -14114.6846 -106257.4375)" gradientUnits="userSpaceOnUse">
			<stop  offset="2.197800e-02" style="stop-color:#FFEAC0"/>
			<stop  offset="0.3187" style="stop-color:#FFC758"/>
			<stop  offset="0.3905" style="stop-color:#F0BB52"/>
			<stop  offset="0.5291" style="stop-color:#C89C43"/>
			<stop  offset="0.7143" style="stop-color:#8A6B2B"/>
		</radialGradient>
		<path fill="url(#jupiter_svgid_6_)" d="M7.6,92.6c0.1,0.7,0.1,1.4,0.2,2.1c0.4,3.1,1.1,6.2,1.9,9.1c3.2,1.6,6.8,3,10.9,4.4
			c0.6,0.2,1.2,0.4,1.8,0.6c0.7,0.5,1.1,0.1,1.8,0.6c0.4-0.2,0.7-0.7,1.8,0.5c1.1,1.2,1.1,0.1,1.9,0.5c0.5-0.1,1.1-0.1,1.9,0.5
			c0.7,0.4,1.5,0.7,2,0.5c0.4-0.3,1.3,0.2,2,0.5c0.7,0.1,1.5,0.6,2.1,0.5c0.6-0.2,1.4,0.4,2.1,0.5c0.8,0.3,1.1-0.4,2.1,0.4
			c0.6-0.1,1.5,0.3,2.2,0.4c0.9,0.4,1.1-0.5,2.2,0.4c1,0.7,1.4,0.1,2.3,0.4c0.7,0,1.6,0.4,2.3,0.4c0.8,0.2,1.7,0.7,2.3,0.4
			c0.7-0.1,1.6,0.3,2.4,0.3c0.5-0.5,1.4-0.2,2.4,0.3c0.7-0.1,1.5-0.1,2.4,0.3c0.4-0.8,1.7,0.4,2.4,0.3c1,0.5,1.4-0.4,2.5,0.3
			c0.9,0.3,1.4-0.3,2.5,0.2c0.9,0.3,2,0.9,2.5,0.2c0.6-0.4,1.5-0.3,2.6,0.2c1.1,0.6,1.9,0.6,2.6,0.2c1,0.4,1.6-0.1,2.6,0.2
			c1,0.3,2,0.6,2.6,0.1c0.9,0,1.9,0.4,2.6,0.1c0.9,0.2,1.8,0.2,2.7,0.1c0.7-0.3,1.8,0.2,2.6,0.1c0.8,0,1.6-0.3,2.6,0
			c0.9,0.1,1.7,0,2.6,0c1.1,0.6,2.1,1,2.5,0c0.9,0.1,1.7,0,2.5,0c0.8-0.1,1.7,0,2.5,0c1,0.3,1.8,0.4,2.5-0.1c1,0.3,1.6-0.1,2.4-0.1
			c0.9,0.2,1.6-0.1,2.4-0.1c1,0.4,1.6,0,2.4-0.1c0.9,0.1,1.7,0.2,2.4-0.1c0.6-0.5,1.7,0.2,2.3-0.2c0.5-0.6,1.4-0.4,2.3-0.2
			c0.8-0.1,1.6,0.1,2.3-0.2c0.5-0.7,1.8,0.5,2.2-0.2c0.9,0.2,1.4-0.4,2.2-0.2c0.7-0.1,1.6,0.2,2.2-0.3c0.6-0.4,1.3-0.6,2.2-0.3
			c0.7-0.1,1.1-1,2.1-0.3c0.7-0.1,1.4-0.1,2.1-0.3c0.9,0.3,0.9-1.3,2-0.3c0.5-0.5,1.5,0.1,2-0.3c0.3-0.8,1.3-0.2,2-0.4
			c0.9,0.4,1.6,0.5,1.9-0.4c0.2-1.1,1.6,0.5,1.9-0.4c0.5-0.3,1.3-0.1,1.8-0.4c0.5-0.3,1.1-0.5,1.8-0.4c0.6-0.1,1.2-0.3,1.8-0.4
			c4.6-1.2,8.8-2.6,12.4-4.1c0.8-2.6,1.5-5.2,2.1-7.9c-3.3,1.2-7,2.3-11,3.3c-0.7,0.2-1.3,0.3-2,0.5c-0.6,0.2-1.3,0.5-2.1,0.5
			c-0.6,0.3-1.2,0.7-2.1,0.4c-1.2-0.9-1.1,0.9-2.2,0.4c-0.9-0.3-1.3,0.5-2.2,0.4c-0.7,0.3-1.5,0.3-2.2,0.4c-0.8,0-1.5,0.3-2.3,0.4
			c-0.2,0.4-0.8,0-1.1,0.2c-0.3,0.1-0.7,0.2-1.1,0.2c-0.3-0.2-0.3,0.2-0.6,0c-0.5-0.7-0.4-0.1-0.5,0.2c-0.2,0-0.1,0.6-0.5,0.2
			c-0.1,0.2-0.5-0.2-0.6-0.1c0,0.4-0.5-0.2-0.7-0.2c-0.2-0.1-0.2,0.4-0.3,0.6c-0.1,0.3-0.4,0.1-0.7-0.3c-0.3-0.3-0.5-0.3-0.5,0.2
			c0,0.3,0.1,1-0.3,0.5c0,0.3-0.3,0.2-0.6,0c-0.3-0.1-0.5-0.3-0.7-0.1c0.1,0.6-0.6-0.4-0.7-0.2c-0.4-0.4-0.3,0.2-0.8-0.4
			c-0.3-0.2-0.3,0.3-0.4,0.4c-0.7-1-0.5-0.2-0.5,0.2c-0.1,0.3-0.2,0.5-0.6,0.1c-0.5-0.2-1.4-1.2-1.2-0.1c-0.6-0.5-0.5,0.8-1.1,0.3
			c-0.3,0.3-0.7,0.3-1.2,0.1c0,0.8-0.7,0.2-1.2,0.1c-0.2,0.5-0.3,1.2-1.2,0.1c-0.1,0.6-0.9-0.2-1.2,0.1c-0.6-0.2-0.8,0.5-1.6,0.1
			c-0.6-0.1-1.1,0.1-1.6,0.1c-0.5,0.1-1.1,0.1-1.6,0.1c-0.2,0.4-0.9-0.1-1.2,0.1c-0.4,0-0.8,0-1.2,0.1c-0.8,0.1-1.7-0.1-2.4,0.1
			c-1-0.4-1.5,0.2-2.4,0.1c-0.7,0.4-1.6,0.1-2.4,0.1c-1.2-0.8-1.6,0.1-2.4,0c-0.7,0.3-1.5,0.4-2.5,0c-1.3-0.9-1.7-0.1-2.5,0
			c-1-0.3-1.4,0.7-2.5,0c-0.7,0.2-1.7-0.1-2.5,0c-0.8,0-1.9-0.4-2.5-0.1c-0.6,0.3-1.5-0.2-2.1-0.1c-0.6,0.1-1.3,0.2-2.1-0.1
			c-0.7-0.1-1.3,0.1-2.1-0.1c-0.8-0.2-1.4-0.2-2.1-0.1c-0.6,0.2-1.4-0.1-2.1-0.1c-0.6,0.1-1.3,0.1-2-0.1c-0.8-0.2-1.3-0.1-2-0.2
			c-0.7,0-1.3-0.1-2-0.2c-0.7-0.1-1.3-0.1-2-0.2c-0.7-0.1-1.4-0.3-2-0.2c-0.6,0-1.3-0.2-2-0.2c-0.6,0-1.3-0.1-2-0.2
			c-0.7-0.1-1.4-0.3-1.9-0.2c-0.6,0.1-1.2,0-1.9-0.2c-0.3,0.1-0.8,0-1.2-0.2c-0.4-0.1-0.8-0.1-1.2-0.2c-0.3,0.1-0.8-0.2-1.2-0.1
			c-0.4,0-0.8-0.1-1.2-0.3c-0.3,0-0.7,0-1.2-0.2c-0.3,0.1-0.7,0.1-1.2-0.1c-0.5-0.2-0.8-0.2-1.2-0.2c-0.3,0.1-1-0.5-1.2-0.2
			c-0.5-0.4-0.8-0.2-1.2-0.3c-0.4-0.1-0.7,0-1.1-0.1c-0.4-0.1-1.1-1-1.2-0.3c-0.5-0.3-1-0.6-1.1-0.2c-0.4,0-0.7-0.1-1.2-0.5
			c-0.4-0.1-0.6,0.1-1,0c-0.5-0.3-0.9-0.5-1.1-0.3c-0.3,0-0.7,0-1-0.1c-0.2,0.2-0.6,0.1-1,0c-0.4-0.1-0.8-0.4-1.2-0.4
			c-1.3-1.4-1.5-0.5-2.1-0.5c-1.3-1.5-1.4-0.3-2.1-0.5c-0.4,0.4-1.4-0.4-2-0.5c-0.7-0.2-1.1,0.1-2-0.5c-0.2,0.8-1.2,0-2-0.5
			c-0.5,0.2-1.4-0.5-1.9-0.6c-0.4,0.4-1.4-0.6-1.9-0.6c-0.6-0.2-1.1-0.1-1.8-0.6c-0.7-0.4-1.2-0.4-1.8-0.6
			C16.1,96.7,11.4,94.7,7.6,92.6z"/>
		
			<radialGradient id="jupiter_svgid_7_" cx="462.1647" cy="1048.7491" r="30.6164" gradientTransform="matrix(1.2596 -0.1804 0.1221 0.6646 -584.3772 -513.2586)" gradientUnits="userSpaceOnUse">
			<stop  offset="6.043960e-02" style="stop-color:#8A6B2B"/>
			<stop  offset="8.742093e-02" style="stop-color:#9B7932"/>
			<stop  offset="0.1615" style="stop-color:#C69A42"/>
			<stop  offset="0.2283" style="stop-color:#E5B34E"/>
			<stop  offset="0.2848" style="stop-color:#F8C255"/>
			<stop  offset="0.3242" style="stop-color:#FFC758"/>
			<stop  offset="0.533" style="stop-color:#DBA434"/>
			<stop  offset="0.9176" style="stop-color:#8A6B2B"/>
		</radialGradient>
		<path fill="url(#jupiter_svgid_7_)" d="M141.7,97.9c0.2,1.1-0.1,2.2-0.7,3.2c-0.3,0.5-0.7,1-1.2,1.5c-0.5,0.6-1,1.1-1.7,1.4
			c-0.6,0.5-1.5,0.6-2.2,1.3c-0.5,1.1-1.8,0.3-2.6,1.1c-1.1,0-2,0.4-2.9,0.9c-0.6,1.2-2.2,0.1-3.2,0.6c-0.7-0.2-1,0.3-1.6,0.2
			c-0.6-0.1-1.1,0.1-1.6,0.1c-0.3,0.4-0.6,1-1.6,0c-0.8-0.6-0.7,0.7-1.5-0.1c-0.4,0.1-1-0.1-1.4,0.1c-0.5-0.2-0.6,0.6-1.5-0.4
			c-0.6-0.3-0.7,0.2-1.3-0.4c-0.4,0.1-0.8-0.1-1.2-0.3c0.3,1.5-0.9-0.5-1-0.1c-0.3-0.1-0.9-0.8-1.2-0.8c-0.2,0.2-0.5-0.2-0.7-0.1
			c-0.5-0.8-0.7-0.6-1-1.1c-0.2-0.2-0.4-0.3-0.8-1c0,0.3-0.1,0.1-0.4-0.3c-0.2-0.2-0.1-0.1-0.2-0.2c0-0.1-0.1-0.3-0.5-1.3
			c0.2,0-0.1-1.1,0-1.6c0.8-3.8,6.7-7.4,14.4-8.5C133.2,91.1,140.9,93.6,141.7,97.9z"/>
		
			<radialGradient id="jupiter_svgid_8_" cx="7202.7197" cy="8044.6362" r="31.721" gradientTransform="matrix(8.380000e-02 -3.490000e-02 3.850000e-02 8.400000e-02 -838.5676 -314.1773)" gradientUnits="userSpaceOnUse">
			<stop  offset="0.8132" style="stop-color:#FFCD6C"/>
			<stop  offset="1" style="stop-color:#FFC758"/>
		</radialGradient>
		<path fill="url(#jupiter_svgid_8_)" d="M78,110.9c-0.2,1.3-1.9,2-3.7,1.7c-1.8-0.4-3.1-1.7-2.9-3c0.2-1.3,1.9-2,3.7-1.7
			C77,108.3,78.3,109.6,78,110.9z"/>
		
			<radialGradient id="jupiter_svgid_9_" cx="6392.4453" cy="9394.5039" r="31.8219" gradientTransform="matrix(7.750000e-02 -4.640000e-02 4.990000e-02 7.830000e-02 -842.5784 -324.794)" gradientUnits="userSpaceOnUse">
			<stop  offset="0.8132" style="stop-color:#FFCD6C"/>
			<stop  offset="1" style="stop-color:#FFC758"/>
		</radialGradient>
		<path fill="url(#jupiter_svgid_9_)" d="M125,114.4c0,1.3-1.6,2.3-3.4,2.2c-1.9-0.1-3.3-1.3-3.3-2.6c0-1.3,1.6-2.3,3.4-2.2
			C123.6,111.9,125,113.1,125,114.4z"/>
		
			<linearGradient id="jupiter_svgid_10_" gradientUnits="userSpaceOnUse" x1="4943.519" y1="-901.9908" x2="4949.7344" y2="-901.9908" gradientTransform="matrix(0.3808 8.160000e-02 -0.1887 1.1485 -1973.5013 753.8353)">
			<stop  offset="0.6429" style="stop-color:#E7AF41"/>
			<stop  offset="1" style="stop-color:#DBA434"/>
		</linearGradient>
		<path fill="url(#jupiter_svgid_10_)" d="M81.6,121.8c-0.1,0.7-0.7,1.1-1.4,1c-0.7-0.1-1.1-0.8-1-1.5c0.1-0.7,0.7-1.1,1.4-1
			C81.3,120.4,81.7,121.1,81.6,121.8z"/>
		
			<linearGradient id="jupiter_svgid_11_" gradientUnits="userSpaceOnUse" x1="5010.4282" y1="-908.9754" x2="5016.6606" y2="-908.9754" gradientTransform="matrix(0.3808 8.160000e-02 -0.1887 1.1485 -1973.5013 753.8353)">
			<stop  offset="0.6429" style="stop-color:#E7AF41"/>
			<stop  offset="1" style="stop-color:#DBA434"/>
		</linearGradient>
		<path fill="url(#jupiter_svgid_11_)" d="M108.4,119.2c-0.1,0.7-0.8,1.1-1.4,1c-0.7-0.1-1.1-0.8-1-1.5c0.1-0.7,0.7-1.1,1.4-1
			C108,117.9,108.5,118.5,108.4,119.2z"/>
	</g>
	<g>
		
			<radialGradient id="jupiter_svgid_12_" cx="93.2869" cy="625.6369" r="0.9475" gradientTransform="matrix(185.7254 5.7976 -2.5047 115.6363 -15695.9502 -72797.375)" gradientUnits="userSpaceOnUse">
			<stop  offset="0.1758" style="stop-color:#FFC758"/>
			<stop  offset="0.4341" style="stop-color:#DBA434"/>
			<stop  offset="0.6154" style="stop-color:#8A6B2B"/>
			<stop  offset="0.8791" style="stop-color:#231C11"/>
		</radialGradient>
		<path fill="url(#jupiter_svgid_12_)" d="M21.9,90.9c5.5,1.8,12.3,2.8,17.3,4c5,1.2,11.5,0.4,19.4,2.5c7.9,2.2,22.7,2,25.9,1.7
			c3.2-0.2,14.4-1.7,14.4-1.7S79.6,98,74.5,97.9c-5-0.1-9.4-1.8-12.7-2.3c-3.3-0.5-3.2-2.8-14.6-2.9c-11.4-0.2-14.2-2-18.5-3.5
			c-4.3-1.5-11.5-4.5-14.6-5.9c-2.2-1-5.2-2.2-6.9-2.9c0,0.8-0.1,1.5-0.1,2.3C10.8,85,17.9,89.6,21.9,90.9z"/>
		
			<radialGradient id="jupiter_svgid_13_" cx="246.9349" cy="29.8401" r="194.2149" gradientTransform="matrix(0.9732 -0.4052 0.4388 0.959 -153.594 169.4237)" gradientUnits="userSpaceOnUse">
			<stop  offset="0" style="stop-color:#FFDA92"/>
			<stop  offset="0.3736" style="stop-color:#FFC758"/>
			<stop  offset="0.4644" style="stop-color:#F0BB52"/>
			<stop  offset="0.6396" style="stop-color:#C89C43"/>
			<stop  offset="0.8736" style="stop-color:#8A6B2B"/>
		</radialGradient>
		<path fill="url(#jupiter_svgid_13_)" d="M21.9,90.9c5.5,1.8,12.3,2.8,17.3,4c5,1.2,11.5,0.4,19.4,2.5c7.9,2.2,22.7,2,25.9,1.7
			c3.2-0.2,14.4-1.7,14.4-1.7S79.6,98,74.5,97.9c-5-0.1-9.4-1.8-12.7-2.3c-3.3-0.5-4.7-1.9-16.1-2c-11.4-0.2-16.2-2.8-20.5-4.3
			c-4.3-1.5-7.9-4.6-11-6c-2.2-1-5.2-2.2-6.9-2.9c0,0.8-0.1,1.5-0.1,2.3C10.8,85,17.9,89.6,21.9,90.9z"/>
		
			<radialGradient id="jupiter_svgid_14_" cx="93.285" cy="625.6382" r="0.9539" gradientTransform="matrix(185.7254 5.7976 -2.5047 115.6363 -15695.9502 -72797.375)" gradientUnits="userSpaceOnUse">
			<stop  offset="0.1758" style="stop-color:#FFC758"/>
			<stop  offset="0.4341" style="stop-color:#DBA434"/>
			<stop  offset="0.6154" style="stop-color:#8A6B2B"/>
			<stop  offset="0.8791" style="stop-color:#231C11"/>
		</radialGradient>
		<path fill="url(#jupiter_svgid_14_)" d="M162.7,81.3c-1.8,0.7-5.5,2.1-8.1,3.1c-3.5,1.5-8.5,0.3-11.9,1.7c-3.5,1.4-15,1.1-19.5,0.2
			c-4.5-0.8-14.3,0.8-15.7,1.4c-1.4,0.6-17.6,1.3-17.6,1.3s10.9,0.9,16.5-0.1c5.6-1,13.7-0.3,23.3-1c9.6-0.7,16.1,4.4,22.6,4.2
			c3.7-0.2,7.6-2.3,10.5-4.2c0-0.1,0-0.2,0-0.4C162.9,85.4,162.8,83.3,162.7,81.3z"/>
		
			<linearGradient id="jupiter_svgid_15_" gradientUnits="userSpaceOnUse" x1="317.545" y1="79.9909" x2="367.9909" y2="79.9909" gradientTransform="matrix(1.2684 -0.555 0.5844 1.3357 -353.8917 171.6241)">
			<stop  offset="0" style="stop-color:#EBB750"/>
			<stop  offset="0.2577" style="stop-color:#E8B54F"/>
			<stop  offset="0.4414" style="stop-color:#DFAD4B"/>
			<stop  offset="0.6022" style="stop-color:#CFA145"/>
			<stop  offset="0.7499" style="stop-color:#B9903D"/>
			<stop  offset="0.8872" style="stop-color:#9D7A32"/>
			<stop  offset="0.9615" style="stop-color:#8A6B2B"/>
		</linearGradient>
		<path fill="url(#jupiter_svgid_15_)" d="M162.7,81.3c-1.8,0.7-7,4.9-9.6,5.9c-3.5,1.4-11,0.2-14.8-0.4c-6.8-1-9.3-0.4-13.9-0.2
			c-6.7,0.4-15.5,0.5-16.9,1.1c-1.4,0.6-17.6,1.3-17.6,1.3s10.9,0.9,16.5-0.1c5.6-1,13.7-0.3,23.3-1c9.6-0.7,16.1,4.4,22.6,4.2
			c3.7-0.2,7.6-2.3,10.5-4.2c0-0.1,0-0.2,0-0.4C162.9,85.4,162.8,83.3,162.7,81.3z"/>
		
			<radialGradient id="jupiter_svgid_16_" cx="93.2876" cy="625.6398" r="0.9417" gradientTransform="matrix(185.7254 5.7976 -2.5047 115.6363 -15695.9502 -72797.375)" gradientUnits="userSpaceOnUse">
			<stop  offset="0.1758" style="stop-color:#FFC758"/>
			<stop  offset="0.4341" style="stop-color:#DBA434"/>
			<stop  offset="0.6154" style="stop-color:#8A6B2B"/>
			<stop  offset="0.8791" style="stop-color:#231C11"/>
		</radialGradient>
		<path fill="url(#jupiter_svgid_16_)" d="M56.2,130.8c5.3-1.1,20.4,3.5,26.2,3c5.8-0.5,13.9-2.3,16.8-1.8c3,0.4-3.1-0.6-8.6-0.8
			c-5.6-0.1-6.8,1.5-13.3-0.2c-6.6-1.6-18.4-1-23.5-2.5c-5.1-1.4-10.9-3.9-15.7-4.6c-4.1-0.6-19.5-6.3-23.7-7.8
			c0.6,1.3,1.3,2.6,2.1,3.9c3.7,1.3,8.5,2.9,12.6,4.1C37.1,126.5,50.9,131.9,56.2,130.8z"/>
		
			<radialGradient id="jupiter_svgid_17_" cx="235.9614" cy="60.6096" r="155.4529" gradientTransform="matrix(0.9732 -0.4052 0.4388 0.959 -153.594 169.4237)" gradientUnits="userSpaceOnUse">
			<stop  offset="0" style="stop-color:#FFDA92"/>
			<stop  offset="0.3736" style="stop-color:#FFC758"/>
			<stop  offset="0.4644" style="stop-color:#F0BB52"/>
			<stop  offset="0.6396" style="stop-color:#C89C43"/>
			<stop  offset="0.8736" style="stop-color:#8A6B2B"/>
		</radialGradient>
		<path fill="url(#jupiter_svgid_17_)" d="M54.9,130.5c5.3-1.1,20.2,3,26,2.5c5.8-0.5,15.3-1.5,18.3-1.1c3,0.4-3.1-0.6-8.6-0.8
			c-5.6-0.1-10.1,2-16.7,0.4c-6.6-1.6-18.8-1.7-23.8-3.1c-5.1-1.4-8.2-2.8-13-3.6c-4.1-0.6-18.5-7.2-22.7-8.7
			c0.6,1.3,1.3,2.6,2.1,3.9c3.7,1.3,8.5,2.9,12.6,4.1C37.1,126.5,49.7,131.6,54.9,130.5z"/>
	</g>
</g>
</svg>
