<?xml version="1.0" encoding="utf-8"?>
<!-- Generator: Adobe Illustrator 17.1.0, SVG Export Plug-In . SVG Version: 6.00 Build 0)  -->
<!DOCTYPE svg PUBLIC "-//W3C//DTD SVG 1.1//EN" "http://www.w3.org/Graphics/SVG/1.1/DTD/svg11.dtd">
<svg version="1.1" id="Layer_1" xmlns="http://www.w3.org/2000/svg" xmlns:xlink="http://www.w3.org/1999/xlink" x="0px" y="0px"
	 viewBox="0 0 250 125" enable-background="new 0 0 250 125" xml:space="preserve">
<g>
	<g>
		
			<radialGradient id="saturn_svgid_1_" cx="138.6628" cy="-588.8892" r="61.0315" gradientTransform="matrix(0.8756 -0.2819 0.2498 0.8605 148.6493 606.3472)" gradientUnits="userSpaceOnUse">
			<stop  offset="2.197800e-02" style="stop-color:#F4E0C6"/>
			<stop  offset="0.544" style="stop-color:#F0C793"/>
			<stop  offset="0.6208" style="stop-color:#EAC290"/>
			<stop  offset="0.7191" style="stop-color:#DAB586"/>
			<stop  offset="0.8292" style="stop-color:#C0A077"/>
			<stop  offset="0.947" style="stop-color:#9C8261"/>
			<stop  offset="1" style="stop-color:#897356"/>
		</radialGradient>
		<path fill="url(#saturn_svgid_1_)" d="M177.3,67.6c-4.7,30.5-32.9,52.1-62.9,48.2c-30-3.9-50.6-31.8-45.9-62.3
			c4.7-30.5,32.9-52.1,62.9-48.2C161.5,9.1,182,37,177.3,67.6z"/>
		
			<radialGradient id="saturn_svgid_2_" cx="134.4942" cy="-594.7852" r="65.2194" gradientTransform="matrix(0.8756 -0.2819 0.2498 0.8605 148.6493 606.3472)" gradientUnits="userSpaceOnUse">
			<stop  offset="2.197800e-02" style="stop-color:#F4E0C6"/>
			<stop  offset="0.3242" style="stop-color:#F0C793"/>
			<stop  offset="0.4902" style="stop-color:#ECC390"/>
			<stop  offset="0.645" style="stop-color:#E1B885"/>
			<stop  offset="0.7952" style="stop-color:#CEA673"/>
			<stop  offset="0.7967" style="stop-color:#CEA673"/>
			<stop  offset="1" style="stop-color:#685640"/>
		</radialGradient>
		<path fill="url(#saturn_svgid_2_)" d="M77.1,92.7c8.2,12.2,21.4,21,37.2,23c15.8,2.1,31.3-2.9,42.9-12.6c-11.2,2.6-25.7,3.2-41.1,1.2
			C100.7,102.3,87.1,98.1,77.1,92.7z"/>
		
			<radialGradient id="saturn_svgid_3_" cx="132.6274" cy="-569.9564" r="90.2202" gradientTransform="matrix(0.8756 -0.2819 0.2498 0.8605 148.6493 606.3472)" gradientUnits="userSpaceOnUse">
			<stop  offset="2.197800e-02" style="stop-color:#F4E0C6"/>
			<stop  offset="0.3242" style="stop-color:#F0C793"/>
			<stop  offset="0.4902" style="stop-color:#ECC390"/>
			<stop  offset="0.645" style="stop-color:#E1B885"/>
			<stop  offset="0.7952" style="stop-color:#CEA673"/>
			<stop  offset="0.7967" style="stop-color:#CEA673"/>
			<stop  offset="1" style="stop-color:#685640"/>
		</radialGradient>
		<path fill="url(#saturn_svgid_3_)" d="M137.4,6.2c-2-0.4-4.1-0.7-6.3-1c-2.2-0.3-4.3-0.5-6.4-0.7c-10-0.2-19.8,3.1-28.1,7.9
			c0.1,0.2,1.1,0.9,1.4,1.1c4.1,4,15.5,7.3,30.6,9.4c15.1,2.1,28.2,1.3,33.1-1.7c0.2-0.1,0.6-0.4,0.8-0.5
			C155.7,13.7,147.1,8.7,137.4,6.2z"/>
		
			<radialGradient id="saturn_svgid_4_" cx="124.7987" cy="-600.1398" r="132.8851" gradientTransform="matrix(0.8756 -0.2819 0.2498 0.8605 148.6493 606.3472)" gradientUnits="userSpaceOnUse">
			<stop  offset="0" style="stop-color:#FFF4EB"/>
			<stop  offset="0.4231" style="stop-color:#F0C793"/>
			<stop  offset="0.6317" style="stop-color:#ECC491"/>
			<stop  offset="0.8261" style="stop-color:#E1BA8A"/>
			<stop  offset="1" style="stop-color:#D0AC80"/>
		</radialGradient>
		<path fill="url(#saturn_svgid_4_)" d="M169.5,35.6c-4.7,1.3-11.6,2-19.9,2c-3,0-6.3-0.1-9.7-0.3c-4.2-0.3-8.6-0.7-13.2-1.3
			c-4.6-0.6-9-1.3-13.1-2.1c-3.3-0.7-6.4-1.4-9.4-2.1c-8-2.1-14.5-4.5-18.6-7c-0.1-0.1-0.3-0.2-0.4-0.3c8.2,7.2,24.8,13.5,44.5,16.1
			c17.5,2.3,33.8,1.1,44.2-2.6c-0.5-1.1-1-2.2-1.5-3.3C171.6,34.9,170.5,35.3,169.5,35.6z"/>
		
			<radialGradient id="saturn_svgid_5_" cx="132.3065" cy="-592.5581" r="73.3244" gradientTransform="matrix(0.8756 -0.2819 0.2498 0.8605 148.6493 606.3472)" gradientUnits="userSpaceOnUse">
			<stop  offset="2.197800e-02" style="stop-color:#F4E0C6"/>
			<stop  offset="0.2639" style="stop-color:#E5C9A5"/>
			<stop  offset="0.521" style="stop-color:#D8B68A"/>
			<stop  offset="0.7475" style="stop-color:#D1AA79"/>
			<stop  offset="0.9176" style="stop-color:#CEA673"/>
		</radialGradient>
		<path fill="url(#saturn_svgid_5_)" d="M161.1,53.3c-9.8,1.2-22.7,1-36.7-0.8c-14-1.8-26.5-5-35.5-8.6c-7-2.8-12.1-6-14-9.1
			c-1.1,2-2,4-2.9,6.2c7.5,6.7,27.9,13.4,52.2,16.6c23.4,3,44,2,53.8-2c-0.1-2.5-0.6-5.1-1-7.6C174.2,50.5,168.7,52.4,161.1,53.3z"
			/>
		
			<radialGradient id="saturn_svgid_6_" cx="133.4963" cy="-577.8439" r="43.893" gradientTransform="matrix(0.8756 -0.2819 0.2498 0.8605 148.6493 606.3472)" gradientUnits="userSpaceOnUse">
			<stop  offset="0" style="stop-color:#CEA673"/>
			<stop  offset="0.6593" style="stop-color:#F0C793"/>
		</radialGradient>
		<path fill="url(#saturn_svgid_6_)" d="M67.9,60.8c0,0.5-0.1,1-0.1,1.5c0,2.3,0.2,4.6,0.5,6.9c10.4,6.8,29,12.8,50.8,15.7
			c21.8,2.8,41.5,1.8,53.5-2.1c0.8-1.8,1.8-3.7,2.4-5.7c-12.8,3.4-31.9,4.1-52.6,1.5C98.6,75.4,78.5,68.5,67.9,60.8z"/>
		<path fill="#EAC08C" d="M177.3,68.4c-2.5,0.8-5.3,1.4-8.5,1.9c-12.2,2-29,2.1-47.3-0.3c-18.2-2.4-34.4-6.7-45.5-11.8
			c-2.9-1.3-5.4-2.7-7.6-4c-0.3,2.1-0.4,4.3-0.5,6.4c10.6,7.8,30.8,14.7,54.6,17.8c20.7,2.7,39.7,1.9,52.6-1.5
			c0.1-0.3,0.2-0.5,0.3-0.8C176.2,73.6,176.8,71,177.3,68.4z"/>
		
			<radialGradient id="saturn_svgid_7_" cx="134.6675" cy="-584.8607" r="67.9141" gradientTransform="matrix(0.8756 -0.2819 0.2498 0.8605 148.6493 606.3472)" gradientUnits="userSpaceOnUse">
			<stop  offset="0" style="stop-color:#F4E0C6"/>
			<stop  offset="0.4121" style="stop-color:#F0C793"/>
			<stop  offset="0.4767" style="stop-color:#E8C18E"/>
			<stop  offset="0.5751" style="stop-color:#D3B082"/>
			<stop  offset="0.6942" style="stop-color:#B1946E"/>
			<stop  offset="0.7967" style="stop-color:#8E7859"/>
			<stop  offset="1" style="stop-color:#897356"/>
		</radialGradient>
		<path fill="url(#saturn_svgid_7_)" d="M70.4,78.9c1.6,4.9,3.8,9.6,6.7,13.8c9.9,5.3,23.6,9.6,39,11.6c15.4,2,30,1.4,41.1-1.2
			c3.6-3,6.9-6.6,9.7-10.4c-12.2,1.9-29,2-47.1-0.3C99.3,89.8,81.5,84.7,70.4,78.9z"/>
	</g>
	
		<linearGradient id="saturn_svgid_8_" gradientUnits="userSpaceOnUse" x1="173.5168" y1="415.6429" x2="174.3158" y2="415.6429" gradientTransform="matrix(291.7763 46.7415 -40.9454 323.8157 -33600.3047 -142657.1094)">
		<stop  offset="1.648350e-02" style="stop-color:#EFE6DA"/>
		<stop  offset="0.3667" style="stop-color:#EFE5D8"/>
		<stop  offset="0.5295" style="stop-color:#F0E3D0"/>
		<stop  offset="0.6537" style="stop-color:#F1DEC4"/>
		<stop  offset="0.7583" style="stop-color:#F3D8B1"/>
		<stop  offset="0.8506" style="stop-color:#F6CF9A"/>
		<stop  offset="0.9327" style="stop-color:#F9C57D"/>
		<stop  offset="1" style="stop-color:#FCBB5F"/>
	</linearGradient>
	<path fill="url(#saturn_svgid_8_)" d="M177.8,53.1c0.2,1.2,0.1,3.2,0.2,4.4c25.2,6.3,39.9,12.7,40.3,15.6c0.4,3.1-12.1,6.1-38.9,5.1
		c-14.9-0.6-37.7-0.5-57.5-3.1c-21.2-2.8-42.5-7.1-56.8-9.9c-23.3-4.5-32.9-10.4-32.2-15.3c0.6-3.7,14.1-6.6,38.2-6.4
		c0.4-1.1,0.7-2,1.2-3.1C34.4,38.3,9,40.5,8,46.9C7,53.6,29.4,64,69.8,72.8c15.8,3.4,34.3,6.6,55.2,9.2c16.4,2,31.8,3.3,45.9,4
		c41.4,1.9,70.1-1.7,71.2-8.6C243.1,70.7,217,60.9,177.8,53.1z"/>
	
		<linearGradient id="saturn_svgid_9_" gradientUnits="userSpaceOnUse" x1="173.5373" y1="415.6414" x2="174.3065" y2="415.6414" gradientTransform="matrix(291.7763 46.7415 -40.9454 323.8157 -33600.3047 -142657.1094)">
		<stop  offset="0" style="stop-color:#FCBB5F"/>
		<stop  offset="0.3846" style="stop-color:#B58642"/>
		<stop  offset="0.9725" style="stop-color:#49371B"/>
	</linearGradient>
	<path fill="url(#saturn_svgid_9_)" d="M177.9,54.9c0.1,0.7,0,1.3,0,1.5c30.8,5.4,54.1,16.4,54.5,19.1c0.4,2.8-24.9,6.9-50.6,6.2
		c-14.2-0.4-42.4-2.6-61.4-4.8c-20.3-2.4-40.2-6.2-55.1-9.4c-22-4.7-47.9-15-47.2-19.6c0.6-3.5,30.3-5.5,53.3-5.6
		c0.1-0.3,0.2-0.7,0.3-1c-36.1-1.6-57.1,2.9-57.7,6.2c-1.3,6.2,18,14.8,56.6,22.7c15,3.1,31.8,6.5,51.8,8.8
		c15.6,1.8,35.6,3.9,49,4.4c39.6,1.4,67,0.3,67.9-6.1C240,72.1,215.3,61.8,177.9,54.9z"/>
</g>
</svg>
